<?xml version="1.0" encoding="utf-8"?>
<!-- Generator: Adobe Illustrator 22.0.0, SVG Export Plug-In . SVG Version: 6.00 Build 0)  -->
<svg version="1.1" id="图层_1" xmlns="http://www.w3.org/2000/svg" xmlns:xlink="http://www.w3.org/1999/xlink" x="0px" y="0px"
	 viewBox="0 0 860 830" style="enable-background:new 0 0 860 830;" xml:space="preserve">
<style type="text/css">
	.st0{fill:#2E567A;}
	.st1{fill:#95BD24;}
</style>
<g id="_x23_2e567aff">
	<path class="st0" d="M317.9,2.1c5.3-2.2,11.4-2.8,17-1.9c7,2.1,13.5,6.4,17.5,12.6C359.1,23,366,33,372.5,43.3
		c13.1-3.8,26.7-6.7,40.4-7.3c4-0.7,8.1-0.9,12.2-0.8c7.4,0.2,14.8-0.5,22.1,0.8c12.9,0.1,25.5,3.5,38,6.3c2.4,0.9,3.9-1.5,5.1-3.1
		c5.9-9.1,12-18,17.9-27c7.8-11.8,25.4-16.4,37.5-8.6c9,5.4,14.6,16.1,13.4,26.6c-0.1,8.7-6.1,15.5-10.6,22.4
		c-2.6,4.4-5.9,8.3-8.5,12.6c0,0.4,0.1,1.1,0.2,1.4c13,8,24.6,18.2,34.8,29.5c19.8,21.5,32.4,49.5,35.4,78.6
		c1.2,7.8,0.5,15.7,0.7,23.5c6.5-4.7,13.7-8.6,21.5-10.6c15.1-3.8,31.5-0.8,44.7,7.4c17.7,10.6,27.9,31.7,26.8,52.1
		c0.1,46.3,0,92.7,0,139c0.3,12.3-3.1,24.8-10.1,35c-5.6,7-11.9,13.8-20,18c-19.6,10.6-45.6,9.2-63-5.1c0,11.1,0,22.1,0.1,33.2
		c0.3,10.3-3.4,20.5-8.9,29.1c-6.3,9.2-15.8,16-26.3,19.7c-7.3,2.7-15.2,2.3-22.8,2.2c-0.3,17.7-0.1,35.3-0.3,53
		c0.3,8-0.4,16.2-3,23.9c-2.4,8-7.7,14.8-12.8,21.2c-9.4,9.4-22,15.9-35.2,17.3c-8-0.8-16.3,0.8-23.9-2.3
		c-18.5-5.4-33.3-21-38.5-39.5c-3.8-9.5-1.8-19.7-2.6-29.6c0.4-14.6,0.2-29.3,0.2-44c-4.7,0-9.3,0-14,0c-0.3,19,0,38-0.2,57
		c-0.8,5.5-0.5,11.2-2.3,16.5c-3.8,13.6-12.8,25.6-24.6,33.3c-4.4,2.4-8.8,4.8-13.6,6.4c-9.2,2.5-18.8,2.8-28.2,1.6
		c-19.6-3.3-36.3-18-43.5-36.3c-1.6-5.1-2.8-10.3-3.4-15.5c-0.5-20.9,0.3-41.8-0.4-62.7c-5.6-0.6-11.4,0.2-17-1.1
		c-20.7-3.7-37.4-21.9-40.3-42.6c-1.6-13.5-0.1-27-0.7-40.5c-5.7,4.4-12.1,7.7-18.9,9.8c-7.1,2.6-14.9,2.3-22.4,1.6
		c-23.5-1.9-44.3-20.3-49.9-43.1c-1.5-4.3-1.8-8.9-1.6-13.4c-0.9-31.7,0.4-63.3-0.2-95c0.2-16.3-0.4-32.7,0.2-49
		c-0.9-14,4.8-27.8,13.5-38.6c15.9-19.3,45-26.1,67.8-15.7c4.1,1.8,7.6,4.6,11.3,7c0.6-7.6-0.1-15.3,1.3-22.9
		c1-16.9,6.6-33.1,13.9-48.2c8.6-16.5,20.4-31.3,34.1-43.9c6.7-5.4,13.4-10.8,20.5-15.6c0.7-0.6,2.6-1.7,1.4-2.7
		c-4-5.1-7.3-10.8-11.1-16c-2.3-4.1-5.7-7.6-6.7-12.2c-1.3-4.6-0.9-9.5-0.7-14.2C302.9,13.3,309.4,5.5,317.9,2.1 M324.4,25.7
		c-1.1,4.5,2.5,8,4.6,11.6c6.7,11.1,14.7,21.4,21.5,32.4c0.9,1.5,1.2,3.3,1.6,5c-7.1,3.5-13.8,7.7-20.7,11.7
		c-11.5,7.2-21.7,16.3-30.7,26.4c-5.3,6.2-9.7,13.2-14,20.1c-4.8,7-7.4,15.1-10,23c-2.8,9.8-4.4,19.8-4.6,30c3.7,0.3,7.3,0.4,11,0.4
		c48-0.1,96,0,144,0c28.3-0.1,56.7,0.3,85-0.3c20,0.6,40,0.1,60,0.3c5.3,0.1,10.5-0.1,15.8-0.7c-0.1-6.5-0.3-13.2-1.6-19.6
		c-3.6-14.3-8.6-28.6-17.4-40.6c-3.2-4.4-6.1-9.2-9.9-13.2c-7.3-7.4-14.6-15-23.2-20.9c-5.8-4.4-12.2-7.9-18.4-11.7
		c-3.2-1.9-6.6-3.3-9.4-5.7c0.2-1.5,0.8-2.9,1.6-4.3c7.9-13.5,17.8-25.8,25.8-39.2c1.4-2,1.4-5.4-1.3-6.4c-2.5-1.6-5.6-0.2-7.2,2
		c-5.3,6.9-9.4,14.5-14.4,21.6c-4.7,7.4-10.1,14.2-14.9,21.5c-6.5-0.4-12.5-3.3-18.8-4.9c-8.3-2.1-16.7-4-25.2-4.9
		c-11.1-2.1-22.4-1.2-33.6-1.4c-5.1-0.2-10.1,0.9-15.1,1.6c-8.9,0.5-17.2,3.8-25.9,5.4c-5.5,0.9-10.7,4.5-16.4,3.8
		c-4.1-4-6.7-9.4-10.1-14c-5.3-8.4-11.4-16.1-16.3-24.7c-1.5-2.4-3.1-5-5.6-6.5C328.3,23,325.4,23.2,324.4,25.7 M208.4,209.3
		c-15.4,2.4-28.9,16-29.8,31.8c0.1,49,0,98,0,147.1c0,12.6,7.5,24.9,18.7,30.8c5.8,2.7,12.2,5.1,18.7,4.6
		c18.1-1.3,33-18.4,32.9-36.4c0-44.7,0-89.4,0-134.1c-0.3-7.6,0.1-15.5-3.1-22.6C239.8,216.5,223.9,206.3,208.4,209.3 M272.1,209.2
		c-0.6,8.3-0.3,16.7-0.3,25c0,76.3,0,152.7,0,229c0,6.3,1.3,12.7,4,18.4c3.7,6,9.6,10.8,16.4,12.8c5.5,1.8,11.3,1,17,1.2
		c6.9-0.2,13.8,0.3,20.6,1c0.2,26.9,0.1,53.8,0.2,80.7c0.2,8.9,4.5,17.3,10.4,23.8c7.2,6.7,17.1,10.2,26.8,10.5
		c10.7-1.2,21-7.3,27.1-16.3c6.5-9.7,6.1-21.9,6.2-33.1c0.2-21.9-0.1-43.9,0.1-65.8c19.7-1.1,39.4-0.9,59.1-0.6
		c0.4,26.8-0.2,53.6,0.4,80.4c0.1,12.4,7.3,24.2,18,30.3c6.8,3.5,14.8,6.4,22.5,4.3c15.6-2.8,28.8-16.6,30-32.5
		c-0.1-27.3-0.3-54.5,0.1-81.8c10.8-1.8,21.8-0.3,32.7-0.9c6.7-0.6,12.8-4.2,17.5-8.9c5.3-5,7.2-12.5,7.9-19.5
		c0-62.7,0.1-125.4,0-188c-0.2-23.4,0.3-46.8-0.3-70.1c-23.4-0.5-46.7-0.1-70.1-0.3c-58.3,0-116.7,0-175,0
		C319.4,209,295.7,208.4,272.1,209.2 M641.4,209.3c-6.4,1-12.2,4.1-17.2,8c-7.9,5.7-12.1,15.5-12.9,25c0.1,31.3-0.1,62.6-0.1,93.9
		c0.2,19.3-0.3,38.6,0.8,57.9c1.1,9.3,7,17.3,14.3,22.9c4.9,3,10.4,5.1,16,6.3c6.8,1.4,13.7-1,19.7-4c8.2-4.3,15.4-11.4,17.9-20.5
		c2.3-6.3,1.5-13,1.6-19.5c-0.1-41,0-82,0-123c-0.2-8.3,1.1-17-2.3-24.8C673.4,216.8,657,206.9,641.4,209.3z"/>
	<path class="st0" d="M356.4,106.6c5.7-0.7,12.5-1,16.7,3.5c8.9,7,7.8,22.4-1.5,28.6c-4.3,3.6-10.3,3.4-15.5,2.6
		c-4.1-1-7.4-4-10-7.3C339,124.8,344.3,108.4,356.4,106.6z"/>
	<path class="st0" d="M491.6,107c6.1-0.8,13.1-1.6,18.4,2.4c5,3.6,7.8,9.8,7,16c0.5,6.1-3.9,11-8.6,14.2c-3.3,2.3-7.5,2.4-11.3,2.3
		c-8.9-0.2-16.9-8.5-16.1-17.6C480.5,116.9,484.9,109.8,491.6,107z"/>
	<path class="st0" d="M724.1,629.2c0.6-7.1,8.2-11.9,14.9-11.1c5.6-0.5,12.1,0.4,15.6,5.4c3.2,4.8,1.3,11.1-2.9,14.7
		c1.8,1.9,4.3,3.5,5.2,6.1c0.1,3.2,0.9,6.9-1.1,9.7c-1.6,3.1-5.1,4.5-8,6c-3.6,0.4-7.2,0.1-10.8,0.2c-6.9,0.6-14-4.9-14-12.1
		c-0.7-4.5,3-7.7,6.1-10.3C726.6,635.6,724.3,632.8,724.1,629.2 M738.3,626.2c-0.9,1.3-2.4,2.3-2.3,4c-0.2,1.7,1.4,2.8,2.2,4.1
		c1.1-0.1,2.3-0.1,3.5-0.1c0.8-0.8,1.5-1.6,2.4-2.4c-0.3-1.9-0.6-3.8-1.1-5.6C741.4,626.2,739.8,626.2,738.3,626.2 M738.3,642
		c-1.4,2-3.8,4.1-3.2,6.8c1.5,1.6,3.5,3.4,5.8,3.4c2.9-0.9,5.5-4.4,3.6-7.4C743.7,642.3,740.5,642.3,738.3,642z"/>
	<path class="st0" d="M769.4,620.6c4.8-3.6,11-2.3,16.6-2.2c4.5,1.3,7.3,5.7,9,9.8c-2.4,1.4-5.1,2.4-8,2.1c-3.3,0.5-4.7-2.9-7.2-4.2
		c-4.8,0.8-7.8,5.7-6.9,10.4c1.8-1.4,3.1-3.4,5.3-4.2c4.9-0.5,10.7-0.4,14.3,3.3c5.3,6.7,4.5,18.3-3.4,22.6c-3.7,3.1-8.8,1.7-13.2,2
		c-3.5,0.3-6.3-2.2-9.1-3.8c-4.6-4.8-6.2-11.8-5.8-18.2C761.5,631.6,763.3,624.1,769.4,620.6 M774,642.3c0,2.2-0.1,4.3,0.2,6.5
		c1.4,1.7,3.1,4.1,5.7,3.4c5.9-0.8,5.8-11.3,0-12C777.7,639.7,775.9,641.3,774,642.3z"/>
	<path class="st0" d="M682.9,630.2c5.2,0,10.5-0.1,15.7,0.1c1.2,2.5,2.5,4.9,3.9,7.3c2-2.2,3.4-4.8,4.8-7.4c4.6,0,9.3,0,13.9,0
		c-3.6,4.4-7.2,8.9-9.8,14c3.2,5.4,6.3,10.9,10.3,15.8c-5,0.3-10,0.2-15,0.1c-0.9-3.1-2.4-6.1-4.5-8.6c-1.9,2.8-3.9,5.6-5.6,8.6
		c-4.7,0-9.4,0.1-14-0.1c2.2-2.9,4.6-5.8,6.6-8.8c1.5-2.3,3.9-4.1,4.7-6.8C690.7,639.3,687.1,634.5,682.9,630.2z"/>
	<path class="st0" d="M184.1,708.3c7-4.2,15.1-5.7,23-6.9c20.9-1.2,41.9,10.4,52.3,28.6c5.4,9.8,8.3,21.1,7.7,32.3
		c0,18.9,0,37.9,0,56.8c-7.9,1.7-16.1,1.4-24,0.3c1.1-4.7,0.2-9.4,0.2-14.1c-0.2-16.7,0.3-33.4-0.1-50c-1.3-7.5-4.1-15.1-9.4-20.7
		c-5.2-4.7-11.5-8.7-18.7-9.3c-5.5-0.1-11.2-0.5-16.3,1.7c-11.6,4.8-21.3,15.6-22.7,28.3c0,14.7,0,29.4,0,44.1
		c0.6,6.7-0.4,13.4,0,20.1c-5.3,1.3-10.7,0.4-16.1,0.7c-2-0.2-4.5,0.6-5.9-1.2c-0.8-2.8-0.5-5.8-0.5-8.7c0.9-18.7,0.1-37.4,0.5-56
		C156,735.3,166.9,717,184.1,708.3z"/>
	<path class="st0" d="M603.6,701.8c23.6-3.8,48.8,8.6,60.3,29.6c5.4,8.3,7,18.3,7.9,28c0.1,18.9-8.9,38-24.4,49.1
		c-9.5,7.3-21.4,11.1-33.3,11.6c-5.9-0.2-11.8-1-17.6-2.3c-10.2-3.3-19.2-9.7-27-16.9c-7.5-8.8-13.5-19.2-15.2-30.8
		c-0.4-3.9-1.4-7.8-1-11.8c1.1-8.8,3-17.7,7.5-25.4c5.4-11.1,15-19.6,25.9-25.1C591.8,704.6,597.8,703.5,603.6,701.8 M611.4,726.4
		c-11,0.7-22.3,6.5-27.9,16.3c-3.3,4.4-4.4,10-4.8,15.4c-0.2,6.3,0.6,12.9,3.8,18.5c4.2,9,13.1,15.3,22.7,17.5
		c7.6,1,15.7,0.7,22.6-2.9c10.1-3.9,17.3-13.5,19.2-24.1c0.5-3.4,1.5-6.9,0.6-10.4c-1.5-9.1-5.7-18.3-13.7-23.5
		C627.3,729.1,619.6,724.8,611.4,726.4z"/>
	<path class="st0" d="M41.7,707.9c8.9-3.8,18.9-3.1,28.4-3.2c11,0.1,22-0.5,32.9,0.5c7.6,0.5,15.2-0.9,22.7,0.2
		c0.2,0.3,0.7,0.8,0.9,1c-0.9,6.9-0.4,13.9-0.5,20.8c0.1,5.8-0.3,11.7,0.4,17.5c-0.9,25-0.2,50.2-0.4,75.3c-7.6-0.4-15.4,0.8-23-0.7
		c-0.1-30.1,0-60.2,0-90.3c-2.3-0.6-4.6-0.9-7-0.8c-12,0.1-24-0.1-36,0.1c-5.3,0.7-10.7,1-15.6,3.4c-5,2.8-9.5,6.4-13.2,10.9
		c-9,11.9-8.5,30,1.1,41.4c6.5,8.3,17.2,12.6,27.6,12.4c7.4-0.1,14.8,0,22.1-0.1c1.9,7.5,0.3,15.5,0.9,23.2c-6.9,1.5-14,0.4-21,0.7
		c-22.1,1.1-44.5-11.9-53.7-32.2c-5.8-11.9-8.3-26-4.5-38.9c2.1-9,6.4-17.5,12.4-24.5C23.5,717.2,31.8,710.8,41.7,707.9z"/>
	<path class="st0" d="M295.1,705.3c7.3-1,14.6-0.6,22-0.7c13.3,0,26.6-0.4,39.8,0.9c10.3,2.7,20.2,7.6,28.4,14.5
		c6.8,6.6,12.2,14.7,15.3,23.6c2.2,7.7,4.4,15.7,2.8,23.8c-0.5,11.6-5.4,22.5-12.5,31.5c-4.2,4.1-8,8.8-13.2,11.8
		c-8.4,4.9-17.8,8.7-27.5,9.3c-13-0.1-26,0-39,0.2c-5.3-0.3-10.8,0.6-16-0.9c0.1-7.7,0-15.4,0.1-23.1c17,0.5,34-1.5,51,0
		c10.6,0.3,21.3-4.8,27.5-13.5c7.2-8.8,8.4-21.3,4.8-31.9c-3.4-7.7-9.1-14.5-16.4-18.7c-8-3.9-17.2-4.2-26-4
		c-6.5,0.1-13-0.3-19.4,0.3c-3.9,0.4-7.7-0.5-11.6-0.4c-3.4-0.1-6.7,0.5-10,0.3C295.1,720.7,295.1,713,295.1,705.3z"/>
	<path class="st0" d="M431.3,705.2c5.3,0.2,10.5-0.1,15.8-0.5c14.9,0,29.9-0.1,44.8,0c9.9,0.1,18.8,5.3,25.9,11.8
		c12.1,10.5,16.3,28.7,11,43.6c-3.3,8.4-8.8,16.1-16.7,20.7c9.7,10.5,15.6,25,14.9,39.4c-7.6-0.4-15.4,0.7-22.9-1
		c0.6-5.9-1.9-11.4-4.4-16.6c-5.4-9.3-16.2-14.7-26.7-15.4c-13.9,1.7-27.9,0.1-41.8,0c0.2-5.4-0.4-10.9,0.6-16.2
		c0.4-2.3-0.1-4.5-0.6-6.8c19.3,0,38.6,0,57.9,0c9.4,0.3,18.5-7.6,19-17.1c0.1-9.8-8.3-18.5-18-19c-19.6,0-39.2,0-58.9,0
		c2.1-6-0.6-12.2,0.6-18.2C432,708.4,431.6,706.8,431.3,705.2z"/>
	<path class="st0" d="M697.2,705.3c7.9-0.5,15.9-1.1,23.8,0c0,38.2,0.1,76.5-0.1,114.7c-7.9,0.1-15.9,0.7-23.8-0.6
		c1.6-4.7-0.2-9.4,0-14.2C697.3,771.9,697.2,738.6,697.2,705.3z"/>
	<path class="st0" d="M749.1,705.2c7.7,0.2,15.3-1,23-0.6c12.3,0.4,24.6-0.8,36.9,0.8c18.5,3.2,35.1,15.8,43.1,32.8
		c3.7,7.5,5.3,15.7,5.8,24c-0.8,8.5-1.8,17.3-5.8,25c-4,7.9-9.2,15.4-16.4,20.5c-7.1,5.2-15.1,9.4-23.8,11.2
		c-20.8,2.2-41.8,0.6-62.7,1.2c-0.1-7.9,0-15.9,0-23.8c17.3,0,34.7,0,52,0c10.2-0.5,20.6-5,26.5-13.5c6.3-7.5,7.4-17.8,6.2-27.2
		c-1.5-6.5-4.8-12.8-9.9-17.2c-7.9-8.2-19.9-10.5-30.8-10.2c-14.7-0.1-29.3,0.3-44,0C749.1,720.5,749.1,712.9,749.1,705.2z"/>
</g>
<g id="_x23_95bd24ff">
	<path class="st1" d="M324.4,25.7c1-2.5,4-2.7,6.2-2.1c2.5,1.5,4.1,4.1,5.6,6.5c4.9,8.6,11.1,16.3,16.3,24.7c3.4,4.6,5.9,10,10.1,14
		c5.7,0.7,10.9-2.9,16.4-3.8c8.7-1.6,17-4.8,25.9-5.4c5-0.8,10-1.8,15.1-1.6c11.2,0.2,22.5-0.8,33.6,1.4c8.5,0.9,16.9,2.8,25.2,4.9
		c6.3,1.6,12.2,4.5,18.8,4.9c4.8-7.3,10.3-14.1,14.9-21.5c5-7.1,9.1-14.8,14.4-21.6c1.6-2.2,4.7-3.6,7.2-2c2.6,1,2.6,4.4,1.3,6.4
		c-8,13.5-17.9,25.7-25.8,39.2c-0.8,1.3-1.4,2.8-1.6,4.3c2.8,2.4,6.3,3.8,9.4,5.7c6.2,3.8,12.5,7.3,18.4,11.7
		c8.6,5.9,15.8,13.5,23.2,20.9c3.8,4,6.6,8.8,9.9,13.2c8.8,12,13.8,26.3,17.4,40.6c1.2,6.5,1.5,13.1,1.6,19.6
		c-5.3,0.6-10.5,0.8-15.8,0.7c-20-0.2-40,0.3-60-0.3c-28.3,0.5-56.7,0.1-85,0.3c-48,0-96-0.1-144,0c-3.7,0-7.3-0.2-11-0.4
		c0.2-10.2,1.8-20.3,4.6-30c2.6-8,5.3-16.1,10-23c4.3-6.9,8.7-13.9,14-20.1c9-10.1,19.2-19.2,30.7-26.4c6.8-4,13.5-8.3,20.7-11.7
		c-0.3-1.7-0.6-3.5-1.6-5c-6.8-11.1-14.8-21.3-21.5-32.4C326.9,33.7,323.2,30.2,324.4,25.7 M356.4,106.6
		c-12.1,1.8-17.4,18.2-10.3,27.5c2.6,3.2,5.9,6.3,10,7.3c5.2,0.8,11.2,1,15.5-2.6c9.3-6.2,10.4-21.6,1.5-28.6
		C368.9,105.6,362.1,105.9,356.4,106.6 M491.6,107c-6.7,2.8-11.1,9.9-10.6,17.2c-0.8,9,7.2,17.4,16.1,17.6c3.9,0.2,8,0,11.3-2.3
		c4.7-3.2,9.1-8.1,8.6-14.2c0.8-6.2-2-12.4-7-16C504.7,105.4,497.7,106.1,491.6,107z"/>
	<path class="st1" d="M208.4,209.3c15.5-3,31.3,7.2,37.4,21.2c3.2,7.1,2.8,15,3.1,22.6c0,44.7,0,89.4,0,134.1
		c0.2,18-14.7,35.1-32.9,36.4c-6.6,0.5-12.9-1.9-18.7-4.6c-11.2-5.8-18.7-18.1-18.7-30.8c0-49,0-98,0-147.1
		C179.5,225.3,193,211.8,208.4,209.3z"/>
	<path class="st1" d="M272.1,209.2c23.7-0.7,47.3-0.1,71-0.3c58.3,0,116.7,0,175,0c23.4,0.2,46.7-0.2,70.1,0.3
		c0.5,23.4,0.1,46.8,0.3,70.1c0.1,62.7,0,125.4,0,188c-0.7,7-2.6,14.5-7.9,19.5c-4.7,4.7-10.8,8.3-17.5,8.9
		c-10.9,0.6-21.9-0.8-32.7,0.9c-0.4,27.2-0.1,54.5-0.1,81.8c-1.1,16-14.3,29.8-30,32.5c-7.7,2.1-15.6-0.8-22.5-4.3
		c-10.7-6.1-17.8-17.9-18-30.3c-0.6-26.8,0-53.6-0.4-80.4c-19.7-0.3-39.4-0.5-59.1,0.6c-0.2,21.9,0.1,43.9-0.1,65.8
		c0,11.2,0.4,23.4-6.2,33.1c-6.1,9-16.4,15-27.1,16.3c-9.7-0.3-19.7-3.8-26.8-10.5c-5.8-6.5-10.2-14.9-10.4-23.8
		c-0.1-26.9,0-53.8-0.2-80.7c-6.9-0.6-13.7-1.1-20.6-1c-5.7-0.1-11.5,0.6-17-1.2c-6.8-2-12.8-6.8-16.4-12.8c-2.7-5.7-4-12.1-4-18.4
		c0-76.3,0-152.7,0-229C271.7,225.9,271.5,217.5,272.1,209.2z"/>
	<path class="st1" d="M641.4,209.3c15.6-2.4,32,7.5,37.7,22.1c3.4,7.8,2.1,16.5,2.3,24.8c0,41,0,82,0,123
		c-0.1,6.5,0.7,13.3-1.6,19.5c-2.5,9.1-9.6,16.3-17.9,20.5c-6,3-12.9,5.4-19.7,4c-5.6-1.2-11.1-3.3-16-6.3
		c-7.3-5.5-13.2-13.6-14.3-22.9c-1.1-19.3-0.5-38.6-0.8-57.9c0-31.3,0.1-62.6,0.1-93.9c0.9-9.5,5-19.2,12.9-25
		C629.3,213.4,635.1,210.3,641.4,209.3z"/>
</g>
</svg>
