<?xml version="1.0" encoding="utf-8"?>
<!-- Generator: Adobe Illustrator 22.0.0, SVG Export Plug-In . SVG Version: 6.00 Build 0)  -->
<svg version="1.1" id="svg2424" xmlns:svg="http://www.w3.org/2000/svg"
	 xmlns="http://www.w3.org/2000/svg" xmlns:xlink="http://www.w3.org/1999/xlink" x="0px" y="0px" viewBox="0 0 550 170"
	 style="enable-background:new 0 0 550 170;" xml:space="preserve">
<style type="text/css">
	.st0{fill:#4D4D4D;}
	.st1{fill:#1793D1;}
</style>
<g id="layer1" transform="translate(-34.777313,-129.80241)">
	<g id="g2424" transform="matrix(0.8746356,0,0,0.8746356,14.730518,23.408954)">
		<g id="g2809" transform="matrix(0.6378586,0,0,0.6378586,36.486487,2.17139)">
			<path id="path2284" class="st0" d="M300.6,282.7c-14.5,0-26.5,2.9-31.1,4.6l-4.8,25.8c0,0.1,23.8-6.3,34.3-6
				c17.4,0.6,19,6.6,18.7,14.7c0.3,0.5-4.5-7.3-19.5-7.6c-18.9-0.3-45.7,6.7-45.7,35.3c-0.5,32.2,24,41.6,40.7,41.8
				c15-0.3,22.1-5.7,25.9-8.6c5.1-5.3,10.9-10.6,16.4-17c-5.2,9.5-9.8,16.1-14.5,21.1v4.3l22.8-3.8l0.2-62.1
				C343.8,316.4,349.1,282.8,300.6,282.7z M297.3,336.8c9.5,0.1,20.3,4.8,20.3,16c0,10.2-12.8,15.7-21.2,15.6s-19.5-6.6-19.5-16.5
				C277.2,343,287.5,336.5,297.3,336.8z"/>
			<path id="path2286" class="st0" d="M359.1,288.4l-0.2,102.8l26.6-5.1v-58.3c0-8.7,12.4-18.8,28-18.7c3.3-6,9.5-21.2,11-24.7
				c-34.8-0.1-35.2,10-41.2,14.9c-0.1-9.5,0-15.1,0-15.1L359.1,288.4L359.1,288.4z"/>
			<path id="path2288" class="st0" d="M508.9,301.9c-0.3-0.1-13.9-15.9-41.3-16.1c-25.7-0.4-54.4,9.5-54.9,52.5
				c0.2,37.8,27.6,52.6,55,52.9c29.3,0.3,41-18.3,41.7-18.8c-3.5-3-16.6-16-16.6-16s-8.2,11.7-24.1,11.8
				c-15.9,0.2-29.7-12.3-29.9-29.6c-0.2-17.3,12.7-26.7,30-27.5c15,0,23.6,9.7,23.6,9.7L508.9,301.9L508.9,301.9z"/>
			<path id="path2290" class="st0" d="M542.5,252.5l-25.1,5.9l0.2,133.9l24.7-4.5l0.3-63c0.1-6.6,9.6-16.8,25.4-16.4
				c15.2,0.2,18.6,10.1,18.5,11.4l0.4,73l24.4-4.3l0.1-77.4c0.2-7.4-16.3-23.2-42.8-23.3c-12.6,0-19.5,2.9-23.1,5
				c-6.1,4.7-13,9.2-19.8,14.9c6.3-8.1,11.6-13.7,16.8-17.8L542.5,252.5L542.5,252.5z"/>
		</g>
		<g id="g5326" transform="matrix(0.9443373,0,0.01336345,0.9443373,78.345657,-412.48879)">
			<path id="path2292" class="st1" d="M374.3,612l7.7-1.9l-0.9,91.2l-7.8,1.3L374.3,612z"/>
			<path id="path2294" class="st1" d="M394.8,639.2l6.8-3l-0.9,65.4l-6.5,1.3L394.8,639.2z M393.5,615.6l5.5-4.4l4.4,5l-5.5,4.5
				L393.5,615.6z"/>
			<path id="path2296" class="st1" d="M414.1,638l7.7-1.6l-0.2,13.7c0,0.6,4.4-15.3,24.7-14.9c19.7,0.1,22.7,15.3,22.5,18.8
				l-0.4,48.1l-6.7,1.5l0.6-47.5c0.1-1.4-2.9-13.1-16.8-13.2c-13.9,0-23.7,10.1-23.8,16.6l-0.5,41.8l-7.8,2L414.1,638L414.1,638z"/>
			<path id="path2298" class="st1" d="M535.2,702.4l-7.7,1.6l0.2-13.7c0-0.6-4.4,15.3-24.7,14.9c-19.7-0.1-22.7-15.3-22.5-18.8
				l0.4-48.1l8.2-1.6l-0.5,47.5c0,1.3,1.4,13.3,15.3,13.3s23.8-8.4,24-21l0.4-37.5l7.6-1.9L535.2,702.4L535.2,702.4z"/>
			<path id="path2300" class="st1" d="M551.1,637.5l-5.4,4.2l20.2,26.9l-22.4,31.1l5.6,4.2l21-28.9l20.9,29.6l5.3-4.2l-22.4-31.6
				l18.6-25.6l-5.5-4.7l-16.9,23.7L551.1,637.5L551.1,637.5z"/>
		</g>
		<path id="path2518" class="st1" d="M118.8,123.8c-8.5,20.7-13.6,34.3-23,54.4c5.8,6.1,12.9,13.2,24.4,21.3
			c-12.4-5.1-20.8-10.2-27.1-15.5c-12.1,25.2-31,61-69.3,129.8c30.1-17.4,53.5-28.1,75.2-32.2c-0.9-4-1.5-8.4-1.4-12.9v-1
			c0.5-19.3,10.5-34.1,22.4-33.1s21.1,17.5,20.7,36.8c-0.1,3.6-0.5,7.1-1.2,10.4c21.5,4.2,44.6,14.9,74.3,32
			c-5.9-10.8-11.1-20.5-16.1-29.8c-7.9-6.1-16.1-14-32.8-22.6c11.5,3,19.7,6.4,26.2,10.3C140.3,177.2,136.2,164.7,118.8,123.8z"/>
	</g>
</g>
</svg>
