<?xml version="1.0" encoding="utf-8"?>
<!-- Generator: Adobe Illustrator 22.0.0, SVG Export Plug-In . SVG Version: 6.00 Build 0)  -->
<svg version="1.1" id="图层_1" xmlns="http://www.w3.org/2000/svg" xmlns:xlink="http://www.w3.org/1999/xlink" x="0px" y="0px"
	 viewBox="0 0 1170 300" style="enable-background:new 0 0 1170 300;" xml:space="preserve">
<style type="text/css">
	.st0{fill:#ADABAC;}
</style>
<g id="Layer_1">
	<path class="st0" d="M0.5,53.5h53v53h-53V53.5z M68.5,53.5h53v53h-53V53.5z M137.5,53.5h53v53h-53V53.5z M0.5,121.5h53v53h-53
		V121.5z M68.5,121.5h53v53h-53V121.5z M137.5,121.5h53v53h-53V121.5z M0.5,190.5h53v53h-53V190.5z M68.5,190.5h53v53h-53V190.5z"/>
	<path class="st0" d="M137.5,190.5h53v53h-53V190.5z"/>
	<path class="st0" d="M298.5,135.5c11-10,25-15,40-15c27,0,53,18,53,63s-29,63-61,63c-16,0-32-4-46-13v-180h14V135.5z M298.5,226.5
		c10,5,21,8,32,8c25,0,48-15,48-51c0-32-18-51-41-51c-15,1-29,8-39,19V226.5z M415.5,243.5v-190h13v190H415.5z M473.5,196.5
		c0,29,14,37,28,37c18-1,33-11,42-27v-84h14v122h-14v-24c-10,15-28,25-46,25c-19,0-38-11-38-48v-75h14V196.5z M687.5,235.5
		c-13,7-28,11-43,10c-41-1-62-34-61-68c0-32,25-58,56-58h4c33,1,55,27,51,66h-98c0,26,21,47,47,48h1c13,0,26-3,38-9L687.5,235.5z
		 M682.5,174.5c1-22-16-41-38-42h-2c-24-1-44,18-45,42H682.5z M738.5,145.5c10-16,26-25,45-26c24,0,39,18,39,46v78h-13v-76
		c0-26-14-36-28-36c-18,2-33,12-42,27v85h-13v-190h14C738.5,53.5,738.5,145.5,738.5,145.5z M961.5,182.5c0,40-27,63-59,63
		c-35,0-59-28-59-63c-2-33,23-61,56-63h3C934.5,120.5,961.5,143.5,961.5,182.5z M858.5,182.5c0,27,16,50,45,50s45-24,45-50
		s-17-50-45-50S858.5,155.5,858.5,182.5z M992.5,222.5c10,6,21,10,32,10c13,0,29-5,28-18c0-11-12-20-30-27c-21-8-39-16-39-35
		s18-33,42-33c12,0,23,3,34,9l-5,11c-9-5-18-7-28-7c-20,0-29,10-29,20c0,13,15,18,34,26c29,11,36,25,36,36c0,19-18,31-42,31
		c-14,0-27-4-39-11L992.5,222.5z M1156.5,122.5v11h-40v67c0,20,8,32,26,33c8,0,16-1,23-5l4,12c-9,3-18,5-27,5c-22,0-39-13-39-45v-67
		h-23v-11h22v-41h14v41H1156.5z"/>
</g>
</svg>
