<?xml version="1.0" encoding="utf-8"?>
<!-- Generator: Adobe Illustrator 22.0.0, SVG Export Plug-In . SVG Version: 6.00 Build 0)  -->
<svg version="1.1" id="图层_1" xmlns="http://www.w3.org/2000/svg" xmlns:xlink="http://www.w3.org/1999/xlink" x="0px" y="0px"
	 viewBox="0 0 456 120" style="enable-background:new 0 0 456 120;" xml:space="preserve">
<style type="text/css">
	.st0{fill:#333333;}
</style>
<path class="st0" d="M389.1,27.2c-3.3,0-6.4,0.7-9.2,2.1c-2.8,1.4-5.3,3.2-7.4,5.6c-2.1,2.3-3.7,5-4.9,8.1c-1.2,3.1-1.8,6.3-1.8,9.6
	c0,3.2,0.6,6.3,1.7,9.4c1.1,3,2.7,5.7,4.8,8.1c2.1,2.3,4.5,4.2,7.3,5.7c2.9,1.5,6,2.2,9.5,2.2c3.3,0,6.3-0.7,9.2-2
	c2.8-1.4,5.3-3.3,7.3-5.6c2.1-2.3,3.7-5,4.9-8.1c1.2-3.1,1.9-6.3,1.8-9.7c0-3.1-0.6-6.2-1.7-9.2c-1.1-3-2.7-5.8-4.8-8.2
	c-2-2.4-4.5-4.3-7.3-5.8C395.7,28,392.5,27.2,389.1,27.2z M437.2,27.2c-2.7,0-5.1,0.3-7.3,0.9c-2.1,0.6-4,1.5-5.5,2.6
	c-1.5,1.1-2.7,2.6-3.5,4.2c-0.8,1.6-1.2,3.5-1.2,5.7c0,2.1,0.4,3.8,1.1,5.2c0.8,1.4,1.9,2.5,3.3,3.5c1.5,0.9,3.3,1.6,5.4,2.3
	c2.2,0.6,4.6,1.1,7.4,1.6c2.9,0.6,5.4,1.2,7.5,1.8c2.1,0.7,3.9,1.5,5.2,2.4c1.4,0.9,2.3,2.1,3,3.4c0.7,1.3,1,2.8,1,4.7
	c0,3.8-1.5,6.6-4.4,8.4c-2.9,1.8-6.8,2.8-11.8,2.8c-3.8,0-7.2-0.6-10.2-1.8c-3-1.2-5.7-3.1-8.2-5.7l-1.1,0.9
	c2.7,2.7,5.6,4.7,8.7,5.9c3.1,1.2,6.7,1.8,10.8,1.8c5.5,0,9.8-1.1,12.9-3.2c3.1-2.2,4.7-5.3,4.7-9.4c0-2.2-0.4-4-1.3-5.5
	c-0.8-1.5-2.1-2.7-3.7-3.7c-1.5-1-3.4-1.8-5.7-2.5c-2.3-0.7-4.8-1.3-7.5-1.8c-2.8-0.6-5.2-1.1-7.2-1.7c-2-0.6-3.6-1.3-4.9-2.1
	c-1.3-0.8-2.2-1.9-2.8-3c-0.6-1.2-0.9-2.7-0.9-4.5c0-1.8,0.3-3.5,0.9-4.9c0.6-1.5,1.6-2.7,2.9-3.7c1.3-1.1,3-1.9,5-2.5
	c2.1-0.6,4.5-0.8,7.4-0.8c3,0,5.5,0.4,7.6,1.2c2.2,0.8,4.2,2.3,6.2,4.4l0.9-1c-2-2.2-4.1-3.7-6.5-4.6
	C443.2,27.7,440.4,27.2,437.2,27.2z M43.3,27.8v43.9c0,3.1,2,5.8,5.6,5.8H52l0-1.3c-0.1,0-1.2,0-3.1,0c-2.7,0-4.2-2.4-4.2-4.4V27.8
	L43.3,27.8L43.3,27.8z M238.1,27.8v44c0,3.4,2.9,5.6,6.3,5.6c3.9,0,4.3,0.1,4.4,0V76h-4.4c-2.5,0-4.7-1.5-4.9-4.2V42h10.2v-1.4
	h-10.2V27.8H238.1L238.1,27.8z M389.1,28.6c3.1,0,6,0.7,8.6,2c2.7,1.3,5,3.1,7,5.3c2,2.2,3.5,4.8,4.6,7.7c1.1,2.8,1.7,5.9,1.7,8.9
	c0,3-0.5,5.9-1.6,8.8c-1,2.8-2.5,5.4-4.4,7.7c-1.9,2.3-4.2,4.1-6.9,5.5c-2.7,1.4-5.6,2-8.9,2c-3.2,0-6.1-0.7-8.8-2
	c-2.6-1.3-5-3.1-6.9-5.3c-1.9-2.3-3.5-4.9-4.6-7.7c-1.1-2.9-1.6-5.9-1.6-9c0-3,0.5-5.9,1.6-8.7c1.1-2.9,2.6-5.4,4.5-7.7
	c1.9-2.3,4.2-4,6.9-5.4C382.9,29.3,385.9,28.6,389.1,28.6L389.1,28.6z M314.8,29.9c-0.8,0-1.6,0.3-2.3,0.7c-1.1,0.6-1.9,1.6-2.3,2.8
	c-0.2,0.8-0.2,1.7-0.2,2.5c0.1,0.9,0.3,1.8,0.5,2.7c0.2,0.7,0.5,1.3,0.7,1.9c-1,0-2.1,0-3.1,0c-0.3,0-2.2,0-3.2,0.3
	c-5.2,1.5-8.5,4.3-11,9.1l0-9.4h-1.4v36.5h1.4V54c0.9-3.3,2.6-6.3,5-8.4c2.4-2.1,5.5-3.5,9.2-3.6c1.1,0,2.4,0,3.6-0.1l16.4,35.2
	c-5.6,12.7-5.8,13.1-6.1,13.5c-0.5,0.5-1.1,0.8-3.3,0.8l-1.3,0v1.4l1.3,0c2.6,0,4-0.6,4.7-1.8l0.5-0.8l21.8-49.6h-1.6l-15.3,34.8
	l-15.4-33.5c0.7,0,1.5,0,2.3-0.1c0.8-0.1,1.6-0.4,2.3-0.8c0.7-0.4,1.4-1,1.9-1.7c0.7-0.9,1.1-2.1,1.1-3.3c0-1-0.2-2-0.6-2.9
	c-0.4-0.7-0.9-1.3-1.5-1.8c-0.8-0.6-1.7-1.1-2.6-1.3C315.8,29.9,315.3,29.9,314.8,29.9L314.8,29.9L314.8,29.9z M315.2,31.1
	c0.8,0,1.6,0.3,2.2,0.8c0.6,0.4,1.1,1.1,1.5,1.8c0.4,0.9,0.6,1.8,0.6,2.8c-0.1,1-0.4,1.9-1.1,2.6c-0.9,1-2.3,1.6-3.7,1.5H313
	l-0.6-1.3c-0.4-0.8-0.6-1.7-0.8-2.6c-0.2-0.9-0.3-1.9-0.1-2.8c0.2-0.9,0.9-1.6,1.7-2.1C313.8,31.3,314.5,31.1,315.2,31.1L315.2,31.1
	z M213.6,40c-10.3,0-14.2,9.4-14.2,16.8v20.3h1.4V56.7c0-7.7,4.2-15.4,12.8-15.4c8.6,0,12.8,7.7,12.8,15.4v20.3h1.4V56.7
	C227.7,49.4,223.9,40,213.6,40z M17.9,40c-10.2,0-16.7,9.2-17,18.9c0,9.4,7.4,18.9,17.6,18.9c5.5,0,12.3-3,14.5-8.8h-1.5
	c-2.2,4.8-7.6,7.3-13,7.3c-8.9,0-15.6-7.9-16.2-16.8h33.4v-0.8C35.6,48.9,28.6,40,17.9,40L17.9,40z M73.1,40
	c-10.2,0-16.7,9.2-17,18.9c0,9.4,7.4,18.9,17.6,18.9c5.5,0,12.2-3,14.5-8.8h-1.5c-2.2,4.8-7.7,7.3-13,7.3c-8.9,0-15.6-7.9-16.2-16.8
	H91v-0.8C90.9,48.9,83.8,40,73.1,40L73.1,40z M110.9,40c-6,0-10.7,4.6-12.1,10.2c-0.7,2.7-0.9,3.6-0.9,26.9h1.4
	c0-20.5,0.1-22,0.4-24.8c0.9-5.9,5.1-10.9,11.2-10.9c6.6,0,12.9,4.2,12.5,15.5c0,3,0.1,8.1,0.1,12c0,4.3-0.1,8.3-0.1,8.3h1.4
	c0,0,0.2-13.6,0-20.2c-0.2-10.7,5.5-15.5,11.9-15.5c6.7,0.1,11.8,5.1,12.2,12.1c0.2,3.5,0.1,17.6,0.1,23.6h1.4
	c0-23.3-0.2-24.4-0.7-26.8c-1-5.3-6.3-10.3-12.9-10.3c-6.9,0-12,5-12.4,10.6C123.7,45,117.8,40,110.9,40L110.9,40z M174.6,40
	c-10.2,0-16.7,9.2-17,18.9c0,9.4,7.4,18.9,17.6,18.9c5.5,0,12.2-3,14.5-8.8h-1.5c-2.2,4.8-7.6,7.3-13,7.3c-8.9,0-15.6-7.9-16.2-16.8
	h33.5v-0.8C192.3,48.9,185.3,40,174.6,40L174.6,40z M269.8,40c-4.5,0-8.9,2.2-12.7,4.8l0.8,1.1c4.1-2.9,8.3-4.5,11.8-4.5
	c7.3,0,12,5.2,12,12.7v4.2c-1.9-0.7-6.3-2-12.3-2c-6.3,0-15.1,2.5-15.1,10.4c0,6.3,5.2,11.2,11.8,11.2c5.7,0,11.7-2.1,15.5-6.9v3.4
	c0,1.5,0.9,2.7,2.5,2.8h1.4v-1.4h-1.4c-0.8,0-1-0.6-1.1-1.4V54.1C283.1,46.2,278.6,40,269.8,40L269.8,40z M17.9,41.4
	c9.4,0,15.8,7.3,16.4,16.8h-32C2.7,50.2,8.2,41.4,17.9,41.4L17.9,41.4z M73.1,41.4c9.4,0,15.8,7.3,16.4,16.8h-32
	C58,50.2,63.5,41.4,73.1,41.4L73.1,41.4z M174.6,41.4c9.4,0,15.8,7.3,16.4,16.8h-32C159.4,50.2,164.9,41.4,174.6,41.4L174.6,41.4z
	 M269.5,57.6c4.1,0,8.2,0.6,12.3,2.2V67c0,0.8-0.3,1.8-1,2.9c-2.9,4.5-9.1,6.5-14.4,6.5c-5.4,0-10.4-3.9-10.4-9.8
	C255.8,59.8,263.5,57.6,269.5,57.6z"/>
</svg>
