<?xml version="1.0" encoding="utf-8"?>
<!-- Generator: Adobe Illustrator 22.0.0, SVG Export Plug-In . SVG Version: 6.00 Build 0)  -->
<svg version="1.1" id="svg2" xmlns:svg="http://www.w3.org/2000/svg"
	 xmlns="http://www.w3.org/2000/svg" xmlns:xlink="http://www.w3.org/1999/xlink" x="0px" y="0px" viewBox="0 0 770 240"
	 style="enable-background:new 0 0 770 240;" xml:space="preserve">
<style type="text/css">
	.st0{fill:#294172;}
	.st1{fill:#3C6EB4;}
	.st2{fill:#FFFFFF;}
</style>
<path id="voice" class="st0" d="M769,68.3c0-35.9-29.1-65-65-65s-65,29.1-65,65l0,0v50.3l0,0c0,8.1,6.6,14.7,14.8,14.7h0.1l0,0H704
	C739.9,133.3,769,104.2,769,68.3"/>
<path id="in" class="st1" d="M692.6,95.9c0,8.9-7.2,16.1-16.1,16.1c-8.9,0-16.2-7.2-16.2-16.1s7.3-16.2,16.2-16.2l0,0h16.1V95.9z
	 M707,65.4h-30.5l0,0C659.6,65.4,646,79,646,95.8s13.7,30.5,30.5,30.5S707,112.6,707,95.8l0,0"/>
<g id="finity" transform="matrix(-1,0,0,-1,1397.5699,139.05584)">
	<path id="in_1_" class="st1" d="M707,49.2c0-8.9,7.2-16.1,16.1-16.1c8.9,0,16.2,7.2,16.2,16.1s-7.3,16.2-16.2,16.2l0,0H707V49.2z
		 M692.6,79.7h30.5l0,0c16.8,0,30.5-13.6,30.5-30.4s-13.7-30.5-30.5-30.5s-30.5,13.7-30.5,30.5l0,0"/>
</g>
<path id="free" class="st2" d="M692.6,49.2L692.6,49.2c0-16.9,13.7-30.5,30.5-30.5c2.6,0,4.4,0.3,6.7,0.9c3.4,0.9,6.3,3.7,6.3,7
	c0,4-2.9,6.9-7.2,6.9c-2.1,0-2.8-0.4-5.8-0.4c-8.9,0-16.1,7.2-16.1,16.1v13.9l0,0c0,1.3,1,2.3,2.3,2.3l0,0h10.6
	c3.9,0,7.1,3.2,7.1,7.1c0,4-3.2,7.1-7.1,7.1h-27.3"/>
<g id="dom" transform="matrix(-1,0,0,-1,1397.5699,139.05584)">
	<path id="free_1_" class="st2" d="M707,95.8L707,95.8c0,16.9-13.7,30.5-30.5,30.5c-2.6,0-4.4-0.3-6.7-0.9c-3.4-0.9-6.3-3.7-6.3-7
		c0-4,2.9-6.9,7.2-6.9c2.1,0,2.8,0.4,5.8,0.4c8.9,0,16.1-7.2,16.1-16.1V81.9l0,0c0-1.3-1-2.3-2.3-2.3l0,0h-10.6
		c-3.9,0-7.1-3.2-7.1-7.1c0-4,3.2-7.1,7.1-7.1H707"/>
</g>
<path id="f" class="st1" d="M74.6,74.6c-2.1-0.3-4.3-0.5-6.4-0.5c-24,0-43.5,19.5-43.5,43.5v13.6H10.5c-5.2,0-9.5,4.3-9.5,9.5
	s4.3,10.5,9.5,10.5h14.2v72.9c0,6.4,5.2,11.6,11.6,11.6s11.6-5.2,11.6-11.6v-72.9h15.7c5.2,0,9.5-5.3,9.5-10.5s-4.3-9.5-9.5-9.5
	H47.9v-13.6c0-11.2,9.1-21.8,20.3-21.8c1,0,2,0.1,3,0.2c6.3,0.9,12.2-1.9,13.2-8.3C85.3,81.5,81,75.6,74.6,74.6"/>
<path id="e" class="st1" d="M136.4,147.6c-15.9,0-26.8,10.4-29.1,25.6c35.8,0,58.3,0,58.3,0C163.4,158.7,152,147.6,136.4,147.6z
	 M180,189.5c0,0,0,0-73.2,0c1.2,15.9,14,27.7,31,27.7c12.1,0,22.5-5,30.8-13c1.7-1.7,3.6-2.1,5.7-2.1c2.8,0,5.7,1.4,7.6,3.8
	c1.2,1.7,1.9,3.6,1.9,5.4c0,2.6-1.2,5.4-3.3,7.6c-10,10.7-26.8,17.8-43.4,17.8c-30.1,0-54.3-24.2-54.3-54.3s23.5-54.3,53.5-54.3
	c29.9,0,52.1,23.2,52.1,53.8C188.5,186.5,184.5,189.5,180,189.5"/>
<path id="d" class="st1" d="M262,216.1c-19,0-31-15.2-31-33.6c0-18.5,12.1-33.6,31-33.6c19,0,31,14.5,31,33.6
	C293.1,201.6,281,216.1,262,216.1z M316.3,85.3c0-6.4-5.2-11.4-11.6-11.4s-11.6,5-11.6,11.4v61.1c-5.9-10.9-18.7-18.2-33.9-18.2
	c-30.8,0-51.4,23.2-51.4,54.3c0,31,21.3,54.3,51.4,54.3c13.4,0,25.1-5.5,32-15.2l2.6,6.5c1.6,4.5,5.9,7.7,10.9,7.7
	c6.4,0,11.6-5.2,11.6-11.6l0,0V85.3"/>
<path id="o" class="st1" d="M389.2,148.8c-19,0-31.3,15.2-31.3,33.6c0,18.5,12.3,33.6,31.3,33.6s31.3-15.2,31.3-33.6
	S408.1,148.8,389.2,148.8z M389.2,236.7c-30.1,0-54.3-24.2-54.3-54.3s24.2-54.3,54.3-54.3c30.1,0,54.3,24.2,54.3,54.3
	C443.4,212.5,419.3,236.7,389.2,236.7"/>
<path id="r" class="st1" d="M521.8,128.2c-15.9,0-26.4,4.7-35.7,16.5l-0.9-5.5c-0.7-5.7-5.6-10.2-11.5-10.2
	c-6.4,0-11.6,5.2-11.6,11.6l0,0l0,0V224c0,6.4,5.2,11.6,11.6,11.6s11.6-5.2,11.6-11.6v-44.8c0-20.4,17.8-30.6,36.5-30.6
	c5.7,0,10.2-4.7,10.2-10.4C532,132.7,527.5,128.2,521.8,128.2"/>
<path id="a" class="st1" d="M590,216.1c-19,0-31.3-15.2-31.3-33.6c0-18.5,12.3-33.6,31.3-33.6s31.3,15.2,31.3,33.6
	S609,216.1,590,216.1z M644.3,182.4c0.2-29.1-20.6-54.3-54.3-54.3c-30.1,0-54.5,24.2-54.5,54.3s23.7,54.3,52.4,54.3
	c14.3,0,27.2-7.4,32.9-15.1l2.8,7.2c1.5,4,5.4,6.9,10,6.9c5.9,0,10.6-4.8,10.7-10.6L644.3,182.4"/>
</svg>
