<?xml version="1.0" encoding="utf-8"?>
<!-- Generator: Adobe Illustrator 22.0.1, SVG Export Plug-In . SVG Version: 6.00 Build 0)  -->
<svg version="1.1" id="图层_1" xmlns="http://www.w3.org/2000/svg" xmlns:xlink="http://www.w3.org/1999/xlink" x="0px" y="0px"
	 viewBox="0 0 500 160" style="enable-background:new 0 0 500 160;" xml:space="preserve">
<style type="text/css">
	.st0{fill:#ADABAC;}
</style>
<path class="st0" d="M500,89.7c0,0.8-0.6,1.5-1.4,1.5h-34.3c0.2,9.1,6.5,14.8,14.6,14.8c6.1,0,10-3.2,12.2-5.7
	c0.6-0.6,1.4-0.8,2-0.2l4.1,3.2c0.6,0.6,0.8,1.5,0.2,2.1c-2.6,4.4-8.9,9.7-18.7,9.7c-15,0-24.6-11-24.6-26c0-15.4,10-26.4,22.8-26.4
	c14.4,0,22.8,10.4,22.8,26C500,89.1,500,89.5,500,89.7z M477.6,71.5c-6.7,0-12,4.7-12.6,12.5h25.2C489.6,76,484.3,71.5,477.6,71.5z
	 M423,134.8c-5.9,0-11.6-1.9-15.7-4c-0.8-0.2-1.2-1.3-0.8-1.9l2-5.3c0.2-0.6,1.2-1.3,2-0.6c2.4,1.3,7.1,2.8,12.2,2.8
	c7.9,0,15-5.3,15-14.8v-3.4c-1.2,1.5-5.9,7.8-15.2,7.8c-13.4,0-22.4-10.8-22.4-26s9.4-26.4,22.8-26.4c8.9,0,14,5.7,15.6,7.8V66
	c0-0.8,0.8-1.9,1.8-1.5l6.1,1.5c0.8,0,1.2,0.6,1.2,1.5v40C447.4,126.1,436.8,134.8,423,134.8z M424,71.8c-8.3,0-14,7-14,16.9
	c0,10.4,6.1,16.9,14,16.9c8.5,0,14-7,14-16.9S432.1,71.8,424,71.8z M390.4,113.8h-5.9c-0.6,0-1.2-0.6-1.4-1.3l-0.6-2.5
	c-2.4,2.8-6.1,5.1-12,5.1c-10,0-17.9-6.6-17.9-16.7c0-9.7,7.7-16.7,18.5-16.7c5.3,0,9.4,2.1,11,3.8v-4.7c0-5.7-3.7-9.1-10-9.1
	c-4.7,0-8.9,1.3-12,3.2c-0.6,0.2-1.4,0-2-0.6l-2.4-4.7c-0.2-0.6,0-1.5,0.6-2.1c3.7-2.1,9.6-4.7,16.7-4.7c14,0,19.1,7.8,19.1,18.8
	v30.9C392.1,113.2,391.1,113.8,390.4,113.8z M372.4,89.7c-6.1,0-10,3.4-10,8.5s4.1,8.5,10,8.5c5.9,0,10-3.4,10-8.5
	C382.5,92.9,378.3,89.7,372.4,89.7z M324.2,115.1c-8.9,0-14-5.7-15.2-7.8v25.8c0,0.8-0.6,1.5-1.4,1.5H301c-0.8,0-1.8-0.6-1.8-1.5
	V65.8c0-0.8,1.2-1.9,2-1.5l6.1,1.5c0.8,0,1.2,0.6,1.2,1.5v3.2c1.4-1.9,6.1-7.8,15.2-7.8c13.4,0,23,11,23,26
	C346.9,104.5,337.8,115.1,324.2,115.1z M322.8,71.8c-8.9,0-14,7.8-14,16.9c0,11,6.1,16.9,14,16.9c8.3,0,14-7,14-16.9
	C336.8,78.5,330.7,71.8,322.8,71.8z M288.4,113.8h-5.9c-0.6,0-1.4-0.6-1.4-1.3l-0.6-2.5c-2.4,2.8-6.1,5.1-12,5.1
	c-10,0-17.9-6.6-17.9-16.7c0-9.7,7.3-16.7,18.1-16.7c5.5,0,9.6,2.1,11.4,3.8v-4.7c0-5.7-3.7-9.1-10-9.1c-4.7,0-8.9,1.3-12,3.2
	c-0.8,0.2-1.8,0-2-0.6l-2.4-4.7c-0.2-0.6-0.2-1.5,0.6-2.1c3.7-2.1,9.6-4.7,16.7-4.7c14,0,18.7,7.8,18.7,18.8v30.9
	C289.8,113.2,289.2,113.8,288.4,113.8z M270.1,89.7c-5.9,0-10,3.4-10,8.5s4.1,8.5,10.2,8.5c5.9,0,10-3.4,10-8.5
	C280.3,92.9,276.4,89.7,270.1,89.7z M240,114.5c-11.4,0-15-8.2-15-20.5V72.4h-3.5c-0.8,0-1.4-0.6-1.4-1.5v-5.3
	c0-0.8,0.6-1.5,1.4-1.5h3.5v-8.5c0-0.8,1.2-1.9,2-1.5l6.7,1.3c0.6,0.2,1.2,0.8,1.2,1.5v7.2h7.9c0.8,0,1.8,0.6,1.8,1.5v5.3
	c0,0.8-0.8,1.5-1.8,1.5h-7.9v23.3c0,7.8,2.6,9.7,7.9,9.7c0.2,0,0.6,0,0.8,0c1.2,0,1.2,1.3,1.2,1.3v5.9c0,0.8-0.6,1.5-1.4,1.9
	C242.7,114.5,241.5,114.5,240,114.5z M199.2,115.1c-8.9,0-13.8-4.4-16.3-8.9c-0.2-0.6-0.2-1.5,0.2-2.1l3.7-3.2
	c0.8-0.6,1.8-0.2,2.4,0.2c2,2.8,5.3,5.3,10.2,5.3c4.1,0,7.3-2.1,7.3-6.3c0-9.7-23-6.3-23-23.5c0-8.9,7.3-14.2,16.3-14.2
	c7.9,0,12.2,4,14.6,7.8c0.2,0.6,0.2,1.9-0.6,2.1l-4.3,3.2c-0.6,0.2-1.4,0.2-2-0.2c-1.4-2.1-3.7-4.4-8.3-4.4c-3.5,0-6.5,1.9-6.5,5.3
	c0,9.7,23,5.7,23,23.3C216.1,109.2,208.9,115.1,199.2,115.1z M174.2,113.8h-6.7c-0.8,0-1.8-0.6-1.8-1.5V82.8c0-7-3.7-10.8-9.4-10.8
	c-6.1,0-10.2,4.7-10.2,11.6v28.6c0,0.8-0.8,1.5-1.4,1.5h-6.9c-0.6,0-1.4-0.6-1.4-1.5V65.6c0-0.8,0.8-1.5,1.4-1.5h6.7
	c0.8,0,1.4,0.6,1.4,1.5v4.7c2-3.8,7.1-7.6,13.4-7.6c12,0,16.3,10.2,16.3,21.2v28.6C175.8,113.2,174.8,113.8,174.2,113.8z
	 M123.4,113.8h-6.7c-0.8,0-1.8-0.6-1.8-1.5V45.7c0-1.3,0.8-1.9,2-1.9l6.7,1.5c0.8,0.2,1.4,0.8,1.4,1.5v65.4
	C125.2,113.2,124.2,113.8,123.4,113.8z M30.7,135c-0.8,0-1.8-0.6-1.8-1.5v-107c0-0.8,0.8-1.5,1.8-1.5l64,11c0.6,0.2,1.2,0.8,1.2,1.9
	v83.6c0,0.6-0.6,1.3-1.2,1.5L30.7,135z M87.8,46.4c0-0.6-0.6-1.3-1.2-1.5L41.5,39c-1.2,0-1.8,0.6-1.8,1.5v80.2
	c0,0.8,0.6,1.9,1.8,1.5l45.1-7c0.8,0,1.2-0.6,1.2-1.5V46.4z M16.3,125.9c-1.2,0.2-1.8-0.6-1.8-1.5V34.7c0-0.8,0.6-1.9,1.8-1.5
	l4.9,0.6c0.6,0,1.2,0.8,1.2,1.5v88.2c0,0.6-0.6,1.3-1.4,1.5L16.3,125.9z M1.8,117.4C1,117.7,0,116.8,0,116V43c0-1.3,0.8-1.9,1.8-1.9
	l4.9,0.6c0.6,0,1.4,0.8,1.4,1.5v71.9c0,0.8-0.8,1.5-1.4,1.5L1.8,117.4z"/>
</svg>
