<?xml version="1.0" encoding="utf-8"?>
<!-- Generator: Adobe Illustrator 22.0.0, SVG Export Plug-In . SVG Version: 6.00 Build 0)  -->
<svg version="1.1" id="图层_1" xmlns="http://www.w3.org/2000/svg" xmlns:xlink="http://www.w3.org/1999/xlink" x="0px" y="0px"
	 viewBox="0 0 560 350" style="enable-background:new 0 0 560 350;" xml:space="preserve">
<style type="text/css">
	.st0{fill:#527D97;}
</style>
<g id="_x23_527d97ff">
	<path class="st0" d="M4.7,16.3c4.1-5,10.9-6.7,17.1-6.8c167.7,0,335.4,0,503,0c7,0.1,14.1-0.4,21,0.8c8.4,2,14.3,10.4,13.9,19
		c0,82,0,164.1,0,246.1c0.4,9.8-8,18.9-17.9,18.9c-144.8,0-289.6,0-434.4,0c0-6.4,0.1-12.8-0.1-19.1c144-0.1,288,0,432-0.1
		c0.3-81.5,0.6-162.9,0.1-244.4c-93.9,0-187.8,0-281.8,0c-11.3-0.7-22.7-0.2-34.1-0.4c-22.7,0.2-45.4-0.4-68.1,0.4
		c-45.2,0-90.5,0-135.8,0c-0.4,54.2-0.2,108.4-0.2,162.6c0,27.3-0.1,54.5,0.2,81.8c21.3,0,42.7,0,64,0c0,6.4,0,12.8,0.1,19.2
		c-22.1,0-44.2,0.1-66.3,0C8,294.1-0.1,285,0.3,275.4c-0.1-81.7,0-163.3,0-245C0.1,25.4,1.3,20.1,4.7,16.3z"/>
	<path class="st0" d="M84.4,82.8c7.7-0.1,15.4-0.1,23.1,0c0,22.5-0.1,44.9,0.1,67.4c18.7-21.6,37-43.7,55.6-65.4
		c0.9-1.1,2.1-2.3,3.6-2c8.1,0,16.3-0.1,24.4,0.1c-17.8,20.7-35.6,41.4-53.3,62.3c18.3,26.3,36.2,52.7,54.5,79
		c-7.5,1-15,0.5-22.5,0.7c-1.7-0.1-3.9,0.3-4.9-1.5c-14.6-20.9-28.9-42-43.7-62.8c-3.7,2.7-7.1,5.7-10.7,8.6
		c-1.3,1.2-3.2,2.3-2.9,4.3c-0.1,17-0.1,34,0,50.9c-7.7,0.3-15.4,0.2-23.1,0.1C84.4,177.2,84.5,130,84.4,82.8z"/>
	<path class="st0" d="M259.1,82.3c8.4,0,16.9,0,25.3,0c17.6,47.3,35.3,94.6,52.9,142c-8.2,0.1-16.3,0-24.5,0
		c-4.9-12.9-9.2-26.1-14.3-39c-17.6-0.5-35.3-0.1-52.9-0.2c-1.6-0.4-1.7,1.6-2.2,2.6c-4.2,12.2-8.6,24.4-12.9,36.6
		c-8.1,0-16.2,0.1-24.2,0C223.7,176.9,241.6,129.7,259.1,82.3 M267.8,116.3c-5.1,16.4-11.4,32.5-16.5,49c13.7-0.1,27.4-0.1,41,0
		c-6.4-20.9-14.8-41.2-20.4-62.3C269.9,107.1,269.3,111.9,267.8,116.3z"/>
	<path class="st0" d="M353.3,82.8c7.6-0.1,15.2,0,22.8,0c0.3,40.7,0,81.3,0.1,122c20,0,40,0,60,0c0,6.5-0.1,13,0,19.5
		c-27.6,0.1-55.3,0.1-82.9,0C353.3,177.1,352.9,129.9,353.3,82.8z"/>
	<path class="st0" d="M452.1,82.8c7.7,0,15.4-0.1,23.1,0.1c-0.1,47.2,0,94.4-0.1,141.5c-7.7,0-15.4,0.1-23-0.1
		C452.1,177.1,452,129.9,452.1,82.8z"/>
	<path class="st0" d="M5,312.4c4.4-0.1,8.8-0.2,13.2,0c2,1.1,4.7,1.5,5.8,3.7c1.5,3.7,0.3,8.4-3.5,10.1c1.7,1,4.1,1.6,4.6,3.8
		c1.9,4.2-1.4,9.1-5.8,9.9c-4.7,0.9-9.6,0.3-14.4,0.3C5,331,5.1,321.7,5,312.4 M9.6,316.4c0.1,2.6,0.1,5.3,0.1,7.9
		c3.3-0.2,7.7,1.1,9.8-2.2c1.3-2.5-0.6-4.6-2.6-5.8C14.5,316.3,12.1,316.4,9.6,316.4 M9.6,328.4c0.1,2.6,0.1,5.2,0,7.8
		c3.3-0.1,7.1,0.9,10-1.2c1.3-1.4,1.1-3.9,0-5.4C16.7,327.6,13,328.5,9.6,328.4z"/>
	<path class="st0" d="M32.3,312.6c1.6-0.1,3.1-0.2,4.7-0.3c2.9,3.9,4.5,8.6,7.1,12.8c2.3-4.2,4.7-8.4,6.8-12.7
		c1.7,0,3.5,0.1,5.2,0.2c-2.8,4.6-5.3,9.4-8,14.1c-2.6,4.1-1.1,9.2-1.4,13.7c-1.6,0-3.2,0-4.8,0c-0.3-4.5,1.1-9.5-1.6-13.4
		C37.5,322.1,35,317.3,32.3,312.6z"/>
	<path class="st0" d="M85.6,313c2.7-1,5.7-0.6,8.5-0.6c4.1,1.3,7.9,4.1,9,8.5c1.1,5.1,1,11.1-2.4,15.3c-1.6,2.1-4.3,2.8-6.6,4
		c-4.7,0.4-10.3,0.1-13.7-3.8c-3.3-3.5-3.5-8.6-3.1-13.1C77.6,318.7,81.1,314.2,85.6,313 M87,316.8c-5.4,2.2-5.9,9.6-4.2,14.4
		c1.5,5.8,9.9,6.7,13.8,2.9c2.8-3.9,2.9-9.4,1.1-13.8C96.1,316.3,90.7,315.5,87,316.8z"/>
	<path class="st0" d="M114.5,312.3c5.4,0,10.8,0,16.2,0c0,1.3,0,2.7,0,4c-3.8,0-7.7,0-11.5,0.1c0,2.6,0,5.3,0,7.9
		c3.4,0.1,6.9-0.2,10.3,0.3c1.3,1,1.1,3.4-0.8,3.6c-3.2,0.3-6.4,0.1-9.5,0.2c0,3.8,0.3,7.7,0,11.5c-1.3,0.9-3.2,0.3-4.7,0.5
		C114.4,331.1,114.5,321.7,114.5,312.3z"/>
	<path class="st0" d="M140.5,312.3c5.4,0,10.8,0,16.3,0c0,1.3,0,2.6,0,4c-3.8,0-7.7,0-11.5,0.1c0,2.6,0,5.3,0.1,7.9
		c3.4,0.1,6.9-0.2,10.3,0.2c1.2,1.1,1,3.6-0.9,3.6c-3.1,0.3-6.3,0.1-9.4,0.2c0,3.9,0,7.8,0.1,11.8c-1.6,0.1-3.2,0.2-4.8,0.3
		C140.4,331.1,140.5,321.7,140.5,312.3z"/>
	<path class="st0" d="M165.9,312.5c5.3-0.1,10.6-0.4,15.8,0.1c1.2,0.9,1.2,2.8-0.1,3.6c-3.6,0.4-7.3,0.1-10.9,0.2c0,2.7,0,5.4,0,8
		c3.3,0,6.6-0.3,9.9,0.1c1.7,0.3,1.6,3.2,0.1,3.7c-3.3,0.3-6.6,0.1-10,0.1c0,2.7,0,5.4,0,8c3.7,0,7.4-0.3,11,0.2
		c1.2,0.9,1.2,2.7-0.2,3.5c-5.2,0.5-10.5,0.2-15.7,0.1C165.9,331,165.9,321.7,165.9,312.5z"/>
	<path class="st0" d="M192.5,312.3c2,0.1,4-0.2,5.9,0.4c4.7,7.2,9,14.7,13.8,21.8c-0.4-7.4-0.2-14.7-0.3-22.1c1.4,0,2.9-0.1,4.3-0.1
		c-0.1,9.3,0,18.7-0.1,28c-2,0-4-0.1-5.9-0.2c-4.3-7.5-9.1-14.7-13.7-22c0.3,7.4,0.2,14.8,0.2,22.2c-1.4,0-2.8,0-4.2,0
		C192.4,331,192.5,321.6,192.5,312.3z"/>
	<path class="st0" d="M230.9,313.6c2.8-1.8,6.1-1.2,9.2-1.1c1.1,0.8,2.4,1.2,3.8,1.2c0,1-0.1,2.9-0.1,3.8c-3.5-0.1-7.2-2.2-10.5-0.5
		c-2.1,0.9-2.3,4.2-0.4,5.4c3.3,2.2,7.4,2.8,10.4,5.5c2,2.4,2.4,6,0.6,8.7c-1.2,2.1-3.8,2.7-5.7,3.8c-3.9,0.3-7.8,0-11.6-1.3
		c0.2-1.5,0.4-3.1,0.7-4.6c3.3,1.8,7.3,2.8,11,1.6c1.7-0.9,3.2-3.9,1.1-5.3c-3.1-3-8-2.9-10.8-6.3
		C225.7,321.2,226.7,315.1,230.9,313.6z"/>
	<path class="st0" d="M255,312.4c1.6,0,3.1,0,4.7,0c0,9.3,0,18.6,0,27.9c-1.6,0-3.2,0-4.7,0C255,331,255.1,321.7,255,312.4z"/>
	<path class="st0" d="M267.7,312.4c1.6,0,3.2,0,4.8,0c2.3,7.7,5.8,15,7.2,22.9c2.8-7.5,5.4-15.2,7.9-22.8c1.6,0,3.2,0,4.7-0.1
		c-3,9.4-6.7,18.6-9.8,28c-1.6,0-3.2,0-4.7,0C274.1,331.2,271.3,321.6,267.7,312.4z"/>
	<path class="st0" d="M300.5,312.3c5.4,0,10.8,0,16.3,0c0,1.3,0,2.6,0,4c-3.8,0-7.7,0-11.5,0.1c0,2.6,0,5.3,0.1,7.9
		c3.4,0,6.9-0.2,10.3,0.3c0.9,1.1,0.9,2.2,0.1,3.3c-3.5,0.8-7,0.3-10.5,0.5c0,2.6,0.1,5.3,0.1,7.9c3.8,0,7.6,0.1,11.4,0
		c0,1.3,0,2.6,0,4c-5.4,0-10.8,0-16.2,0C300.5,331,300.5,321.7,300.5,312.3z"/>
	<path class="st0" d="M344.7,313.4c4.2-2,9-0.9,13.2,0.6c-0.4,1.2-0.8,2.5-1.2,3.7c-3-0.5-6-1.8-9-1.2c-2.3,0.5-3.6,4-1.6,5.5
		c2.8,2.5,6.8,2.9,9.8,5.1c3.6,2.8,3.5,9.5-0.8,11.5c-4.4,3-10.1,1.9-14.8,0.5c-0.1-1.4-0.2-2.8-0.3-4.1c3.8,0.4,7.6,2.5,11.5,1.1
		c1.9-0.9,3.5-3.4,1.8-5.2c-3.4-3.2-9.2-3-11.7-7.3C339.2,320.1,340.7,314.7,344.7,313.4z"/>
	<path class="st0" d="M368.5,312.3c5.4,0,10.8,0,16.3,0c0,1.3,0,2.6,0,4c-3.8,0-7.7,0-11.5,0.1c0,2.6,0,5.3,0.1,7.9
		c3.4,0.1,6.8-0.2,10.2,0.3c1.2,1,1.1,3.5-0.8,3.6c-3.2,0.3-6.3,0.1-9.5,0.2c0,2.6,0.1,5.3,0.1,7.9c3.8,0,7.6,0,11.4,0
		c0,1.3,0,2.6,0,4c-5.4,0-10.8,0-16.2,0C368.5,331,368.5,321.7,368.5,312.3z"/>
	<path class="st0" d="M400.3,313.9c4.5-2.6,9.9-1.6,14.6-0.2c-0.3,1.4-0.6,2.8-0.9,4.1c-4-1.5-9-2.7-12.5,0.4
		c-3.9,4.4-4.3,12.1-0.1,16.4c3.6,2.6,8.6,2.1,12.4,0.2c0.2,1.4,0.4,2.8,0.6,4.2c-5.2,1.7-11.6,2.3-16.2-1.2
		c-3.3-2.4-4.7-6.5-4.5-10.5C393.3,322.1,395.2,316.2,400.3,313.9z"/>
	<path class="st0" d="M424.8,312.3c1.6,0,3.2,0.1,4.9,0.2c0.1,6.6-0.4,13.3,0.2,19.9c1.5,6,12.2,5.4,12.8-0.9
		c0.4-6.4,0-12.8,0.1-19.1c1.6,0.1,3.2,0.1,4.9,0.2c-0.8,7.9,1.5,16.4-2,23.8c-4.5,5.3-13.8,5.6-18.6,0.6c-2.2-2.3-2.3-5.6-2.3-8.6
		C424.7,323,424.8,317.6,424.8,312.3z"/>
	<path class="st0" d="M459,312.5c5.3,0.2,11.2-1.3,15.9,1.8c5.1,3.9,3.6,12.3-2,14.9c0,0.2,0.1,0.7,0.1,1c2.5,3.3,5.1,6.6,7.5,10
		c-1.8,0.1-3.5,0.2-5.3,0.3c-2.1-3.5-4.5-6.7-6.8-10.1c-1.6,0-3.1,0.1-4.7,0.2c0.1,3.3,0.2,6.5,0.1,9.8c-1.6,0-3.2,0-4.8,0
		C459.1,331,459,321.7,459,312.5 M463.6,316.4c0.1,3.3,0.1,6.6,0,9.9c2.6-0.1,5.7,0.8,7.9-1.2c2-1.6,1.6-4.5,1.2-6.7
		C470.4,315.8,466.7,316.3,463.6,316.4z"/>
	<path class="st0" d="M488.9,312.4c1.6,0,3.2,0,4.8,0c-0.1,9.3,0,18.6,0,27.9c-1.6,0-3.2,0-4.7,0C489.1,331,489.1,321.7,488.9,312.4
		z"/>
	<path class="st0" d="M502.6,316.4c-0.7-1.3-0.5-2.7-0.2-4c7,0.2,14-0.3,21,0.3c0.7,1.1,0.8,2.2,0.1,3.4c-2.7,0.6-5.5,0.3-8.3,0.4
		c0,7.9,0.1,15.7,0,23.6c-1.4,0.6-3,0.3-4.5,0.5c0-8,0-16.1,0-24.1C508,316.3,505.3,316.3,502.6,316.4z"/>
	<path class="st0" d="M528.7,312.9c1.6-0.3,3.2-0.8,4.9-0.3c3,3.5,4,8.1,6.7,11.8c1.2-0.2,1.5-1.5,2-2.4c1.7-3.2,3.4-6.3,4.9-9.6
		c1.7,0,3.4,0.1,5.1,0.2c-2.5,4.6-5,9.2-7.7,13.7c-2.9,4.1-1.3,9.5-1.7,14.1c-1.5,0-3.1,0-4.6,0c-0.3-3.6,0.2-7.4-0.4-11
		C535.1,323.8,532.2,318.1,528.7,312.9z"/>
</g>
</svg>
