<?xml version="1.0" encoding="utf-8"?>
<!-- Generator: Adobe Illustrator 22.0.0, SVG Export Plug-In . SVG Version: 6.00 Build 0)  -->
<svg version="1.1"
	 id="svg12241" inkscape:version="0.91 r13725" sodipodi:docname="neon-logo.svg" xmlns:cc="http://creativecommons.org/ns#" xmlns:dc="http://purl.org/dc/elements/1.1/" xmlns:inkscape="http://www.inkscape.org/namespaces/inkscape" xmlns:rdf="http://www.w3.org/1999/02/22-rdf-syntax-ns#" xmlns:sodipodi="http://sodipodi.sourceforge.net/DTD/sodipodi-0.dtd" xmlns:svg="http://www.w3.org/2000/svg"
	 xmlns="http://www.w3.org/2000/svg" xmlns:xlink="http://www.w3.org/1999/xlink" x="0px" y="0px" viewBox="0 0 2100 500"
	 style="enable-background:new 0 0 2100 500;" xml:space="preserve">
<style type="text/css">
	.st0{fill:url(#path4136_1_);}
	.st1{opacity:0.2;fill:url(#rect4146_1_);enable-background:new    ;}
	.st2{opacity:0.2;fill:url(#rect4146-1_1_);enable-background:new    ;}
	.st3{opacity:0.2;fill:url(#rect4146-1-9_1_);enable-background:new    ;}
	.st4{fill:#FCFCFC;}
</style>
<sodipodi:namedview  bordercolor="#666666" borderopacity="1.0" id="base" inkscape:bbox-nodes="true" inkscape:current-layer="g4150" inkscape:cx="12.99109" inkscape:cy="24.416965" inkscape:document-units="px" inkscape:pageopacity="0.0" inkscape:pageshadow="2" inkscape:snap-bbox="true" inkscape:snap-center="true" inkscape:snap-global="true" inkscape:window-height="1006" inkscape:window-maximized="1" inkscape:window-width="1920" inkscape:window-x="0" inkscape:window-y="0" inkscape:zoom="11.313708" pagecolor="#ffffff" showgrid="true" showguides="false" units="px">
	<inkscape:grid  id="grid4134" type="xygrid"></inkscape:grid>
</sodipodi:namedview>
<g id="layer1" transform="translate(0,-1004.3622)" inkscape:groupmode="layer" inkscape:label="Layer 1">
	
		<linearGradient id="path4136_1_" gradientUnits="userSpaceOnUse" x1="258.7" y1="1264.2517" x2="258.7" y2="1744.2517" gradientTransform="matrix(1 0 0 1 0 -250)">
		<stop  offset="0" style="stop-color:#1ABC9C"/>
		<stop  offset="1" style="stop-color:#2980B9"/>
	</linearGradient>
	<circle id="path4136" class="st0" cx="258.7" cy="1254.3" r="240"/>
	
		<g id="g4150" transform="matrix(1.2352941,0,0,1.2352941,-5.6470588,-241.96758)" inkscape:transform-center-x="-5.3320308" inkscape:transform-center-y="5.3320093">
		
			<linearGradient id="rect4146_1_" gradientUnits="userSpaceOnUse" x1="829.9946" y1="1609.2629" x2="1079.9946" y2="1609.2629" gradientTransform="matrix(1.079 1.079 -1.079 1.079 1054.863 -1420.8411)">
			<stop  offset="0" style="stop-color:#000000"/>
			<stop  offset="1" style="stop-color:#000000;stop-opacity:0"/>
		</linearGradient>
		<path id="rect4146" class="st1" d="M242.3,1182.9l-56.6,56.6l134.4,134.4c22.6-14.8,41.8-34,56.5-56.6L242.3,1182.9z"/>
		
			<linearGradient id="rect4146-1_1_" gradientUnits="userSpaceOnUse" x1="829.9946" y1="1186.2168" x2="1079.9945" y2="1186.2168" gradientTransform="matrix(1.079 1.079 -3.0347 3.0347 2918.1892 -3284.167)">
			<stop  offset="0" style="stop-color:#000000"/>
			<stop  offset="1" style="stop-color:#000000;stop-opacity:0"/>
		</linearGradient>
		<path id="rect4146-1" class="st2" d="M293.5,1131.7l-3.6,3.6c20.2,20.1,31.5,47.5,31.5,76c0,59.4-48.1,107.5-107.5,107.5
			c-28.5,0-55.8-11.4-76-31.5l-3.6,3.6l112,112c81.5-13.9,145.2-77.8,158.9-159.3L293.5,1131.7z"/>
		
			<linearGradient id="rect4146-1-9_1_" gradientUnits="userSpaceOnUse" x1="829.9947" y1="1107.2384" x2="1079.9948" y2="1107.2384" gradientTransform="matrix(1.079 1.079 -4.5858 4.5858 4395.9253 -4761.9033)">
			<stop  offset="0" style="stop-color:#000000"/>
			<stop  offset="1" style="stop-color:#000000;stop-opacity:0"/>
		</linearGradient>
		<path id="rect4146-1-9" class="st3" d="M334.2,1091L334.2,1091l-9.3,9.4c29.4,29.4,46,69.3,46,110.9
			c0,86.6-70.2,156.9-156.9,156.9l0,0c-41.6,0-81.5-16.6-110.9-46l-9.3,9.4l66.3,66.3c17.5,5.1,35.7,7.7,53.9,7.8
			c107.3,0,194.3-87,194.3-194.3c0-18.2-2.6-36.4-7.7-53.9L334.2,1091z"/>
		<path id="path4146-1-4-0" inkscape:connector-curvature="0" class="st4" d="M214,1041.2c-6.6,0-12.2,4.6-13.7,10.9
			c-32.8,2.9-64,15.8-89.2,37c-2.2-1.3-4.6-2-7.1-2c-7.7,0-14,6.3-14,14l0,0c0,2.5,0.7,5,2,7.1c-21.3,25.2-34.2,56.4-37.1,89.2
			c-6.4,1.5-10.9,7.1-10.9,13.6c0,6.6,4.6,12.2,10.9,13.7c2.9,32.8,15.8,64,37,89.2c-1.3,2.2-2,4.6-2,7.1c0,7.7,6.3,14,14,14l0,0
			c2.5,0,5-0.7,7.1-2c25.2,21.3,56.4,34.2,89.3,37.1c1.5,6.4,7.1,10.9,13.6,10.9c6.6,0,12.2-4.6,13.7-11c32.9-2.8,64.1-15.7,89.3-37
			c2.1,1.2,4.6,1.9,7,1.9c7.7,0,14-6.3,14-14l0,0c0-2.5-0.7-5-2-7.1c21.3-25.2,34.3-56.4,37.2-89.3c6.3-1.5,10.7-7.1,10.7-13.6
			c0-6.6-4.6-12.2-11-13.7c-2.8-32.9-15.7-64.1-37-89.3c1.2-2.1,1.9-4.6,1.9-7c0-7.7-6.3-14-14-14l0,0c-2.5,0-5,0.7-7.1,2
			c-25.2-21.3-56.4-34.3-89.3-37.2C226.1,1045.7,220.5,1041.2,214,1041.2z M214,1047.2c4.4,0,8,3.6,8,8s-3.6,8-8,8s-8-3.6-8-8
			S209.6,1047.2,214,1047.2z M200.8,1059.9c2,5.6,7.3,9.3,13.2,9.3c5.8,0,11-3.6,13.1-9.1c31,2.7,60.5,14.9,84.4,34.9
			c-0.9,1.9-1.4,4-1.4,6.2c0,7.7,6.3,14,14,14l0,0c2.1,0,4.3-0.5,6.2-1.4c20,23.9,32.2,53.3,35,84.3c-5.5,2-9.2,7.3-9.2,13.1
			c0,5.8,3.6,11,9.1,13.1c-2.7,31-14.9,60.5-34.9,84.4c-1.9-0.9-4-1.4-6.2-1.4c-7.7,0-14,6.3-14,14l0,0c0,2.1,0.5,4.2,1.4,6.2
			c-23.9,20-53.3,32.2-84.3,35c-2-5.5-7.3-9.2-13.1-9.2c-5.8,0-11,3.6-13.1,9.1c-31-2.7-60.5-14.8-84.4-34.8c1-1.9,1.5-4.1,1.5-6.3
			c0-7.7-6.3-14-14-14l0,0c-2.1,0-4.2,0.5-6.2,1.4c-20.1-23.8-32.3-53.2-35.1-84.3c5.6-2,9.3-7.3,9.3-13.2c0-5.8-3.6-11-9.1-13.1
			c2.7-31,14.8-60.5,34.8-84.4c1.9,1,4.1,1.5,6.3,1.5c7.7,0,14-6.3,14-14l0,0c0-2.1-0.5-4.3-1.4-6.2
			C140.4,1075,169.8,1062.7,200.8,1059.9L200.8,1059.9z M214,1089.2c-6.6,0-12.3,4.6-13.7,11.1c-56.1,6.9-98.2,54.5-98.3,111
			c0.1,56.5,42.3,104.1,98.3,111c1.4,6.4,7.1,11,13.7,11c6.6,0,12.3-4.6,13.7-11c56.1-6.9,98.2-54.5,98.3-111
			c-0.1-56.5-42.3-104.1-98.3-111C226.2,1093.8,220.6,1089.2,214,1089.2L214,1089.2z M104,1093.2c4.4,0,8,3.6,8,8s-3.6,8-8,8
			s-8-3.6-8-8S99.6,1093.2,104,1093.2z M324,1093.2c4.4,0,8,3.6,8,8s-3.6,8-8,8s-8-3.6-8-8S319.6,1093.2,324,1093.2z M214,1095.2
			c4.4,0,8,3.6,8,8s-3.6,8-8,8l0,0c-4.4,0-8-3.6-8-8l0,0C206,1098.8,209.6,1095.2,214,1095.2z M200.9,1108.2c2.1,5.4,7.3,9,13.1,9
			c5.8,0,11-3.6,13.1-9c51.9,6.6,90.8,50.7,90.9,103c-0.1,52.3-39,96.4-90.9,103c-2.1-5.4-7.3-9-13.1-9c-5.8,0-11,3.6-13.1,9
			c-51.9-6.6-90.9-50.7-90.9-103C110.1,1158.9,149,1114.8,200.9,1108.2L200.9,1108.2z M214,1171.2c-22.1,0-40,17.9-40,40
			s17.9,40,40,40s40-17.9,40-40S236.1,1171.2,214,1171.2z M58,1203.2c4.4,0,8,3.6,8,8s-3.6,8-8,8s-8-3.6-8-8S53.6,1203.2,58,1203.2z
			 M370,1203.2c4.4,0,8,3.6,8,8s-3.6,8-8,8s-8-3.6-8-8S365.6,1203.2,370,1203.2z M214,1311.2c4.4,0,8,3.6,8,8l0,0c0,4.4-3.6,8-8,8
			s-8-3.6-8-8S209.6,1311.2,214,1311.2L214,1311.2z M104,1313.2c4.4,0,8,3.6,8,8l0,0c0,4.4-3.6,8-8,8l0,0c-4.4,0-8-3.6-8-8l0,0
			C96,1316.8,99.6,1313.2,104,1313.2L104,1313.2z M324,1313.2c4.4,0,8,3.6,8,8l0,0c0,4.4-3.6,8-8,8l0,0c-4.4,0-8-3.6-8-8l0,0
			C316,1316.8,319.6,1313.2,324,1313.2L324,1313.2z M214,1359.2c4.4,0,8,3.6,8,8l0,0c0,4.4-3.6,8-8,8s-8-3.6-8-8
			S209.6,1359.2,214,1359.2L214,1359.2z"/>
	</g>
</g>
<g>
	<g>
		<path d="M682,109.8h30.1v118.5h1l98.2-118.5h34l-73.9,90l85.2,146.3H823l-70.4-122.8l-40.5,48.1v74.7H682V109.8z"/>
		<path d="M890.3,109.8h59.1c72.6,0,111.6,42.2,111.6,117.3s-38.9,119-110.3,119h-60.4V109.8z M947.2,321.4
			c55.2,0,82.8-34.6,82.8-94.3s-27.6-92.6-82.8-92.6h-26.8v187h26.8V321.4z"/>
		<path d="M1111.9,109.8h136.2v25.4H1142v74h89.5v25.4H1142v85.9h109.7v25.4h-139.8L1111.9,109.8L1111.9,109.8z"/>
		<path d="M1370.8,171.1h24.5l2.5,25.2h1c16.7-16.4,34.7-29.6,58.7-29.6c36.9,0,53.4,23.8,53.4,68.4V346h-29.6V239
			c0-32.6-9.9-46.5-33-46.5c-17.9,0-30.3,9.1-47.8,26.9v126.7h-29.6L1370.8,171.1L1370.8,171.1z"/>
		<path d="M1554.6,258.8c0-57,38.4-92,78.7-92c44.6,0,69.8,32.1,69.8,82.1c0,6.2-0.5,12.5-1.4,16.8h-117.8
			c2.1,37.1,24.8,61.1,58.1,61.1c16.8,0,30.6-5.4,43.5-14l10.6,19.4c-15.3,10-34,18.1-57.8,18.1
			C1591.7,350.4,1554.6,316.3,1554.6,258.8z M1676.9,244.5c0-35.1-15.8-54.1-43.1-54.1c-24.6,0-46.6,19.8-50.2,54.1H1676.9z"/>
		<path d="M1733,258.8c0-58.4,38.2-92,81.1-92s81.1,33.6,81.1,92c0,57.9-38.2,91.6-81.1,91.6S1733,316.7,1733,258.8z M1864.6,258.8
			c0-40.1-20.4-67.4-50.5-67.4s-50.5,27.3-50.5,67.4s20.4,66.9,50.5,66.9S1864.6,298.9,1864.6,258.8z"/>
		<path d="M1941.2,171.1h24.5l2.5,25.2h1c16.7-16.4,34.7-29.6,58.7-29.6c36.9,0,53.4,23.8,53.4,68.4V346h-29.6V239
			c0-32.6-9.9-46.5-33-46.5c-17.9,0-30.3,9.1-47.8,26.9v126.7h-29.6L1941.2,171.1L1941.2,171.1z"/>
	</g>
</g>
</svg>
