<?xml version="1.0" encoding="utf-8"?>
<!-- Generator: Adobe Illustrator 22.0.0, SVG Export Plug-In . SVG Version: 6.00 Build 0)  -->
<svg version="1.1" id="图层_1" xmlns="http://www.w3.org/2000/svg" xmlns:xlink="http://www.w3.org/1999/xlink" x="0px" y="0px"
	 viewBox="0 0 800 280" style="enable-background:new 0 0 800 280;" xml:space="preserve">
<style type="text/css">
	.st0{fill:#666666;}
	.st1{fill:#FFE082;}
	.st2{fill:#F6F6F6;}
</style>
<g id="_x23_666666ff">
	<path class="st0" d="M2.8,8h14.9c0,54.4,0,108.8,0,163.1c17.9,0,35.8,0,53.7,0c0,7,0,13.9,0,20.9c-22.9,0-45.7,0-68.6,0
		C2.8,130.7,2.8,69.3,2.8,8z"/>
	<path class="st0" d="M87.1,8H102c0,61.3,0,122.7,0,184.1c-5,0-9.9,0-14.9,0C87,130.7,87.1,69.3,87.1,8z"/>
	<path class="st0" d="M131.7,8h20.1c16.4,51.3,32.6,102.6,48.9,153.9c0-51.3,0-102.6,0-153.9h14.5c0,61.3,0,122.7,0,184.1
		c-6.7,0-13.4,0-20.1,0c-16.3-51.3-32.6-102.6-48.9-153.9c-0.1,51.3,0,102.6-0.1,153.9c-4.8,0-9.6,0-14.5,0
		C131.7,130.7,131.7,69.3,131.7,8z"/>
	<path class="st0" d="M243.2,8h15c0,31,0,62,0,93c0.1,15.3-0.6,30.8,1.9,46c1.4,7.8,3.4,16,9,21.9c6.4,6.8,17.1,8,25.6,4.8
		c7.3-2.8,11.7-10.1,13.8-17.3c4-13.4,4.1-27.5,4.1-41.4c0-35.7,0-71.3,0-107h15c0,32.3,0,64.7,0,97c-0.1,15.7,0.5,31.4-2.2,46.9
		c-1.9,10.8-5.2,21.7-12,30.5c-4.9,6.5-12.2,11.1-20.3,12.5c-9.5,1.6-19.9,0.5-28-5.1c-8.2-5.6-13.3-14.7-16.3-23.9
		c-4.7-14.4-5.6-29.8-5.7-44.9C243.2,83.3,243.2,45.7,243.2,8z"/>
	<path class="st0" d="M350.3,8h16c9.2,22.8,18.3,45.6,27.4,68.4C403,53.6,412.1,30.8,421.4,8h16c-11.9,29.5-23.8,59-35.5,88.6
		c12.7,31.8,25.2,63.7,37.8,95.5c-5.3,0-10.7,0-16,0c-10.4-26.1-20.7-52.2-31.1-78.3c-10.4,26.1-20.9,52.1-31.2,78.2
		c-5.4,0.2-10.8,0-16.1,0.1c13.1-32.8,26.2-65.5,39.4-98.2C373.3,65.2,361.8,36.6,350.3,8z"/>
	<path class="st0" d="M507.6,8h14.9c0,54.4,0,108.8,0,163.1c17.9,0,35.8,0,53.7,0c0,7,0,13.9,0,20.9c-22.9,0-45.7,0-68.6,0
		C507.6,130.7,507.6,69.3,507.6,8z"/>
	<path class="st0" d="M591.8,8h14.9c0,61.3,0,122.7,0,184.1c-5,0-9.9,0-14.9,0C591.8,130.7,591.8,69.3,591.8,8z"/>
	<path class="st0" d="M621.1,8h93.3c0,7,0,14,0,20.9c-13,0-26.1,0-39.1,0c0,54.4,0,108.8,0,163.1c-5,0-10,0-15,0
		c0-54.4,0-108.8,0-163.1c-13,0-26.1,0-39.1,0C621.1,22,621.1,15,621.1,8z"/>
	<path class="st0" d="M728.9,8h69.7c0,7,0,14,0,20.9c-18.3,0-36.5,0-54.8,0c0,18.2,0,36.3,0,54.5c17.5,0,35,0,52.5,0
		c0,7,0,13.9,0,20.9c-17.5,0-35,0-52.5,0c0,22.2,0,44.5,0,66.7c18.7,0,37.4,0,56.1,0v20.9c-23.7,0-47.4,0-71.1,0
		C728.9,130.7,728.9,69.3,728.9,8z"/>
	<path class="st0" d="M12,205c9.6-3.2,20.1-1.3,29.5,1.7c0,2.9,0,5.8,0,8.7c-8.3-3.9-18.2-6.8-27-3c-6.8,2.6-8,14.2-0.9,17.1
		c8.1,3.4,17.6,2.8,24.9,8.1c7.8,5.5,8.8,17.2,4.4,25.1c-4,6.7-12.2,8.8-19.4,9.2h-3.7c-6.7-0.3-13.2-1.9-19.4-4.2
		c0-3.1,0-6.1,0-9.2c6.7,3.7,14.1,6.5,21.8,6.1c4.5-0.2,9.5-1.4,12.3-5.2c3.3-4.9,2.3-12.8-3.3-15.5c-7.6-3.9-16.9-3.1-24.1-7.8
		c-4.5-2.6-6.8-7.7-7-12.7v-3.1C0.5,213.3,5.4,207.2,12,205z"/>
	<path class="st0" d="M457.4,206.4c10.1-5.2,22.2-3,32.6,0.3c0,2.9,0,5.8,0,8.7c-7.1-3.4-15.1-5.9-23-4.3c-3.8,0.7-7.8,2.8-9,6.7
		c-1.4,4-0.6,9.6,3.7,11.5c8.2,3.8,18.1,2.9,25.6,8.5c7.5,5.5,8.4,16.8,4.4,24.6c-3.8,6.9-12,9.1-19.3,9.6h-5
		c-6.3-0.5-12.5-2-18.4-4.2c0-3,0-6.1,0-9.1c8.9,5,20.1,8.4,30,4.2c6.7-2.7,8.1-12.8,2.8-17.5c-4-3.3-9.3-3.8-14.1-4.9
		c-6-1.3-12.7-3.2-16.4-8.5C446,223.6,448.4,211,457.4,206.4z"/>
	<path class="st0" d="M59,204.5c2.9,0,5.8,0,8.7,0c0,22.1,0,44.1,0,66.2c-2.9,0-5.8,0-8.7,0C59,248.7,59,226.6,59,204.5z"/>
	<path class="st0" d="M85.1,204.5c4.3,0,8.7,0,13,0c5.5,15,11,30,16.4,45c5.6-15,11-30,16.6-45c4.3,0,8.6,0,13,0
		c0,22.1,0,44.1,0,66.2c-2.8,0-5.7,0-8.5,0c0-19.3,0-38.7,0-58c-5.6,15.1-11.1,30.2-16.6,45.3c-2.9,0-5.8,0-8.8,0
		c-5.5-15.1-11.1-30.2-16.6-45.3c0,19.4,0,38.7,0,58.1c-2.8,0-5.6,0-8.4,0C85.1,248.7,85.1,226.6,85.1,204.5z"/>
	<path class="st0" d="M161.4,270.7c0-22.1,0-44.1,0-66.2c7.2,0.1,14.4-0.1,21.6,0.1c5.8,0.2,12.1,1.9,15.9,6.5
		c4.1,4.9,4.6,11.8,3.7,17.9c-0.8,5.3-4.1,10.3-9,12.6c-7.3,3.5-15.7,2.2-23.5,2.5c0,8.9,0,17.7,0,26.6
		C167.2,270.7,164.3,270.7,161.4,270.7 M170.1,211.9c0,8.3,0,16.6,0,24.9c5.3-0.3,10.8,0.6,16-0.7c10.3-2.8,10.4-20.3,0.2-23.4
		C181,211.3,175.5,212.1,170.1,211.9z"/>
	<path class="st0" d="M214.8,204.5c2.9,0,5.8,0,8.7,0c0,19.6,0,39.1,0,58.7c10.5,0,20.9,0,31.4,0c0,2.5,0,5,0,7.5
		c-13.4,0-26.7,0-40.1,0C214.7,248.7,214.8,226.6,214.8,204.5z"/>
	<path class="st0" d="M264,204.5c13.6,0,27.2,0,40.7,0c0,2.5,0,5,0,7.5c-10.7,0-21.4,0-32,0c0,6.5,0,13,0,19.6
		c10.2,0.1,20.5,0,30.7,0c0,2.5,0,5,0,7.5c-10.2,0-20.5,0-30.7,0c0,8,0,16,0,24c10.9,0,21.9,0,32.8,0c0,2.5,0,5,0,7.5
		c-13.8,0-27.7,0-41.5,0C264,248.7,264,226.6,264,204.5z"/>
	<path class="st0" d="M348.1,204.5c12.3,0,24.7,0,37,0c0,2.5,0,5,0,7.5c-9.4,0-18.9,0-28.3,0c0,6.5,0,13,0,19.5
		c8.5,0.1,17,0,25.6,0.1c0,2.5,0,5,0,7.5c-8.5,0-17,0-25.5,0c0,10.5,0,21.1,0,31.6c-2.9,0-5.8,0-8.7,0
		C348.1,248.7,348.1,226.6,348.1,204.5z"/>
	<path class="st0" d="M382.9,270.7c8.2-22.1,16.4-44.2,24.6-66.2c3.3,0,6.6,0,9.8,0c8.2,22.1,16.4,44.1,24.6,66.2c-3,0-6,0-9,0
		c-2-5.7-3.9-11.3-5.9-17c-9.7,0-19.4,0-29,0c-2,5.7-3.9,11.3-5.9,17C389,270.7,386,270.7,382.9,270.7 M400.6,246.3
		c7.9,0,15.8,0,23.7,0c-3.9-10.9-7.9-21.9-11.8-32.8C408.4,224.3,404.6,235.3,400.6,246.3z"/>
	<path class="st0" d="M498.6,204.5c18.2,0,36.3,0,54.5,0c0,2.5,0,5,0,7.5c-7.6,0-15.3,0-22.9,0c0,19.6,0,39.1,0,58.7
		c-2.9,0-5.8,0-8.8,0c0-19.6,0-39.1,0-58.6c-7.6,0-15.3,0-22.9,0C498.5,209.6,498.5,207.1,498.6,204.5z"/>
	<path class="st0" d="M589.7,204.5c12.3,0,24.7,0,37,0c0,2.5,0,5,0,7.5c-9.4,0-18.9,0-28.3,0c0,6.5,0,13,0,19.5c8.5,0,17,0,25.5,0
		c0,2.5,0,5,0,7.5c-8.5,0-17,0-25.6,0c0,10.5,0,21.1,0,31.6c-2.9,0-5.8,0-8.7,0C589.7,248.6,589.7,226.6,589.7,204.5z"/>
	<path class="st0" d="M640.6,204.5c7.1,0,14.3-0.1,21.4,0.1c5.6,0.2,11.7,1.4,15.8,5.6c4.4,4.7,5.1,11.8,4,17.9
		c-0.9,5.4-5.1,10.1-10.5,11.5c5,2.4,7.7,7.4,10.1,12c3.2,6.3,6.3,12.7,9.4,19.1c-3.1,0-6.3,0-9.4,0c-3.1-6.3-6.1-12.7-9.3-19
		c-1.9-3.4-4.2-7.2-8.2-8.3c-4.8-1.2-9.7-0.5-14.6-0.7c0,9.3,0,18.7,0,28c-2.9,0-5.8,0-8.7,0C640.7,248.6,640.6,226.6,640.6,204.5
		 M649.4,235.4c5.5-0.2,11.2,0.6,16.5-0.8c9.5-2.7,9.7-18.8,0.3-21.8c-5.4-1.6-11.3-0.7-16.8-0.9
		C649.3,219.7,649.3,227.6,649.4,235.4z"/>
	<path class="st0" d="M702.1,204.5c13.6,0,27.2,0,40.8,0c0,2.5,0,5,0,7.5c-10.7,0-21.4,0-32,0c0,6.5,0,13.1,0,19.6
		c10.2,0,20.5,0,30.7,0c0,2.5,0,5,0,7.5c-10.2,0-20.5,0-30.7,0c0,8,0,16,0,24c10.9,0,21.9,0,32.8,0c0,2.5,0,5,0,7.5
		c-13.8,0-27.7,0-41.5,0C702.1,248.7,702.1,226.6,702.1,204.5z"/>
	<path class="st0" d="M758.1,204.5c13.6,0,27.2,0,40.8,0c0,2.5,0,5,0,7.5c-10.7,0-21.4,0-32,0c0,6.5,0.1,13-0.1,19.5
		c10.2,0.3,20.5,0,30.8,0.1c0,2.5,0,5,0,7.5c-10.2,0-20.4,0-30.7,0c0,8,0,16,0,24c10.9,0,21.9,0,32.8,0c0,2.5,0,5,0,7.5
		c-13.8,0-27.7,0-41.5,0C758.1,248.7,758.1,226.6,758.1,204.5z"/>
</g>
<g id="_x23_ffe082ff">
	<path class="st1" d="M440.4,38c12.9-7.7,25.8-15.3,38.7-23c7.3,10.9,14.4,22.1,21.6,33.1c-8.1,25.7-16.2,51.3-24.3,77
		c4.8,5,9.7,10.1,14.5,15.1c-4.3,3.1-8.5,6.2-12.8,9.3c6.6-0.1,13.2-0.3,19.8-0.2c-6.5,2.2-13,4.5-19.5,6.8c6.4,2.9,12.6,6,19,8.9
		c-7.1-1.2-14.4-1.9-21.3-3.8c-5.6-6.8-11.2-13.6-17-20.2c-1.1-1.4-2.8-2.8-2.4-4.8c0.9-32.8,8.2-64.8,15.4-96.7
		c-2.3,5.3-3.7,10.9-5.3,16.4c-6.4,22.3-10.7,45.3-12.5,68.4c-0.2,4.8-0.9,9.6-0.5,14.4c6.4,8.3,13.3,16.2,19.9,24.3
		c-3.3,5.8-6.7,11.6-10.1,17.4c1.6-5.7,3.2-11.4,4.8-17.1c-8.3,3.7-16.5,7.4-24.8,11c4.8-4.6,9.7-9.2,14.5-13.9
		c-6.4,0.8-12.7,1.6-19.1,2.4c-4.4-15.8-8.8-31.6-13.3-47.4c5.7,2.6,11.4,5.2,17,7.8c-5.3-6.1-10.6-12.2-15.8-18.4
		C431.3,82.6,435.9,60.3,440.4,38z"/>
</g>
<g id="_x23_f6f6f6ff">
	<path class="st2" d="M466.8,55.8c1.7-5.5,3.1-11.1,5.3-16.4c-7.2,31.8-14.6,63.9-15.4,96.7c-0.4,2,1.3,3.4,2.4,4.8
		c5.7,6.7,11.3,13.5,17,20.2c6.6,8,13.2,16,19.5,24.3c1.7,2.4,3.8,4.7,4.8,7.5c-2.9-2.2-5.2-5.1-7.7-7.7
		c-6.5-7.3-12.8-14.8-19.1-22.3c-6.6-8.1-13.5-16-19.9-24.3c-0.5-4.8,0.3-9.6,0.5-14.4C456.1,101.1,460.4,78.1,466.8,55.8z"/>
</g>
</svg>
