<?xml version="1.0" encoding="utf-8"?>
<!-- Generator: Adobe Illustrator 22.0.0, SVG Export Plug-In . SVG Version: 6.00 Build 0)  -->
<svg version="1.1" id="图层_1" xmlns="http://www.w3.org/2000/svg" xmlns:xlink="http://www.w3.org/1999/xlink" x="0px" y="0px"
	 viewBox="0 0 1200 320" style="enable-background:new 0 0 1200 320;" xml:space="preserve">
<style type="text/css">
	.st0{fill:#FE1B48;}
	.st1{fill:#FEFEFE;}
</style>
<path class="st0" d="M659.8,24.6c12.6,0,25.2,0,37.8,0c0,3.5,0,7.1,0,10.6c14.4,0,28.7,0,43.1,0c0,10.7,0,21.3,0,32
	c-40.7,0-81.5,0-122.2,0c0-10.7,0-21.3,0-32c13.8,0,27.5,0,41.3,0C659.8,31.7,659.8,28.2,659.8,24.6z"/>
<path class="st0" d="M744,29.5c44.6,0,89.2,0,133.8,0c0,11,0,21.9,0,32.9c-15.7,0-31.4,0-47.1,0c0,42.4,0,84.9,0,127.3
	c16.4,0,32.8,0,49.2,0c0,11.1,0,22.2,0,33.3c-16.4,0-32.8,0-49.2,0c0,21.5,0,42.9,0,64.4c-13.1,0-26.1,0-39.2,0
	c0-21.5,0-42.9,0-64.4c-18,0-36.1,0-54.1,0c0-11.1,0-22.2,0-33.3c18,0,36.1,0.1,54.1-0.1c0-42.4,0-84.8,0-127.2
	c-15.9,0-31.7,0-47.5,0C744,51.4,744,40.5,744,29.5z"/>
<path class="st0" d="M741.9,75.7c11.8,0,23.7,0,35.6,0c0.6,15.5,1.5,30.9,2.3,46.4c0.2,9.5,1.5,19,0.8,28.5c1.6,0.6,3.2,0.9,4.9,1.1
	c0,9.2,0,18.3,0,27.5c-7.8-0.1-15.6,0.1-23.4,0c-4.9,0-9.3-3.2-11.4-7.5c-3.1-6.4-3.9-13.6-3.9-20.6
	C745.2,125.9,743.3,100.8,741.9,75.7z"/>
<path class="st0" d="M850.3,75.7c11.1,0,22.1,0,33.2,0c-1.5,25.5-2.3,51-3.6,76.4c0,9.4-3.1,20-11.6,25.2
	c-9.2,5.7-20.4,3.5-30.7,3.9c0-10.2,0-20.4,0-30.6c2,0,4,0.1,6.1-0.2c1.5-0.8,1.6-2.8,1.8-4.3C847.1,122.7,849,99.2,850.3,75.7z"/>
<path class="st0" d="M622.9,81.4c37.3,0,74.6,0,112,0c0,11,0,21.9,0,32.9c-37.3,0-74.6,0-112,0C622.9,103.3,622.9,92.4,622.9,81.4z"
	/>
<path class="st0" d="M622,129.8c37.6,0,75.2,0,112.9,0c0,11,0,21.9,0,32.9c-37.6,0-75.2,0-112.9,0C622,151.7,622,140.8,622,129.8z"
	/>
<path class="st0" d="M622,177.3c37.2,0,74.4,0,111.6,0c0,16.6,0,33.2,0,49.8c0.1,8.6-0.4,17.2,0.4,25.8c0.3,8.6-2.2,18.1-9.6,23.3
	c-8.4,5.8-19.3,6.1-29.1,5.3c-24.4,0-48.8,0-73.2,0C622,246.8,622,212,622,177.3 M660.8,211.6c0,13,0,26,0,39.1
	c9.7,0,19.5-0.1,29.2,0.1c2.3,0,3.3-2.6,3.2-4.6c0.1-11.5,0-23.1,0-34.6C682.4,211.5,671.6,211.6,660.8,211.6z"/>
<path class="st1" d="M1144.9,21.9c11.2,0,22.4,0,33.6,0c0,78.2,0,156.4,0,234.7c-11.5,10.7-22.3,22-33.6,33c-10.5,0-21.1,0-31.6,0
	c0-10.8,0-21.6,0-32.4c10.5,0,21,0,31.5,0C1144.9,178.8,1144.9,100.4,1144.9,21.9z"/>
<path class="st1" d="M468.2,24.3c15.9,0,31.9,0,47.8,0c0,9.9,0,19.8,0,29.7c22,0,44,0,66,0c-4.4,9.9-8.8,19.8-13.1,29.8
	c-17.6,0.1-35.3,0-52.9,0c0,12,0,23.9,0,35.9c22.7,0.1,45.5,0,68.2,0c-4.5,10.1-9.1,20.1-13.5,30.1c-21.2,0-42.4,0-63.6,0
	c-21.7-0.2-43.3,0.6-65,0.4c-14.6,0-29.1,0-43.7,0c0-10.2,0-20.4,0-30.6c23.2,0,46.5,0.1,69.7,0c0-11.9,0-23.9,0-35.9
	c-22.1,0-44.1,0-66.2,0c0-9.9,0-19.9,0-29.8c22,0,44.1,0.1,66.2,0C468.2,44,468.2,34.1,468.2,24.3z"/>
<path class="st1" d="M127.4,123.2c0-32.8,0-65.7,0-98.5c16.8,0,33.5,0,50.2,0c0,32.9,0,65.7,0,98.5c37,0,74.1,0,111.2,0
	c-5.8,12.1-11.4,24.3-17.1,36.4c-31.3,0-62.7,0-94,0c0,38,0,76,0,114c-16.8,7.3-33.5,14.7-50.2,22c0-45.3,0-90.7,0-136
	c-35.4,0-70.7,0-106,0c0-12.1,0-24.3,0-36.4C56.7,123.2,92,123.3,127.4,123.2z"/>
<path class="st1" d="M354.4,24.7c16.2,0,32.3,0,48.5,0c-4.6,14.8-9.9,29.4-14,44.3c-0.1,69.7,0,139.4-0.1,209.1
	c-16,7-32,13.7-47.9,20.7c0-58.7,0-117.3,0-176c-6.7,0-13.4,0-20.1,0C332,90.1,343.3,57.4,354.4,24.7z"/>
<path class="st1" d="M980.3,25.6c37.5,0,75,0,112.6,0c0,56.6,0,113.1,0,169.7c-11.4,5.6-22.7,11.2-34.1,16.8c0-50.9,0-101.8,0-152.8
	c-14.8,0-29.6,0-44.5,0c0,49.9,0,99.8,0,149.7c-11.4,5.6-22.7,11.2-34.1,16.9C980.3,159.1,980.3,92.3,980.3,25.6z"/>
<path class="st1" d="M1101.4,30.9c11.2,0,22.4,0,33.6,0c0,65.6,0,131.2,0,196.8c-11.2,4.3-22.4,8.8-33.6,13.2
	C1101.4,170.9,1101.4,100.9,1101.4,30.9z"/>
<path class="st1" d="M1019.3,86.3c11.4,0,22.7,0,34.1,0c0,30.2,0,60.5,0,90.8c0.1,9.9-0.3,19.8,0.2,29.6
	c15.1,27.7,30.7,55.3,46.2,82.9c-14.1,0-28.2,0-42.2,0c-7.5-14-14.7-28.1-22.3-42.1c-8.3,14-16.5,28.1-24.9,42.1
	c-13.2,0-26.4,0-39.6,0c15.2-25.8,30.2-51.7,45.4-77.5c1.4-2.5,3.4-4.9,3.1-7.9C1019.3,164.9,1019.3,125.6,1019.3,86.3z"/>
<path class="st1" d="M468.2,156.5c15.9,0,31.9,0,47.8,0c0,10.6,0,21.3,0,32c22.6,0,45.2,0,67.8,0c-4.5,9.9-9,19.8-13.5,29.8
	c-18.1,0-36.1,0-54.2,0c0,12.6,0,25.1,0,37.6c23.5,0,47,0,70.5,0c-4.7,10-9.4,20-13.9,30.1c-58,0.1-116.1,0-174.1,0
	c0-10,0-20.1,0-30.1c23.2,0,46.5,0,69.7,0c0-12.5,0-25.1,0-37.6c-22.1-0.1-44.1,0-66.2,0c0-9.9,0-19.8,0-29.8c22,0,44.1,0,66.2,0
	C468.2,177.8,468.2,167.1,468.2,156.5z"/>
<path class="st1" d="M927,186.2c12.6,0,25.1,0,37.7,0c0,29.5,0,59,0,88.4c-12.6,6.1-25.1,12.1-37.7,18.2
	C926.9,257.3,927,221.8,927,186.2z"/>
<circle class="st1" cx="946" cy="47" r="25.3"/>
<circle class="st1" cx="946" cy="130" r="25.3"/>
</svg>
