<?xml version="1.0" encoding="utf-8"?>
<!-- Generator: Adobe Illustrator 22.0.0, SVG Export Plug-In . SVG Version: 6.00 Build 0)  -->
<svg version="1.1" id="图层_1" xmlns="http://www.w3.org/2000/svg" xmlns:xlink="http://www.w3.org/1999/xlink" x="0px" y="0px"
	 viewBox="0 0 1500 300" style="enable-background:new 0 0 1500 300;" xml:space="preserve">
<style type="text/css">
	.st0{fill:#FE1B48;}
	.st1{fill:#332C2B;}
	.st2{fill:#FFFFFF;}
</style>
<g id="_x23_fe1b48ff">
	<path class="st0" d="M126.4,35.7C150.5,16,181,4.4,212.1,3c33.8-1.7,68,8.8,95.1,29.2c33.8,25,55.9,65.1,58.6,107.1
		c0.7,6.3,1.1,12.7,0.2,19c-1,17.2-4.9,34.2-11.8,49.9c-14.1,33.1-41,60.5-73.7,75.4c-26.1,12.1-55.9,16.1-84.3,11.6
		c-32.3-4.9-62.6-21.2-84.8-45.1c-22.6-24.1-36.4-56-39.1-88.9c-2-12.3,0.1-24.7,1.9-36.9C80,89.8,99,57.7,126.4,35.7 M248.7,51.1
		c-4,3.6-7.8,7.5-11.6,11.4c12.3,11.3,23.8,23.3,35.4,35.2c4-3.6,7.9-7.4,11.3-11.5c3.7-4.5,4.5-11.4,0.8-16.2
		c-3.6-4.7-8.1-8.6-12.4-12.7c-3.9-3.4-7.6-7.9-13.1-8.7C255.5,47.5,251.5,48.5,248.7,51.1 M211.3,89.6
		c-25.5,26.2-51,52.5-76.5,78.7c11.8,11.6,23.7,23.2,35.3,35c31.9-32.8,63.9-65.6,96-98.2c-11.8-11.7-24-23.1-35.7-35
		C223.8,76.4,217.7,83.2,211.3,89.6 M128.3,174.6c-3.8,15.8-7.6,31.6-11.6,47.3c15.7-4,31.5-7.8,47.3-11.6
		C152.1,198.4,140.2,186.5,128.3,174.6 M220.4,184.9c-3,1.1-5.5,4.2-4.6,7.5c0.6,3.8,4.4,6.3,8.1,6.2c21.7,0.1,43.4,0,65,0
		c3.4,0.1,7.3-0.9,9.4-3.8c1.4-2.8,1.1-7-1.9-8.7c-2.1-1.6-4.9-1.9-7.4-1.9c-21.3,0-42.7,0-64,0
		C223.5,184.2,221.9,184.3,220.4,184.9 M179.5,217c-2.6,0.6-4.9,2.7-5.7,5.4c-0.7,4.1,3,8.6,7.2,8.3c37,0,74,0,110.9,0
		c3,0.3,5.8-1.7,6.8-4.5c1.9-4.3-1.9-9.8-6.6-9.4c-35,0-70,0-105.1,0C184.5,216.8,182,216.6,179.5,217z"/>
	<path class="st0" d="M977.5,34.8c11,0,22,0,33,0c-0.1,3.1-0.1,6.2-0.1,9.2c12.5,0,25,0,37.6,0c-0.2,9.3-0.2,18.5,0,27.8
		c-35.4,0.1-70.9,0-106.3,0c0.1-9.3,0.1-18.5,0-27.8c12,0,24,0.2,36-0.1C977.5,40.9,977.5,37.9,977.5,34.8z"/>
	<path class="st0" d="M1050.7,39c38.8,0.1,77.6,0,116.4,0c-0.1,9.5,0,19.1,0,28.6c-13.7,0-27.3,0-41,0c0.1,36.9,0.1,73.7,0,110.6
		c14.3,0.1,28.5,0,42.8,0c0,9.6-0.1,19.3,0.1,28.9c-14.3,0.1-28.5,0-42.8,0c0.1,18.7,0,37.3,0,56c-11.4,0-22.8,0-34.1,0
		c0.2-18.7,0-37.3,0.1-55.9c-15.7,0-31.5,0-47.2,0c0.4-9.7,0-19.3,0.2-29c15.7,0.1,31.3,0.1,47,0c0-36.9,0-73.7,0-110.6
		c-13.8,0-27.6,0-41.4,0C1050.8,58.1,1050.8,48.6,1050.7,39z"/>
	<path class="st0" d="M1048.8,79.2c10.3,0,20.7,0,31,0c0.8,21.8,2.4,43.6,3,65.4c1.3,0.4,2.7,0.5,4,0.7c-0.1,7.9-0.1,15.9,0,23.8
		c-7.4-0.2-14.8,0.2-22.1-0.2c-7.7-1.3-10.3-10-11.1-16.7C1052.1,127.9,1050.4,103.5,1048.8,79.2z"/>
	<path class="st0" d="M1143.2,79.2c9.6,0,19.3,0,28.9,0c-1.6,23.4-2,47-3.4,70.4c-0.6,7.4-4,15.1-10.9,18.6
		c-7.9,4.2-17.1,2.4-25.6,2.8c0.1-8.9,0.1-17.8,0-26.7c1.8-0.1,3.7,0.2,5.5-0.3c1.1-0.9,1.1-2.4,1.3-3.7
		C1140.4,120,1142,99.6,1143.2,79.2z"/>
	<path class="st0" d="M945.4,112.8c0.1-9.6,0.1-19.1,0-28.7c32.5,0,64.9,0,97.4,0c-0.1,9.5-0.1,19.1,0,28.6
		C1010.4,112.8,977.9,112.8,945.4,112.8z"/>
	<path class="st0" d="M944.7,126.2c32.7,0,65.4,0,98.1,0c0,9.5-0.1,19.1,0.1,28.6c-32.7,0.1-65.5,0-98.2,0
		C944.7,145.3,944.7,135.8,944.7,126.2z"/>
	<path class="st0" d="M944.7,167.6c32.3,0,64.7,0,97.1,0c-0.1,16.3,0,32.6-0.1,48.8c0.1,5.6-0.2,11.3,0.3,16.9
		c0.3,7.3-1.8,15.3-7.9,19.9c-7.4,5.4-17.2,5.8-26,4.9c-21.1,0-42.3,0-63.4,0C944.7,228,944.7,197.8,944.7,167.6 M978.4,231.3
		c8.5-0.1,17.1-0.2,25.6,0.2c1.9-0.4,2.7-2.2,2.6-4c0-10.1,0.1-20.2-0.1-30.3c-9.3,0.1-18.7,0.1-28,0
		C978.4,208.6,978.5,219.9,978.4,231.3z"/>
</g>
<path class="st1" d="M1399.3,32.5c9.8,0,19.5,0,29.3,0c-0.2,68,0.2,136.1-0.2,204c-9.8,9.2-19.2,19-28.9,28.3
	c-9.2,0.6-18.5,0.1-27.7,0.3c0.1-9.4,0-18.8,0-28.2c9.2,0,18.4,0,27.5,0C1399.2,168.8,1399.4,100.7,1399.3,32.5z"/>
<path class="st1" d="M514.5,34.9c14.6,0,29.2,0,43.8,0c-0.1,28.6,0,57.1-0.1,85.7c32.2,0,64.5,0,96.7,0c-5.2,10.5-9.9,21.1-15,31.6
	c-27.3-0.1-54.5,0-81.7,0c0.1,33.1,0,66.1,0,99.2c-14.6,6.4-29.2,12.8-43.7,19.2c0-39.5,0.1-78.9,0-118.4c-30.7,0.1-61.5,0-92.2,0
	c0.1-10.5,0.1-21.1,0-31.6c30.7,0,61.4-0.1,92.1,0.1C514.7,92.1,514.6,63.5,514.5,34.9z"/>
<path class="st1" d="M711.9,34.9c14.1-0.1,28.2,0,42.3,0c-3.9,11.4-7.5,23-11.3,34.5c-0.5,1.6-1.1,3.3-1.1,5.1
	c0,60.3,0,120.5,0,180.8c-12.8,5.6-25.6,11.1-38.4,16.6c-1.3,0.4-2.2,1.3-2.9,2.4c-0.8-13.9-0.1-27.8-0.3-41.7
	c0-37.4,0-74.8,0-112.3c-5.8,0-11.7,0-17.5,0C692.5,91.8,702.3,63.4,711.9,34.9z"/>
<path class="st1" d="M810.8,34.6c13.9,0,27.9,0,41.8,0c-0.1,8.6,0,17.2,0,25.8c19.1-0.1,38.3,0,57.4,0c-3.8,8.6-7.6,17.2-11.4,25.9
	c-15.3,0.1-30.7,0-46,0c0.1,10.5,0,20.9,0,31.4c19.8-0.1,39.5,0.2,59.3-0.2c-3.9,8.8-7.9,17.6-11.8,26.3c-27,0-54.1-0.1-81.1,0.1
	c-22.9,0.4-45.8,0.2-68.7,0.2c0.1-8.8,0.1-17.7,0-26.5c20.2,0,40.3,0,60.5,0c0.1-10.4-0.1-20.9,0.1-31.3c-19.2,0-38.4,0-57.5,0
	c0.1-8.6,0-17.2,0-25.8c19.2-0.1,38.3,0,57.5-0.1C810.8,51.7,810.9,43.1,810.8,34.6z"/>
<path class="st1" d="M1256.2,35.7c32.7,0,65.3,0,98,0c0,44.2,0,88.5,0,132.7c-0.2,4.9,0.4,9.9-0.3,14.7c-9.7,5.1-19.7,9.6-29.4,14.8
	c0.1-44.3-0.1-88.6,0.1-132.9c-12.9,0-25.8,0-38.7,0c0,43.4,0,86.8,0,130.2c-9.9,4.9-19.8,9.7-29.7,14.7
	C1256.3,151.8,1256.2,93.7,1256.2,35.7z"/>
<path class="st1" d="M1361.5,223c0-60.9,0-121.9,0-182.8c9.8,0.1,19.5,0,29.2,0c-0.1,57,0,114.1,0,171.1
	C1381,215.2,1371.2,218.9,1361.5,223z"/>
<path class="st1" d="M1290.1,88.6c9.9,0,19.8,0,29.7,0c-0.1,34.3,0,68.6,0,102.9c-0.1,1.7,0.8,3.1,1.6,4.6
	c13,23,25.6,46.2,38.8,69.1c-12.2,0-24.5,0-36.7,0c-6.5-12.2-12.9-24.5-19.4-36.7c-7.2,12.2-14.4,24.4-21.6,36.7
	c-11.5,0.1-23,0-34.6,0.1c14.1-23.9,28.3-47.9,42.1-72C1290.4,158.3,1290.1,123.4,1290.1,88.6z"/>
<path class="st1" d="M810.8,149.5c13.9,0,27.9,0,41.8,0c-0.1,9.2,0,18.5,0,27.7c19.7-0.1,39.3,0,59-0.1c-4.1,8.6-7.9,17.3-11.9,25.9
	c-15.7,0-31.4,0-47.1,0c0,10.9,0.1,21.9,0,32.8c20.5,0,40.9,0,61.4,0c-4.3,8.7-8.2,17.5-12.3,26.2c-50.5,0-100.9,0-151.3,0
	c0.1-8.7,0.1-17.5,0-26.2c20.2-0.1,40.4,0.1,60.7-0.1c-0.2-10.9-0.1-21.8,0-32.7c-19.2,0-38.3,0.1-57.5-0.1c0-8.6,0.1-17.2,0-25.8
	c19.2-0.2,38.4,0,57.6-0.1C810.8,168,810.9,158.7,810.8,149.5z"/>
<path class="st1" d="M1209.8,175.3c10.9-0.1,21.8,0.1,32.7-0.1c0.3,25.7,0,51.4,0.1,77c-10.9,5.4-21.9,10.5-32.8,15.9
	C1209.9,237.2,1209.8,206.2,1209.8,175.3z"/>
<g id="_x23_ffffffff">
	<path class="st2" d="M248.7,51.1c2.8-2.6,6.8-3.6,10.4-2.6c5.5,0.8,9.1,5.3,13.1,8.7c4.3,4.1,8.8,8,12.4,12.7
		c3.6,4.8,2.8,11.7-0.8,16.2c-3.4,4.2-7.2,8-11.3,11.5c-11.6-11.9-23.1-23.9-35.4-35.2C240.9,58.6,244.7,54.7,248.7,51.1z"/>
	<path class="st2" d="M211.3,89.6c6.4-6.4,12.5-13.2,19.1-19.5c11.7,11.8,23.8,23.3,35.7,35c-32.1,32.6-64.1,65.4-96,98.2
		c-11.7-11.8-23.5-23.3-35.3-35C160.3,142.1,185.8,115.9,211.3,89.6z"/>
	<path class="st2" d="M128.3,174.6c12,11.9,23.8,23.8,35.7,35.7c-15.8,3.8-31.6,7.5-47.3,11.6C120.7,206.2,124.4,190.4,128.3,174.6z
		"/>
	<path class="st2" d="M220.4,184.9c1.5-0.6,3-0.8,4.6-0.8c21.3,0,42.7,0,64,0c2.6,0,5.3,0.3,7.4,1.9c2.9,1.7,3.3,5.9,1.9,8.7
		c-2.1,2.9-5.9,3.9-9.4,3.8c-21.7-0.1-43.4,0-65,0c-3.7,0.2-7.5-2.4-8.1-6.2C214.9,189.1,217.4,186,220.4,184.9z"/>
	<path class="st2" d="M179.5,217c2.5-0.4,5-0.2,7.5-0.2c35,0,70,0,105.1,0c4.7-0.4,8.5,5.1,6.6,9.4c-1,2.8-3.8,4.8-6.8,4.5
		c-37,0-73.9,0-110.9,0c-4.2,0.2-7.9-4.3-7.2-8.3C174.6,219.8,176.9,217.7,179.5,217z"/>
</g>
<circle class="st1" cx="1226" cy="54.5" r="22"/>
<circle class="st1" cx="1226" cy="127" r="22"/>
</svg>
