<?xml version="1.0" encoding="utf-8"?>
<!-- Generator: Adobe Illustrator 22.0.0, SVG Export Plug-In . SVG Version: 6.00 Build 0)  -->
<svg version="1.1" id="svg2" xmlns="http://www.w3.org/2000/svg" xmlns:xlink="http://www.w3.org/1999/xlink" x="0px" y="0px"
	 viewBox="0 0 500 140" style="enable-background:new 0 0 500 140;" xml:space="preserve">
<style type="text/css">
	.st0{fill:#033C71;}
	.st1{fill:#0068C8;}
	.st2{fill:#FFFFFF;}
</style>
<g id="layer1" transform="translate(-662.762 -516.179)">
	<g id="g9232" transform="translate(-1676.953 -1375.34) scale(3.5286)">
		<path id="path3908" class="st0" d="M758.3,545.1h-0.2l-3,0.6H755v17.9c0,1.3,0.1,1.6,0.2,2c0.3,1.3,0.7,2.1,1.3,2.8
			c0.7,0.7,1.6,1.2,2.7,1.4c1.1,0.2,3.6,0.2,4.9-0.2c0.2-0.1,0.5-0.2,0.7-0.2c0.1,0,0.2-0.1,0.2-0.1h0.1c0,0,0.1,0,0.1-0.1l0.1-0.1
			v-0.1V569c0-0.2-0.1-0.5-0.1-0.8c-0.1-0.2-0.1-0.5-0.2-0.8c0-0.1-0.1-0.2-0.1-0.3s-0.1-0.2-0.1-0.2c-0.1-0.1-0.2-0.1-0.3-0.1
			c-0.2,0-0.3,0.1-0.5,0.1c-0.3,0.1-1.2,0.2-2,0.2h-1.3c-0.2,0-0.4-0.1-0.7-0.2c-0.8-0.4-1.3-1-1.5-2.1c-0.1-0.4-0.2-0.7-0.2-1.5
			v-9.6l6.5-0.1h0.1v-2.7h-6.6l-0.1-2.8L758.3,545.1L758.3,545.1L758.3,545.1z M742.4,550.7c-0.5,0-0.9,0-1.4,0.1
			c-0.6,0.1-1.6,0.2-2.5,0.4c-0.5,0.1-0.9,0.2-1.2,0.2c-0.3,0.1-0.6,0.2-0.7,0.2l-0.2,0.1h-0.1v18.2h3.2v-0.1l0.1-7.9l0.1-7.7
			l0.5-0.1c0.5-0.1,1.4-0.2,2.2-0.2c0.9,0,1.6,0,2,0.1c1.7,0.3,2.7,1.3,3.2,3.2c0.2,0.5,0.2,1.5,0.2,6.6l0.1,6v0.1h3.1v-6.2
			c0-3.2,0-5-0.1-6c-0.1-1.1-0.2-1.6-0.5-2.4c-0.7-2.1-2.3-3.6-4.5-4.2c-0.5-0.2-1.4-0.2-2.3-0.2C743.4,550.6,743,550.6,742.4,550.7
			L742.4,550.7z M730.9,550.9h-3.2v7.9c0,3.8,0,5.8-0.1,6.8c0,0.5,0,0.8-0.1,1v0.2c-0.1,0.1-0.5,0.2-0.9,0.2c-0.5,0.1-1,0.1-1.6,0.1
			c-1.2,0-2.3,0-2.9-0.2c-0.9-0.2-1.6-0.7-2.2-1.5c-0.5-0.8-0.8-1.8-0.9-3.2c0-0.3-0.1-1.1-0.1-2.2V551H716c-0.1,0-0.2,0-0.2,0.1
			c-0.1,0.1-0.1,0.1-0.1,0.2v6.2c0,3.2,0.1,5,0.2,6.1s0.3,1.7,0.6,2.4c1,2.4,3,3.9,6.1,4c2.3,0.2,5.9-0.2,8.1-0.8l0.4-0.1h0.1V551
			L730.9,550.9L730.9,550.9z M768.7,550.9v5.8c0,4.6,0,6,0.2,6.9c0.3,2,1,3.6,2.1,4.6c1.1,1,2.6,1.7,4.5,1.7c1.8,0.2,4.4,0,5.9-0.3
			c1.9-0.4,2.3-0.5,2.5-0.5l0.1-0.1c0-0.1,0.1-0.2,0.1-0.2c0-0.2,0.1-0.5,0.1-1.1v-16.7h-3.3v14.7c0,0.5,0,0.8-0.1,1v0.2
			c-0.1,0-0.2,0.1-0.5,0.1c-0.2,0-0.5,0.1-0.9,0.1c-0.7,0.1-1.5,0.1-2.2,0.1c-1.5,0-2.5-0.2-3.2-0.7c-0.8-0.5-1.2-1.3-1.6-2.6
			c-0.1-0.3-0.2-0.6-0.2-1.5s-0.1-2.4-0.1-5.1l-0.1-5.9V551H769L768.7,550.9L768.7,550.9z M703.6,553.4c0.5,0,1.2,0.1,1.4,0.2
			c2,0.5,3.4,2.2,4,4.5c0.2,1,0.2,3.4,0,4.3c-0.6,2.3-2.2,3.9-4.1,4.4c-0.2,0.1-0.6,0.1-1.2,0.2H702c-0.5,0-1.2,0-1.7-0.1
			c-0.5-0.1-0.9-0.1-1-0.2v-0.2c0-0.2,0-0.5-0.1-1v-4.8v-5.1c0-0.4,0-0.6,0.1-0.8c0-0.2,0.1-0.2,0.1-0.2c0.1-0.1,0.2-0.2,0.5-0.3
			c0.2-0.2,0.5-0.2,0.8-0.4c0.5-0.2,1.2-0.5,1.5-0.5C702.4,553.5,703.1,553.4,703.6,553.4L703.6,553.4z M698.9,541.7
			c-0.1,0-0.3,0-0.5,0.1c-0.3,0.1-0.6,0.1-0.9,0.2s-0.7,0.2-0.9,0.2c-0.2,0-0.2,0.1-0.3,0.1h-0.1H696v23.9c0,1,0,1.7,0.1,2.1v0.7
			l0.1,0.1h0.2c0.1,0,0.2,0.1,0.3,0.1c0.2,0.1,0.5,0.2,0.9,0.2c0.7,0.2,1.6,0.3,2.3,0.4c0.3,0.1,1.2,0.1,2,0.2c0.9,0,1.9,0.1,2.3,0
			c2.4-0.1,4.8-1.2,6.3-2.9c2.8-3.2,3.1-9.1,0.7-12.8c-1-1.6-2.4-2.8-4.1-3.4c-1.2-0.5-2.1-0.6-3.6-0.5c-1.4,0.1-2.4,0.3-3.6,1
			c-0.2,0.1-0.2,0.1-0.4,0.2h-0.2v-0.2c0-0.2,0-0.4-0.1-0.8v-3.9v-4.1c0-0.3,0-0.5-0.1-0.6c0-0.1,0-0.1-0.1-0.2
			C699.1,541.8,699,541.7,698.9,541.7L698.9,541.7z M666.4,545.1h-0.2l-3,0.6h-0.1v17.9c0,1.3,0.1,1.6,0.2,2
			c0.3,1.3,0.7,2.1,1.3,2.8c0.7,0.7,1.6,1.2,2.7,1.4c1.1,0.2,3.6,0.2,4.9-0.2c0.2-0.1,0.5-0.2,0.7-0.2c0.1,0,0.2-0.1,0.2-0.1h0.1
			c0,0,0.1,0,0.1-0.1l0.1-0.1v-0.1V569c0-0.2-0.1-0.5-0.1-0.8c-0.1-0.2-0.1-0.5-0.2-0.8c0-0.1-0.1-0.2-0.1-0.3s-0.1-0.2-0.1-0.2
			c-0.1-0.1-0.2-0.1-0.3-0.1c-0.2,0-0.3,0.1-0.5,0.1c-0.3,0.1-1.2,0.2-2,0.2h-1.3c-0.2,0-0.4-0.1-0.7-0.2c-0.8-0.4-1.2-1-1.5-2.1
			c-0.1-0.4-0.2-0.7-0.2-1.5v-4.5L666.4,545.1L666.4,545.1L666.4,545.1z M679.3,550.9h-3.2v5.5c0,3.5,0,5.5,0.2,7
			c0.2,1.4,0.4,2.1,0.9,3.2c0.9,1.7,2.4,2.9,4.5,3.4c0.2,0.1,0.9,0.1,1.3,0.2c1.2,0.1,3,0.1,4.3-0.1c0.7-0.1,1.6-0.2,2.5-0.4
			c0.4-0.1,0.8-0.2,1.1-0.2c0.2,0,0.2-0.1,0.4-0.1c0.1,0,0.1,0,0.2-0.1c0,0,0.1,0,0.1-0.1c0.1,0,0.1-0.1,0.1-0.1v-0.1v-0.3
			c0-0.3,0-0.8,0.1-1.5v-16.1h-3.3v7.9c0,3.7,0,5.7-0.1,6.7c0,0.5,0,0.8-0.1,1v0.2c-0.1,0-0.2,0.1-0.5,0.2c-0.3,0.1-0.6,0.1-1,0.1
			c-0.8,0.1-1.6,0.1-2.3,0.1c-1.1-0.1-1.5-0.1-2-0.3c-0.8-0.3-1.6-1-2-1.8c-0.3-0.7-0.5-1-0.5-2.1c-0.1-1-0.1-2.7-0.2-5.9l-0.2-5.8
			v-0.1L679.3,550.9L679.3,550.9z"/>
		<g id="layer1-7" transform="matrix(.4623 0 0 .4623 438.936 307.746)">
			<g id="g4420" transform="translate(-889.465 -585.087) scale(2.07274)">
				<path id="path3910-7" class="st1" d="M810.9,536.8c0,5.1-4.1,9.2-9.1,9.2s-9.1-4.1-9.1-9.2s4.1-9.2,9.1-9.2
					S810.9,531.8,810.9,536.8z"/>
				<path id="path3912-0" class="st2" d="M804.3,529.8c-0.2,0-1.7,0.4-2.1,1c-1.2,0.1-6.4,3.6-9.4,5.8v0.7c1.3-0.5,3-1.1,3.7-1.1
					c0.2,0,0.2,0,0.2,0.1c0.2,0.3-0.8,1.7-1.9,3.3c-0.3,0.4-0.8,1.1-1,1.5l0.2,0.5c1.5-1.9,3.6-4.5,4.1-4.6h0.1
					c0.1,0.1-1.8,3.2-3.4,5.8l0.5,0.6c0.8-1,1.8-2.5,2.6-3.6c1.6-2.3,3-4.4,3.8-4.4h0.1c2.2,0,4.3,5.5,5.5,8.9l0.4-0.3
					c-0.5-3.9-1.8-10.2-4.4-11.9c0.3-0.2,0.3-1.2,0.3-1.2L804.3,529.8z"/>
			</g>
		</g>
	</g>
</g>
</svg>
