<?xml version="1.0" encoding="utf-8"?>
<!-- Generator: Adobe Illustrator 22.0.0, SVG Export Plug-In . SVG Version: 6.00 Build 0)  -->
<svg version="1.1" id="图层_1" xmlns="http://www.w3.org/2000/svg" xmlns:xlink="http://www.w3.org/1999/xlink" x="0px" y="0px"
	 viewBox="0 0 550 560" style="enable-background:new 0 0 550 560;" xml:space="preserve">
<style type="text/css">
	.st0{fill:#474747;}
</style>
<g id="_x23_474747ff">
	<path class="st0" d="M2.4,6.1h67c-0.1,182.6,0.1,365.2-0.1,547.8c-22.3,0-44.6,0-66.8,0c-0.2-34.3,0-68.5-0.1-102.8
		C2.4,302.7,2.4,154.4,2.4,6.1z"/>
	<path class="st0" d="M164.5,7.3c31.9,0,63.9,0,95.8,0c0.2,14.9,0,29.8,0.1,44.7c31,16.8,62.3,33.1,93.5,49.6
		c45.6,24.5,91.6,48.4,137.2,72.8c18.7,10,37.7,19.7,56.3,29.8c0,22.6,0,45.3,0,67.9c-32,0.1-63.9,0.1-95.9,0
		c-0.1-14.6,0.1-29.2-0.1-43.8c-70.2-37.5-140.4-75.1-210.6-112.5c-19.1-10.6-38.7-20.4-57.8-31.1c-6.3-3.1-12.3-6.6-18.5-9.7
		C164.5,52.4,164.3,29.8,164.5,7.3z"/>
	<path class="st0" d="M451.5,7.3c32,0,63.9,0,95.8,0c0.2,22.6,0,45.1,0.1,67.7c-22.9,12.1-45.6,24.6-68.4,36.7
		c-3.4,2-6.9,4-10.5,5.5c-9.6-4.2-19-9-28.4-13.7c-15-6.9-29.5-14.8-44.5-21.7c0-0.3,0.1-0.9,0.1-1.3c18.6-9.5,37.3-18.7,55.8-28.5
		C451.5,37.1,451.3,22.2,451.5,7.3z"/>
	<path class="st0" d="M164.4,204.2c25.6-13.9,51.6-27.1,77.2-41.1c4-0.9,7.4,2.2,11,3.7c17.2,8.1,34.2,16.6,51.4,24.6
		c4.3,2.3,8.8,3.9,12.9,6.5c-11.8,6.7-24.1,12.3-36,18.6c-6.9,3.1-13.2,7.3-20.3,10.1c-0.6,15.1,0,30.3-0.3,45.4
		c-32,0.1-63.9,0.1-95.9,0C164.4,249.4,164.4,226.8,164.4,204.2z"/>
	<path class="st0" d="M196.9,301.7c17.5-9.3,37.7-13,57.5-12.6c70.3,0,140.7,0,211,0c20.3,0.8,41.5,4.7,58.6,16.4
		c16.7,10.9,25.1,31.8,23.3,51.3c-22.1,15-44.5,29.5-66.7,44.5c-5.5,4.6-11.7,8.3-17.6,12.3c-17.5,11.6-34.9,23.2-52.4,34.8
		c-1.8,1.4-4.1,1-6.2,1.1c-37.9-0.2-75.8,0.3-113.6-0.2c8.8-6.6,18.3-12.3,27.4-18.5c32.6-21.7,65.3-43.3,97.9-65
		c3.4-2.3,6.9-4.3,10-7c-16.2-0.5-32.5-0.1-48.7-0.2c-33.3,0-66.7,0-100,0c-9.6-0.2-19.3,0.5-28.7,2.8c-6.4,1.8-13.7,5.3-15.9,12.1
		c-0.8,3.5-1.5,7-1.4,10.5c0,24,0,48.1,0,72.1c0,3.6,0.8,7.1,1.4,10.6c2.1,6.4,8,10.9,14.3,12.6c7.5,2.7,15.5,1.5,23.2,2.7
		c92.3,0.1,184.7,0,277,0.1c0,23.9,0.1,47.8,0,71.8c-98,0-195.9,0-293.9,0c-8,0.3-15.9-1.2-23.9-2c-16.4-3.1-33.2-8.7-45.4-20.5
		c-12.4-11.2-18.2-28-19.7-44.2c0-44,0-88.1,0-132.1c0.7-9,3.2-17.9,6.8-26.2C176.7,317.3,185.8,307.8,196.9,301.7z"/>
</g>
</svg>
