<?xml version="1.0" encoding="utf-8"?>
<!-- Generator: Adobe Illustrator 22.0.1, SVG Export Plug-In . SVG Version: 6.00 Build 0)  -->
<svg version="1.1" id="layer" xmlns="http://www.w3.org/2000/svg" xmlns:xlink="http://www.w3.org/1999/xlink" x="0px" y="0px"
	 viewBox="0 0 500 160" style="enable-background:new 0 0 500 160;" xml:space="preserve">
<style type="text/css">
	.st0{fill:#ADABAC;}
</style>
<path class="st0" d="M206.6,103.9l-2.4-42.8c-2.6,5.5-5,10.8-7.4,15.8c-2.3,5-4.8,10.2-7.5,15.6h-8.5c-1.3-2.6-2.7-5.3-4-8.2
	c-1.3-2.8-2.7-5.6-4-8.3c-1.2-2.7-2.5-5.4-3.7-8s-2.2-4.8-3.2-6.9l-2.3,42.8h-12.9l2.8-54.1c0.1-2.3,0.8-4.2,2.2-5.2
	c1.4-1.2,3.2-1.7,5.6-1.7h7.3c0,0,3.4,7.1,4.7,9.7s2.6,5.4,3.8,8.2c1.3,2.7,2.7,5.5,4,8.2s2.7,5.4,4.1,8c2.5-4.9,4.9-9.7,7.2-14.6
	c2.3-4.7,4.5-9.4,6.5-13.8c0.9-2.1,2.1-3.6,3.2-4.4c1.2-0.9,3.1-1.3,5.6-1.3h7.9l3.5,61.1L206.6,103.9L206.6,103.9z"/>
<path class="st0" d="M257.2,83.7c-0.2-0.1-0.5-0.1-1.1-0.2c-0.5-0.1-1.2-0.1-1.9-0.2s-1.6-0.1-2.5-0.2c-0.9,0-1.8-0.1-2.8-0.1
	c-2.2,0-4,0.2-5.3,0.5s-2.4,0.8-3.2,1.5c-0.7,0.6-1.2,1.3-1.5,2.2c-0.2,0.8-0.4,1.7-0.4,2.7c0,0.8,0.1,1.7,0.3,2.4
	c0.2,0.7,0.7,1.5,1.5,2.1c0.7,0.6,1.7,1.2,3.1,1.5c1.3,0.4,3.1,0.6,5.2,0.6c2.2,0,4.1-0.1,5.6-0.3c1.5-0.2,2.5-0.3,3-0.5V83.7
	L257.2,83.7z M269.5,103.3c-0.2,0.1-0.8,0.2-1.9,0.3c-1.2,0.2-2.6,0.3-4.5,0.5c-1.8,0.2-4.1,0.3-6.7,0.5s-5.3,0.2-8.3,0.2
	c-4.4,0-8-0.3-10.8-1.1c-2.8-0.7-5.1-1.7-6.7-3.1s-2.8-2.8-3.4-4.6s-0.9-3.7-0.9-5.7c0-2.6,0.4-4.7,1.2-6.7c0.7-1.9,2-3.4,3.7-4.7
	s3.9-2.1,6.7-2.7c2.7-0.6,6-0.9,9.8-0.9c2.7,0,4.9,0.1,6.7,0.2c1.7,0.2,2.8,0.2,3.1,0.3v-1.4c0-2.7-0.9-4.9-2.8-6.4
	c-1.9-1.5-4.8-2.2-8.8-2.2H236c-4.3,0-4.6-8.9-4.6-8.9H245c3.6,0,6.9,0.3,9.9,0.9c3,0.6,5.6,1.7,7.7,3.2s3.8,3.5,5,6.1
	c1.2,2.5,1.7,5.7,1.7,9.5L269.5,103.3L269.5,103.3z"/>
<path class="st0" d="M407.7,83.7c-0.2-0.1-0.5-0.1-1.1-0.2c-0.5-0.1-1.2-0.1-1.9-0.2c-0.7-0.1-1.6-0.1-2.5-0.2
	c-0.9,0-1.8-0.1-2.8-0.1c-2.2,0-4,0.2-5.3,0.5s-2.4,0.8-3.2,1.5c-0.7,0.6-1.2,1.3-1.5,2.2c-0.2,0.8-0.4,1.7-0.4,2.7
	c0,0.8,0.1,1.7,0.3,2.4c0.2,0.7,0.7,1.5,1.5,2.1c0.7,0.6,1.7,1.2,3.1,1.5c1.3,0.4,3.1,0.6,5.2,0.6c2.2,0,4.1-0.1,5.6-0.3
	c1.5-0.2,2.5-0.3,3-0.5L407.7,83.7L407.7,83.7z M420,103.3c-0.2,0.1-0.8,0.2-1.9,0.3c-1.2,0.2-2.7,0.3-4.5,0.5s-4.1,0.3-6.7,0.5
	s-5.3,0.2-8.3,0.2c-4.4,0-8-0.3-10.8-1.1c-2.8-0.7-5.1-1.7-6.7-3.1s-2.8-2.8-3.4-4.6c-0.6-1.7-0.9-3.7-0.9-5.7
	c0-2.6,0.4-4.7,1.2-6.7c0.7-1.9,2-3.4,3.7-4.7c1.7-1.2,3.9-2.1,6.7-2.7c2.7-0.6,6-0.9,9.8-0.9c2.7,0,4.9,0.1,6.7,0.2
	c1.7,0.2,2.8,0.2,3.1,0.3v-1.4c0-2.7-0.9-4.9-2.8-6.4s-4.8-2.2-8.8-2.2h-9.7c-4.3,0-4.6-8.9-4.6-8.9h13.7c3.6,0,6.9,0.3,9.9,0.9
	c3,0.6,5.6,1.7,7.7,3.2c2.2,1.5,3.8,3.5,5,6.1c1.2,2.5,1.7,5.7,1.7,9.5L420,103.3L420,103.3z"/>
<path class="st0" d="M301.8,66.2c-3.8,0-6.9,1.2-9.3,3.6s-3.7,5.8-3.7,10.2c0,2.3,0.3,4.3,1,6.1c0.7,1.7,1.6,3.2,2.7,4.3
	c1.2,1.2,2.5,2,4,2.6s3.2,0.9,4.8,0.9h18.6c0,0,0.5,10-7.1,10H300c-3.2,0-6.3-0.5-9.2-1.6c-2.9-1-5.4-2.6-7.6-4.6
	c-2.2-2.1-3.9-4.6-5.2-7.5c-1.2-3-1.9-6.3-1.9-10.2c0-3.7,0.7-7.1,1.9-10c1.2-2.9,3-5.4,5.2-7.5s4.7-3.7,7.7-4.7
	c2.9-1.1,6.1-1.7,9.5-1.7h19.7c0,0-0.7,10.2-5.5,10.2L301.8,66.2L301.8,66.2z"/>
<path class="st0" d="M360.7,63.5c0-1.8-0.5-3.7-1.4-5.6c-0.9-1.8-2.5-3.2-4.5-3.9c-0.7-0.3-1.7-0.5-2.8-0.7
	c-1.1-0.2-2.2-0.2-3.3-0.2h-8.3v20.5c0.5,0.1,1.3,0.2,2.7,0.5c1.3,0.2,2.8,0.3,4.6,0.3c2.7,0,4.8-0.3,6.5-1s3-1.5,4-2.6
	c1-1,1.7-2.2,2-3.5C360.6,66,360.7,64.7,360.7,63.5 M351.8,42.8c1.3,0,2.7,0.1,4.1,0.2c1.3,0.2,2.6,0.4,3.7,0.7
	c2.4,0.6,4.6,1.6,6.3,2.9c1.8,1.3,3.2,2.9,4.4,4.7c1.2,1.8,2,3.7,2.6,5.9s0.8,4.3,0.8,6.5c0,2.6-0.4,5.2-1.2,7.7
	c-0.8,2.5-2.2,4.7-4.1,6.7c-1.9,1.9-4.4,3.5-7.6,4.7s-7.1,1.7-11.8,1.7c-2.2,0-4.1-0.1-5.7-0.3c-1.7-0.2-2.7-0.3-3.1-0.5v20.2h-12.7
	V49.8c0-4.7,2.4-6.9,7.2-6.9L351.8,42.8L351.8,42.8z"/>
<path class="st0" d="M427.9,70.4c-0.3-0.9-0.7-2-1-3.1c-0.3-1.2-0.4-2.2-0.4-3.2c0-1.3,0.4-2.6,1.3-3.7c0.9-1.2,2.6-1.7,5-1.7h5.2
	c0,0,2.3,8.4,3.3,11.8s1.9,6.5,2.7,9.3c0.8,2.7,1.6,5.2,2.2,7.2s1.1,3.4,1.4,4.2c0.6-1.7,1.5-4.9,2.8-9.6c1.2-4.7,2.8-10.4,4.7-17.3
	c0.5-2.1,1.3-3.6,2.4-4.4c1.1-0.8,2.7-1.2,4.7-1.2h5.3c0,0,2.4,8.5,3.3,11.9c0.9,3.3,1.7,6.4,2.5,9.2c0.7,2.7,1.4,5.2,1.9,7.1
	c0.6,2,1,3.4,1.3,4.2c0.2-0.5,0.6-1.5,1-2.9s0.9-3,1.5-4.8s1.2-3.7,1.7-5.7c0.6-2,1.2-3.9,1.7-5.7c0.5-1.8,1-3.4,1.4-4.8
	s0.7-2.3,0.9-2.9c0.6-1.7,1.4-3.1,2.4-4s2.7-1.4,4.9-1.4h7.6c0,0-2.1,6.7-3.2,10.2c-1.2,3.5-2.5,7.2-4.1,11.4
	c-1.6,4.2-3.2,8.3-4.9,12.6c-1.7,4.2-3.3,7.9-4.8,11.2h-12.5c-0.2-0.7-0.6-1.8-1.1-3.3s-1-3.2-1.6-5s-1.2-3.7-1.7-5.7
	c-0.6-2-1.2-3.9-1.7-5.7c-0.5-1.8-1-3.4-1.4-4.7c-0.4-1.3-0.7-2.3-0.9-3c-0.2,0.6-0.5,1.6-0.8,3.1c-0.4,1.4-0.8,3.1-1.4,4.9
	c-0.5,1.8-1.1,3.7-1.7,5.8c-0.6,2.1-1.2,4-1.7,5.7c-0.6,1.8-1.1,3.4-1.5,4.8s-0.7,2.4-1,3h-12.5c-1.4-3.2-2.9-6.7-4.3-10.3
	c-1.5-3.7-2.8-7.1-4.1-10.2c-1.2-3.2-2.3-6-3.2-8.3C428.7,72.6,428.1,71.1,427.9,70.4"/>
<path class="st0" d="M60.1,142c-8.1,0-15.9-1.6-23.3-4.7c-7.2-3-13.6-7.3-19.1-12.8s-9.8-11.9-12.8-19.1C1.7,97.9,0.1,90.1,0.1,82
	s1.6-15.9,4.7-23.3c3-7.2,7.3-13.6,12.8-19.1s11.9-9.8,19.1-12.8c1.8-0.7,3.8-1.2,5.8-1.2c6,0,11.3,3.6,13.7,9.1
	c3.2,7.6-0.3,16.3-7.9,19.5c-3.6,1.5-6.8,3.7-9.6,6.5c-2.7,2.7-4.9,6-6.5,9.6C30.7,74,30,78,30,82s0.8,8,2.3,11.7
	c1.5,3.6,3.7,6.8,6.5,9.6c2.7,2.7,6,4.9,9.6,6.5c3.7,1.6,7.7,2.3,11.7,2.3c4.1,0,8-0.8,11.7-2.3c3.6-1.5,6.8-3.7,9.6-6.5
	c2.7-2.7,4.9-6,6.5-9.6C89.5,90,90.2,86,90.2,82c0-8.2,6.7-14.9,14.9-14.9S120,73.8,120,82c0,8.1-1.6,15.9-4.7,23.3
	c-3,7.2-7.3,13.6-12.8,19.1c-5.5,5.5-11.9,9.8-19.1,12.8C76,140.4,68,142,60.1,142"/>
<path class="st0" d="M42.5,25.7c-2,0-3.9,0.4-5.8,1.2c-7.2,3-13.6,7.3-19.1,12.8S7.7,51.6,4.7,58.8C1.6,66.2,0,74,0,82.1
	S1.6,98,4.7,105.4c3,7.2,7.3,13.6,12.8,19.1s11.9,9.8,19.1,12.8c7.4,3.2,15.2,4.7,23.3,4.7s15.9-1.6,23.3-4.7
	c7.2-3,13.6-7.3,19.1-12.8s9.8-11.9,12.8-19.1c3.2-7.4,4.7-15.2,4.7-23.3c0-8.2-6.7-14.9-14.9-14.9S90,73.9,90,82.1
	c0,4.1-0.8,8-2.3,11.7c-1.5,3.6-3.7,6.8-6.5,9.6c-2.7,2.7-6,4.9-9.6,6.5c-3.7,1.6-7.7,2.3-11.7,2.3s-8-0.8-11.7-2.3
	c-3.6-1.5-6.8-3.7-9.6-6.5c-2.7-2.7-4.9-6-6.5-9.6c-1.6-3.7-2.3-7.7-2.3-11.7c0-4.1,0.8-8,2.3-11.7c1.5-3.6,3.7-6.8,6.5-9.6
	c2.7-2.7,6-4.9,9.6-6.5c5.7-2.4,9.1-7.9,9.1-13.7c0-1.9-0.4-3.9-1.2-5.7C53.9,29.3,48.5,25.7,42.5,25.7"/>
<path class="st0" d="M53.1,19.6c0-0.9-0.7-1.7-1.7-1.7l-3.7,0.7c-1.2,0.3-1.9,1.3-1.9,2.7c0,1.5,1.2,2.7,2.7,2.7
	c0.8,0,1.6-0.4,2.1-1l1.9-2.2C52.8,20.5,53.1,20.1,53.1,19.6"/>
<path class="st0" d="M67.1,42.6c0-0.9-0.7-1.7-1.7-1.7l-3.7,0.7c-1.2,0.3-1.9,1.3-1.9,2.7c0,1.5,1.2,2.7,2.7,2.7
	c0.8,0,1.6-0.4,2.1-1l1.9-2.2C67,43.6,67.1,43.1,67.1,42.6"/>
<path class="st0" d="M63.6,23c0-1.2-0.9-2.1-2.1-2.1L57,21.7c-1.4,0.4-2.3,1.7-2.3,3.2c0,1.8,1.5,3.3,3.3,3.3c1,0,1.9-0.5,2.5-1.2
	l2.4-2.7C63.4,24.2,63.6,23.6,63.6,23"/>
<path class="st0" d="M68.7,32.1c0-1.2-0.9-2.1-2.1-2.1l-4.5,1c-1.4,0.4-2.3,1.7-2.3,3.2c0,1.8,1.5,3.3,3.3,3.3c1,0,1.9-0.5,2.6-1.2
	l2.3-2.7C68.5,33.2,68.7,32.7,68.7,32.1"/>
</svg>
