<?xml version="1.0" encoding="utf-8"?>
<!-- Generator: Adobe Illustrator 22.0.0, SVG Export Plug-In . SVG Version: 6.00 Build 0)  -->
<svg version="1.1"
	 id="svg12" inkscape:version="0.92.1 r15371" sodipodi:docname="mageia-logo-nav-3.svg" xmlns:cc="http://creativecommons.org/ns#" xmlns:dc="http://purl.org/dc/elements/1.1/" xmlns:inkscape="http://www.inkscape.org/namespaces/inkscape" xmlns:rdf="http://www.w3.org/1999/02/22-rdf-syntax-ns#" xmlns:sodipodi="http://sodipodi.sourceforge.net/DTD/sodipodi-0.dtd" xmlns:svg="http://www.w3.org/2000/svg"
	 xmlns="http://www.w3.org/2000/svg" xmlns:xlink="http://www.w3.org/1999/xlink" x="0px" y="0px" viewBox="0 0 780 250"
	 style="enable-background:new 0 0 780 250;" xml:space="preserve">
<style type="text/css">
	.st0{fill:#2397D4;}
	.st1{fill:#262F45;}
</style>
<sodipodi:namedview  bordercolor="#666666" borderopacity="1" fit-margin-bottom="0" fit-margin-left="0" fit-margin-right="0" fit-margin-top="0" gridtolerance="10" guidetolerance="10" id="namedview14" inkscape:current-layer="svg12" inkscape:cx="387" inkscape:cy="117.91" inkscape:pageopacity="0" inkscape:pageshadow="2" inkscape:window-height="480" inkscape:window-maximized="0" inkscape:window-width="640" inkscape:window-x="0" inkscape:window-y="0" inkscape:zoom="0.46680942" objecttolerance="10" pagecolor="#ffffff" showgrid="false">
	</sodipodi:namedview>
<path id="path2" inkscape:connector-curvature="0" class="st0" d="M669,230.5c-5,0-9-4-9-9c0-5,4-9,9-9c5,0,9,4,9,9
	C678,226.4,674,230.5,669,230.5z"/>
<g id="g6" transform="translate(-80,-80.99863)">
	<path id="path4" inkscape:connector-curvature="0" class="st0" d="M135.7,170.3L135.7,170.3c-6.7,0-12.1-5.4-12.1-12.1
		c0-6.7,5.4-12.1,12.1-12.1c6.7,0,12.1,5.4,12.1,12.1C147.8,164.9,142.4,170.3,135.7,170.3L135.7,170.3z M168.4,161.4
		c-6.2,0-11.3-5.1-11.3-11.3c0-6.2,5.1-11.3,11.3-11.3c6.2,0,11.3,5.1,11.3,11.3C179.7,156.3,174.6,161.4,168.4,161.4L168.4,161.4
		L168.4,161.4z M159.1,129.1c0,5.6-4.5,10.1-10.1,10.1c-5.6,0-10.1-4.5-10.1-10.1c0-5.6,4.5-10.1,10.1-10.1
		C154.6,119,159.1,123.6,159.1,129.1z M174.4,112.2c0,5.1-4.2,9.3-9.3,9.3s-9.3-4.2-9.3-9.3c0-5.1,4.2-9.3,9.3-9.3
		S174.4,107,174.4,112.2z M153.4,95.6c0,4.5-3.6,8.1-8.1,8.1s-8.1-3.6-8.1-8.1c0-4.5,3.6-8.1,8.1-8.1S153.4,91.2,153.4,95.6z"/>
</g>
<path id="path8" inkscape:connector-curvature="0" class="st1" d="M224,117.5c-24,0-42,18-42,42v40h12v-40c0-18,12-30,30-30
	s30,12,30,30v40h12v-40c0-18,12-30,30-30s30,12,30,30v40h12v-40c0-24-18-42-42-42c-15.7,0-28.8,7.7-36,19.7
	C252.8,125.1,239.7,117.5,224,117.5L224,117.5z M399,117.5c-24,0-42,18-42,42s18,42,42,42c12,0,22.5-4.5,30-12v10h12v-40
	C441,135.5,423,117.5,399,117.5z M399,129.5c18,0,30,12,30,30s-12,30-30,30s-30-12-30-30S381,129.5,399,129.5z M603,117.5
	c-24,0-42,18-42,42s18,42,42,42v-12c-15.9,0-27.1-9.4-29.5-24h71.1c0.3-2,0.4-3.9,0.4-6C645,135.5,627,117.5,603,117.5z M603,129.5
	c15.9,0,27.1,9.4,29.5,24h-59C575.9,138.9,587.1,129.5,603,129.5z M663,119.5h12v80h-12V119.5z M735,117.5c-24,0-42,18-42,42
	s18,42,42,42c12,0,22.5-4.5,30-12v10h12v-40C777,135.5,759,117.5,735,117.5z M735,129.5c18,0,30,12,30,30s-12,30-30,30s-30-12-30-30
	S717,129.5,735,129.5z M501,117.5c-24,0-42,18-42,42s18,42,42,42c12,0,22.5-4.5,30-12v12c0,18-12,30-30,30v12c24,0,42-18,42-42v-42
	C543,135.5,525,117.5,501,117.5z M501,129.5c18,0,30,12,30,30s-12,30-30,30s-30-12-30-30S483,129.5,501,129.5z"/>
<path id="path10" inkscape:connector-curvature="0" class="st1" d="M21.9,100.2C11.5,113.8,3,129,3,147.5c0,40,30.4,73,68,73
	c37.6,0,68-33,68-73c0-18.5-8.5-33.2-19.5-47.2c-4.1-4.3-10.1-3.7-14.5-0.9c-12.7,6.6-19.6,9.2-34,9.2c-13.9-0.1-21.2-2.3-34-9.3
	C32.7,96.5,26.1,95.9,21.9,100.2z M31,111.5c13.2,7.3,25,11,40,11c15,0,26.8-3.7,40-11c7.2,10.2,14,22.8,14,36c0,32.8-24.2,59-54,59
	c-29.8,0-55-26.2-55-59C16,134.2,23.8,121.6,31,111.5z"/>
</svg>
