<?xml version="1.0" encoding="utf-8"?>
<!-- Generator: Adobe Illustrator 22.0.0, SVG Export Plug-In . SVG Version: 6.00 Build 0)  -->
<svg version="1.1" id="图层_1" xmlns="http://www.w3.org/2000/svg" xmlns:xlink="http://www.w3.org/1999/xlink" x="0px" y="0px"
	 viewBox="0 0 970 260" style="enable-background:new 0 0 970 260;" xml:space="preserve">
<style type="text/css">
	.st0{fill:#3EC765;}
</style>
<g id="_x23_3ec765ff">
	<path class="st0" d="M4.5,2c52-0.1,103.9,0.2,155.9,0.4c0.2,30.2,0,60.4,0.1,90.6c-27.4,0-54.7,0-82.1,0c0,55,0,110,0,165
		c-24.6,0-49.3,0-73.9,0C4.5,172.7,4.5,87.3,4.5,2z"/>
	<path class="st0" d="M169.5,3.1c3.3,0,6.6-0.5,10-0.7c27-0.3,54-0.5,81-0.4c0,85.3,0,170.7,0,256c-30.3,0-60.7,0-91,0
		C169.5,173,169.5,88.1,169.5,3.1z"/>
	<path class="st0" d="M692.9,55.5c3.7-0.9,7.7-0.7,11.5-0.3c9.9,2.3,9.6,19.2-0.2,21.3c-5.2,0.9-12.1,1.2-15.7-3.5
		C684.9,67.5,685.9,58,692.9,55.5z"/>
	<path class="st0" d="M371.9,97.5c5.2-8.2,15-12.5,24.5-12.3c7,0.2,14.4,1.5,20,6c2.4,1.6,3.5,4.7,6,6.2c2.5-2.9,4.8-6.1,8.4-7.9
		c9.1-5.2,20.5-5.5,30.3-1.9c5.7,2.1,10.1,6.9,12.3,12.5c2.3,5.4,2,11.3,2.6,17c0.1,17.3-0.1,34.6,0.1,51.9
		c-7.8,0.2-15.6,0.1-23.5,0c0-16.3,0-32.6,0-49c0.2-4.7-0.9-9.5-3.8-13.2c-3.1-3.7-8.6-3.2-12.8-2.3c-6.4,1.3-9.4,7.9-10.4,13.7
		c-1.9,16.9-0.8,33.9-1.1,50.9c-7.6,0-15.2,0-22.8,0c0-16,0-32,0-48c0-4.9-0.4-10.4-3.9-14.3c-3.1-3.8-8.6-3.2-12.8-2.3
		c-7.6,2-10.2,10.6-10.6,17.6c-0.6,15.6-0.3,31.3-0.3,46.9c-7.8,0.2-15.6,0.1-23.4,0c0.1-27.3,0.1-54.6,0-81.9
		c5.9-0.1,11.9,0,17.8,0C369.7,90.5,370.4,94.1,371.9,97.5z"/>
	<path class="st0" d="M500.3,92.7c11.3-6.2,24.4-8.4,37.1-7.5c8.1,0.9,16.7,3.1,22.4,9.3c4.8,5.2,6.6,12.6,6.6,19.5
		c0,18.3,0,36.7,0,55c-5.5,0-11,0.1-16.5-0.1c-1.2-3.7-2.6-7.2-4.2-10.7c-4,5.1-9.3,9.7-15.8,11.3c-5.8,1.2-11.9,2.1-17.8,0.7
		c-8.1-1.2-15.5-7.1-17.8-15c-2.4-7.9-2.6-17.1,1.9-24.3c2.7-4.7,7.7-7.3,12.6-9.3c11.1-4,23-3.6,34.6-3.5c0.3-4.9,0-10.7-4.3-13.8
		c-3.9-2-8.6-2.7-12.9-1.6c-6.4,0.8-12.5,3.3-18.5,5.6C505.1,103.2,503.1,97.8,500.3,92.7 M522.7,134.2c-6.2,2.6-8.5,11.6-4.2,16.7
		c1.7,2.2,4.6,2.5,7.1,3c6.1,0,12.8-2.2,16-7.9c2.6-4.4,1.9-9.6,1.9-14.5C536.6,132,529.2,131.1,522.7,134.2z"/>
	<path class="st0" d="M609.9,97.4c5.9-9.1,17.3-12.7,27.6-12.3c8.1,0.5,16.9,3.1,21.8,10c4.7,5.8,5.4,13.6,5.9,20.8
		c0.1,17.6,0,35.3,0.1,53c-7.8,0.1-15.6,0.1-23.4,0c0.1-15.6,0-31.3,0-46.9c0-5.1-0.1-10.7-3.6-14.7c-3.3-3.9-9-3.7-13.6-3.2
		c-4,1-7.8,3.7-9.6,7.5c-3,5.7-2.6,12.3-3.4,18.5c-0.2,13,0,26-0.1,39c-7.6,0-15.2,0-22.8,0c0-27.3,0-54.6,0-81.9
		c6-0.1,11.9,0,17.8,0C607.5,90.5,608.3,94.1,609.9,97.4z"/>
	<path class="st0" d="M735.5,92.5c14.2-6.9,30.9-9.6,46.3-5.7c5.7,1.8,11.5,4.7,15,9.7c3,4.5,4.7,10,4.6,15.5c-0.1,19,0,38,0,57.1
		c-5.3,0-10.6,0-15.9,0c-1.6-3.5-2.8-7.1-4.2-10.7c-4,4.2-8.3,8.6-14,10.5c-7.7,2.4-16.3,3-24,0.3c-7.3-2.3-13-8.8-14.5-16.3
		c-1.2-7.9-1.5-16.9,3.9-23.5c5.2-6.7,13.8-8.8,21.7-10.2c8-1.5,16.2-1,24.3-1.1c-0.2-3.8,0.6-8.1-1.9-11.4c-3.3-4.3-9.5-5-14.5-4.1
		c-6.7,0.6-12.9,3.4-19.3,5.6C740.7,102.9,737.9,97.8,735.5,92.5 M753.5,138.1c-2.6,3.7-2.8,9.2,0.2,12.8c3.4,3.1,8.5,3.7,12.8,2.4
		c4.6-0.5,8.3-3.8,10.7-7.6c2.1-4.4,1.4-9.4,1.6-14.1c-4.7,0.2-9.4,0.1-14.1,0.6C760.5,133.1,755.8,134.3,753.5,138.1z"/>
	<path class="st0" d="M864.3,85.9c4.5-1.2,9.1-0.8,13.6,0.2c-0.4,7.1-1.4,14.2-1.4,21.4c-6.5-0.9-13.5-1.3-19.4,2
		c-6.4,2.7-9.9,9.9-9.8,16.6c-0.1,14.3-0.1,28.6,0,42.9c-7.8,0.1-15.6,0.1-23.4,0c0.1-27.3,0.1-54.6,0-81.9c5.9-0.1,11.8,0,17.7-0.1
		c1.3,4.5,2.2,9.1,3.5,13.6C849.4,93.7,856.1,87.8,864.3,85.9z"/>
	<path class="st0" d="M919.9,85.5c11.3-1.4,23.6,1.1,32.3,8.7c9.6,8.2,13.7,21.4,13.3,33.7c0.2,10.1-2,20.6-8.4,28.7
		c-5.4,7.7-14.5,12.1-23.6,13.4c-8.8,1.7-18.1,0.5-26.4-2.9c-11.2-5-18.6-16.3-20.6-28.1c-2.2-11.9-1.3-24.8,4.4-35.5
		C896.5,92.8,908.2,86.4,919.9,85.5 M921.8,104.2c-3.9,0.8-7.5,3.1-9.4,6.7c-3.8,6.7-3.1,14.7-3,22.1c0.2,6.2,2,13.2,7.4,16.8
		c4.9,2.9,11.2,3.1,16.4,0.9c6.1-3.5,8.4-11,8.5-17.7c0.2-7.9,0.8-16.5-3.8-23.4C934.4,104.5,927.5,103.2,921.8,104.2z"/>
	<path class="st0" d="M687.5,87c7.6,0,15.3,0,23,0c0,30.3,0,60.7,0,91c0,7.1-2.1,14.6-7.3,19.7c-5.6,5.6-13.9,7.7-21.7,7.3
		c-5,0.2-10-0.3-14.9-1.4c-0.2-6.1-0.1-12.1-0.1-18.2c5.2,0.8,10.6,2.2,15.7,0.4c4-1.9,5.4-6.6,5.4-10.7
		C687.5,145.7,687.5,116.4,687.5,87z"/>
	<path class="st0" d="M86.6,102c24.6,0,49.3,0,73.9,0c0,52,0,104,0,156c-24.6,0-49.3,0-73.9,0C86.6,206,86.6,154,86.6,102z"/>
</g>
</svg>
