<?xml version="1.0" encoding="utf-8"?>
<!-- Generator: Adobe Illustrator 22.0.0, SVG Export Plug-In . SVG Version: 6.00 Build 0)  -->
<svg version="1.1"
	 id="svg2" inkscape:version="0.91 r13725" sodipodi:docname="openSUSElogo_rgb green.svg" xmlns:cc="http://creativecommons.org/ns#" xmlns:dc="http://purl.org/dc/elements/1.1/" xmlns:inkscape="http://www.inkscape.org/namespaces/inkscape" xmlns:rdf="http://www.w3.org/1999/02/22-rdf-syntax-ns#" xmlns:sodipodi="http://sodipodi.sourceforge.net/DTD/sodipodi-0.dtd" xmlns:svg="http://www.w3.org/2000/svg"
	 xmlns="http://www.w3.org/2000/svg" xmlns:xlink="http://www.w3.org/1999/xlink" x="0px" y="0px" viewBox="0 0 400 260"
	 style="enable-background:new 0 0 400 260;" xml:space="preserve">
<style type="text/css">
	.st0{fill:#73BA25;}
</style>
<sodipodi:namedview  bordercolor="#666666" borderopacity="1" gridtolerance="10" guidetolerance="10" id="namedview4" inkscape:current-layer="g10" inkscape:cx="200" inkscape:cy="123.06752" inkscape:pageopacity="0" inkscape:pageshadow="2" inkscape:window-height="480" inkscape:window-maximized="0" inkscape:window-width="707" inkscape:window-x="103" inkscape:window-y="66" inkscape:zoom="0.94257199" objecttolerance="10" pagecolor="#ffffff" showgrid="false">
	</sodipodi:namedview>
<g>
	<g>
		<g id="g20" transform="translate(262.6839,162.7228)">
			<path id="path22" inkscape:connector-curvature="0" class="st0" d="M70.7-111c0.3-5.9,2.8-11.4,7-15.4c4.4-4,10-6.1,15.9-6
				c12.3,0.4,21.7,10.7,21.4,22.9c-0.3,5.9-2.8,11.4-7,15.4c-4.4,4.1-10,6.1-15.9,6C79.8-88.5,70.3-98.7,70.7-111z M129.8-89.1
				c1-0.6,1.8-1.3,2-1.4l0.4-0.5c-0.9-5.4-8.9-31.3-14.9-37.5c-1.6-1.8-3-3.4-5.6-5c-21.7-12.8-73.5-20.4-76-20.8l-0.4,0.1l-0.1,0.4
				c0,0-0.3,10.8-0.3,11.9c-5.3-1.8-43.8-14.3-79.8-15.5c-30.5-1.1-75-5-134,31.3l-1.7,1.1c-27.8,17.3-46.9,38.6-56.9,63.4
				c-3.1,7.8-7.4,25.4-3.1,42c1.7,7.3,5.1,14.5,9.8,21c10.3,14.8,27.4,24.5,45.9,26.1c26.1,2.4,45.9-9.4,53-31.4
				c4.9-15.1,0-37.4-18.5-48.8c-15.1-9.3-31.3-7.1-40.7-0.9c-8.1,5.4-12.8,13.9-12.8,23.1c0.3,16.4,14.3,25.1,24.5,25.1
				c3,0,5.9-0.5,9.2-1.6c1.3-0.4,2.3-0.7,3.5-1.6l0.4-0.2l0.2-0.1h-0.1c2.4-1.6,3.8-4.1,3.8-6.9c0-0.7-0.1-1.5-0.4-2.3
				c-1.3-4.1-5.3-6.6-9.5-5.9l-0.6,0.1l-0.8,0.2l-1.1,0.4c-2.4,0.6-4.1,0.6-4.5,0.6c-1.3-0.1-7-1.9-7-8.2V-31c0-2.4,1-4,1.5-4.9
				c1.9-2.9,6.7-5.6,13.5-5c8.9,0.7,15.1,5.2,19.4,13.9c3.9,7.9,2.9,17.7-2.6,24.9C-160,5-169.8,8-182.8,6.7
				C-196,5.3-207-2.2-213.2-14c-6.1-11.5-6.4-25.1-0.9-35.5c13.3-25,38.3-24.7,52-22.4c20.4,3.5,43.5,22.3,51.6,43.9
				c1.4,3.5,2,6.1,2.6,8.8l0.9,3.8l23,11.3l0.3,0.2h0.5l0.1-0.6c-0.1-0.5-0.5-1-1-7.4c-0.4-5.7-1.4-21.4,6.5-29
				c3-3,7.7-5.7,11.4-6.6c15-3.6,32.8-1.1,49.4,18.1C-8.2-19.5-4-15-1.8-13l0.7,0.6l0.9,0.6C0.5-11.4,28.6,1.4,28.6,1.4l0.6-0.1V0.8
				C29,0.5,11.4-22.1,14.5-40.9C17-55.7,28.8-54.4,45.3-52.5c5.4,0.6,11.5,1.4,17.8,1.5c17.6,0.1,36.6-3.1,48.2-8.2
				c7.5-3.3,12.4-5.5,15.4-8.2c1.1-0.9,1.6-2.4,2.3-4l0.4-1c0.5-1.3,1.3-4,1.5-5.5c0.1-0.6,0.3-1.4-0.3-1.8l-1.6,0.3
				c-5.1,3.1-18,8.9-30,9.3C84-70,54-85.2,50.9-86.9l-0.3-0.4c-0.8-1.8-5.3-12.4-6.3-14.6C66-87.6,83.9-79.7,97.7-78.6
				C112.9-77.2,124.8-85.6,129.8-89.1L129.8-89.1L129.8-89.1z M95.9-108.9c-3.8,0-6.9-2-6.9-4.6c0-2.5,3-4.6,6.9-4.6s6.9,2,6.9,4.6
				C102.8-111,99.7-108.9,95.9-108.9 M93.4-125.7c-4.1-0.1-8.1,1.3-11.1,4.1c-3,2.8-4.8,6.6-4.9,10.8c-0.3,8.5,6.4,15.8,14.9,16
				c4.1,0.1,8.1-1.4,11.1-4.1c3-2.9,4.8-6.6,4.9-10.8C108.5-118.4,101.9-125.5,93.4-125.7z"/>
		</g>
		<g id="g24" transform="translate(133.9789,60.2888)">
			<path id="path26" inkscape:connector-curvature="0" class="st0" d="M38.5,119.5c-9.8,0-15.1,8.3-15.1,13.9v7.3
				c0,8.4,6.9,13.6,13.3,13.6H59c2.8,0,3.4,1.9,3.4,3.4v4.8c0,0.5-0.1,5-3.4,5H28.5c-3,0-5.3,2.1-5.3,5v1.3c0,2.9,2.1,5,5.3,5h32
				c8.4,0,13.8-5.9,13.8-14.9V156c0-8.5-6.1-12.3-12.1-12.3h-22c-3.3,0-4.8-2.5-4.8-4.3V135c0-2.8,1.9-4.4,5-4.4h24.3
				c3,0,5.3-2.1,5.3-5v-1.3c0-2.9-2.3-5-5.4-5H38.5V119.5z"/>
		</g>
		<g id="g28" transform="translate(206.8412,60.2888)">
			<path id="path30" inkscape:connector-curvature="0" class="st0" d="M56.7,119.5c-2.9,0-5.3,2.4-5.3,5.3V162c0,3-2.5,5.4-5.4,5.4
				H29.2c-3,0-5.4-2.4-5.4-5.4v-37.3c0-2.9-2.4-5.3-5.3-5.3H17c-2.9,0-5.3,2.4-5.3,5.3v38.8c0,9,7.1,15.5,16.9,15.5h18.1
				c9.8,0,16.9-6.5,16.9-15.5v-38.8c0-2.9-2.3-5.3-5.3-5.3C58.3,119.5,56.7,119.5,56.7,119.5z"/>
		</g>
		<g id="g32" transform="translate(232.7736,60.2888)">
			<path id="path34" inkscape:connector-curvature="0" class="st0" d="M63.2,119.5c-9.8,0-15.1,8.3-15.1,13.9v7.3
				c0,8.4,6.9,13.6,13.3,13.6h22.2c2.8,0,3.4,1.9,3.4,3.4v4.8c0,0.5-0.1,5-3.4,5H53.2c-3,0-5.3,2.1-5.3,5v1.3c0,2.9,2.3,5,5.3,5h32
				c8.4,0,13.8-5.9,13.8-14.9V156c0-8.5-6.1-12.3-12.1-12.3h-22c-3.3,0-4.8-2.5-4.8-4.3V135c0-2.8,1.9-4.4,5-4.4h24.3
				c3,0,5.3-2.1,5.3-5v-1.3c0-2.9-2.3-5-5.4-5H63.2V119.5z"/>
		</g>
		<g id="g36" transform="translate(273.7386,60.2888)">
			<path id="path38" inkscape:connector-curvature="0" class="st0" d="M73.4,119.5c-2.9,0-5.1,2.1-5.1,5v49.3c0,2.9,2.1,5,5,5h39.3
				c3,0,5.3-2.1,5.3-5v-1.3c0-2.9-2.1-5-5.3-5H80.4V155h23.5c3,0,5.3-2.1,5.3-5v-1.3c0-2.9-2.3-5-5.3-5H80.4v-12.9h30.5
				c3,0,5.3-2.1,5.3-5v-1.3c0-2.9-2.3-5-5.3-5H73.4L73.4,119.5z"/>
		</g>
		<g id="g40" transform="translate(5.0529,20.4885)">
			<path id="path42" inkscape:connector-curvature="0" class="st0" d="M6.3,209v-16.9c0-2,1.6-3.6,3.6-3.6h9.4c2,0,3.6,1.6,3.6,3.6
				V209c0,2-1.6,3.6-3.6,3.6H9.8C7.8,212.7,6.3,211.2,6.3,209 M8.9,182.8c-4.9,0-8.9,3.9-8.9,8.5v18.5c0,4.8,3.9,8.8,8.6,8.8h12
				c4.8,0,8.6-3.9,8.6-8.8v-18.5c0-4.8-4-8.5-8.9-8.5H8.9L8.9,182.8z"/>
		</g>
		<g id="g44" transform="translate(35.5085,20.7779)">
			<path id="path46" inkscape:connector-curvature="0" class="st0" d="M13.9,208.4v-16.3c0-2.3,1.8-4,4-4h8.8c2.3,0,4,1.8,4,4v16.3
				c0,2.3-1.8,4-4,4h-8.8C15.6,212.4,13.9,210.6,13.9,208.4z M25.9,182.3c-3.5,0-6.1,1.3-8.1,2.3c-1.3,0.6-2.4,1.1-3.3,1.1
				c-0.4,0-0.8-0.1-0.9-0.5l-0.9-1.5c-0.3-0.4-1-1.1-2-1.1H9.6c-1.1,0-2,1-2,2.3v47c0,1.5,1.1,2.6,2.6,2.6h1c1.5,0,2.6-1.1,2.6-2.6
				v-15.6c0-0.5,0.3-1,0.6-1c0.9,0,2,0.5,3.3,1.1c2.1,1,4.8,2.1,8.1,2.1H27c6.1,0,9.9-3.5,9.9-9.1v-17.9c0-5.5-3.9-9.1-9.9-9.1h-1.1
				V182.3z"/>
		</g>
		<g id="g48" transform="translate(66.0714,34.088)">
			<path id="path50" inkscape:connector-curvature="0" class="st0" d="M21.5,178.4c0-1.9,1.6-3.5,3.5-3.5h9.6c2,0,3.5,1.5,3.5,3.5
				v5.8H21.5C21.5,183.4,21.5,178.4,21.5,178.4z M24.1,169.2c-5,0-8.9,3.8-8.9,8.5v18.4c0,4.8,3.9,8.9,8.5,8.9h12.4
				c1.5,0,2.6-1,2.6-2.5v-0.8c0-1.5-1.1-2.5-2.6-2.5H25.9c-2.9,0-4.4-1.4-4.4-4.1v-5.4h18.4c3,0,4.8-1.8,4.8-4.9v-7.1
				c0-4.8-4-8.5-8.9-8.5L24.1,169.2L24.1,169.2z"/>
		</g>
		<g id="g52" transform="translate(104.8947,41.74)">
			<path id="path54" inkscape:connector-curvature="0" class="st0" d="M31.2,161.2c-3.5,0-6,1.3-8.1,2.3c-1.3,0.6-2.4,1.1-3.4,1.1
				c-0.4,0-0.6,0-0.9-0.6l-0.8-1.3c-0.4-0.9-1.1-1.3-2.1-1.3h-1c-1.3,0-2.1,1-2.1,2.3v30.9c0,1.5,1.1,2.6,2.6,2.6h1
				c1.5,0,2.6-1.3,2.6-2.6v-23.4c0-2.3,1.7-4,4-4h8.8c2.3,0,4,1.8,4,4v23.4c0,1.5,1.1,2.6,2.6,2.6h1c1.5,0,2.6-1.3,2.6-2.6v-24.3
				c0-5.5-3.9-9.1-10-9.1C32.1,161.2,31.2,161.2,31.2,161.2z"/>
		</g>
	</g>
</g>
</svg>
