<?xml version="1.0" encoding="utf-8"?>
<!-- Generator: Adobe Illustrator 22.0.1, SVG Export Plug-In . SVG Version: 6.00 Build 0)  -->
<svg version="1.1" id="图层_1" xmlns="http://www.w3.org/2000/svg" xmlns:xlink="http://www.w3.org/1999/xlink" x="0px" y="0px"
	 viewBox="0 0 500 160" style="enable-background:new 0 0 500 160;" xml:space="preserve">
<style type="text/css">
	.st0{fill:#ADABAC;}
	.st1{fill:#FFFFFF;}
</style>
<path class="st0" d="M107.5,35.8c-0.1-0.7-0.7-1.1-1.2-1.1s-11.2-0.8-11.2-0.8s-7.4-7.4-8.3-8.2c-0.8-0.8-2.4-0.6-3-0.4
	c-0.1,0-1.6,0.5-4.2,1.3c-2.5-7.3-6.9-13.9-14.6-13.9h-0.7c-2.2-2.7-5-4-7.3-4c-18,0-26.6,22.5-29.3,33.9c-7,2.2-12,3.7-12.6,3.9
	c-3.9,1.2-4,1.3-4.5,5C10.2,54.3,0,133.3,0,133.3l79.5,14.9l43.1-9.3C122.7,138.7,107.6,36.5,107.5,35.8z M75.2,27.8
	c-2,0.6-4.3,1.3-6.7,2.1v-1.5c0-4.4-0.6-8-1.6-10.9C70.9,18.1,73.4,22.6,75.2,27.8L75.2,27.8z M61.8,18.5c1.1,2.8,1.8,6.7,1.8,12.1
	v0.8c-4.4,1.4-9.1,2.8-13.9,4.3C52.4,25.4,57.6,20.4,61.8,18.5L61.8,18.5z M56.6,13.4c0.8,0,1.6,0.3,2.3,0.8
	c-5.8,2.7-11.9,9.5-14.5,23.2c-3.8,1.2-7.5,2.3-11,3.4C36.4,30.4,43.7,13.4,56.6,13.4z"/>
<path class="st1" d="M106.1,34.6c-0.5,0-11.2-0.8-11.2-0.8s-7.4-7.4-8.3-8.2c-0.3-0.3-0.7-0.5-1.1-0.5l-6,123l43.1-9.3
	c0,0-15.1-102.3-15.2-103C107.1,35.1,106.6,34.7,106.1,34.6z"/>
<path class="st0" d="M108.1,34.6c-0.5,0-11.2-0.8-11.2-0.8s-7.4-7.4-8.3-8.2c-0.3-0.3-0.7-0.5-1.1-0.5l-6,123l43.1-9.3
	c0,0-15.1-102.3-15.2-103C109.1,35.1,108.6,34.7,108.1,34.6z"/>
<path class="st1" d="M64.9,58.4l-5.2,15.8c0,0-4.7-2.5-10.4-2.5c-8.4,0-8.8,5.3-8.8,6.6c0,7.2,18.8,10,18.8,26.9
	c0,13.3-8.4,21.9-19.8,21.9c-13.7,0-20.6-8.5-20.6-8.5l3.7-12.1c0,0,7.2,6.2,13.2,6.2c4,0,5.6-3.1,5.6-5.4C41.4,97.9,26,97.5,26,82
	c0-13,9.3-25.6,28.2-25.6C61.3,56.3,64.9,58.4,64.9,58.4z"/>
<path class="st0" d="M172.9,88.1c-4.3-2.3-6.5-4.3-6.5-7c0-3.4,3.1-5.6,7.9-5.6c5.6,0,10.6,2.3,10.6,2.3l3.9-12
	c0,0-3.6-2.8-14.2-2.8c-14.8,0-25.1,8.5-25.1,20.4c0,6.8,4.8,11.9,11.2,15.6c5.2,2.9,7,5,7,8.1c0,3.2-2.6,5.8-7.4,5.8
	c-7.1,0-13.9-3.7-13.9-3.7l-4.2,12c0,0,6.2,4.2,16.7,4.2c15.2,0,26.2-7.5,26.2-21C185,97,179.5,91.9,172.9,88.1z M233.5,62.8
	c-7.5,0-13.4,3.6-17.9,9l-0.2-0.1l6.5-34H205l-16.5,86.6h16.9l5.6-29.6c2.2-11.2,8-18.1,13.4-18.1c3.8,0,5.3,2.6,5.3,6.3
	c0,2.3-0.2,5.2-0.7,7.5l-6.4,33.9h16.9l6.6-35c0.7-3.7,1.2-8.1,1.2-11.1C247.4,68.5,242.4,62.8,233.5,62.8L233.5,62.8z M285.7,62.8
	c-20.4,0-33.9,18.4-33.9,38.9c0,13.1,8.1,23.7,23.3,23.7c20,0,33.5-17.9,33.5-38.9C308.7,74.3,301.7,62.8,285.7,62.8z M277.4,112.4
	c-5.8,0-8.2-4.9-8.2-11.1c0-9.7,5-25.5,14.2-25.5c6,0,8,5.2,8,10.2C291.5,96.4,286.3,112.4,277.4,112.4L277.4,112.4z M352,62.8
	c-11.4,0-17.9,10.1-17.9,10.1h-0.2l1-9.1h-15c-0.7,6.1-2.1,15.5-3.4,22.5l-11.7,62h16.9l4.7-25.1h0.4c0,0,3.5,2.2,9.9,2.2
	c19.9,0,32.9-20.4,32.9-41C369.5,73,364.4,62.8,352,62.8z M335.8,112.6c-4.4,0-7-2.5-7-2.5l2.8-15.8c2-10.6,7.5-17.6,13.4-17.6
	c5.2,0,6.8,4.8,6.8,9.3C351.8,97,345.3,112.6,335.8,112.6L335.8,112.6z M393.7,38.5c-5.4,0-9.7,4.3-9.7,9.8c0,5,3.2,8.5,8,8.5h0.2
	c5.3,0,9.8-3.6,9.9-9.8C402.1,42,398.8,38.5,393.7,38.5z M370,124.2h16.9l11.4-60.1h-17 M441.5,64h-11.8l0.6-2.8
	c1-5.8,4.4-10.9,10.1-10.9c3,0,5.4,0.9,5.4,0.9l3.3-13.3c0,0-2.9-1.5-9.2-1.5c-6,0-12,1.7-16.6,5.6c-5.8,4.9-8.5,12-9.8,19.2L413,64
	h-7.9l-2.5,12.8h7.9l-9,47.4h16.9l9-47.4h11.7L441.5,64L441.5,64z M482.3,64.1c0,0-10.6,26.7-15.3,41.3h-0.2
	c-0.3-4.7-4.2-41.3-4.2-41.3h-17.8l10.2,55.1c0.2,1.2,0.1,2-0.4,2.8c-2,3.8-5.3,7.5-9.2,10.2c-3.2,2.3-6.8,3.8-9.6,4.8l4.7,14.4
	c3.4-0.7,10.6-3.6,16.6-9.2c7.7-7.2,14.9-18.4,22.2-33.6L500,64L482.3,64.1L482.3,64.1z"/>
</svg>
