<?xml version="1.0" encoding="utf-8"?>
<!-- Generator: Adobe Illustrator 22.0.1, SVG Export Plug-In . SVG Version: 6.00 Build 0)  -->
<svg version="1.1"
	 id="svg2" xmlns:cc="http://creativecommons.org/ns#" xmlns:dc="http://purl.org/dc/elements/1.1/" xmlns:rdf="http://www.w3.org/1999/02/22-rdf-syntax-ns#" xmlns:svg="http://www.w3.org/2000/svg"
	 xmlns="http://www.w3.org/2000/svg" xmlns:xlink="http://www.w3.org/1999/xlink" x="0px" y="0px" viewBox="0 0 500 160"
	 style="enable-background:new 0 0 500 160;" xml:space="preserve">
<style type="text/css">
	.st0{fill:#ADABAC;}
</style>
<g id="g10" transform="matrix(1.3333333,0,0,-1.3333333,0,50.666667)">
	<g id="g12" transform="scale(0.1)">
		<path id="path14" class="st0" d="M2302.4-255.1c-5.8,1.1-25.4,4.7-31.2,5.9c-30.9,6.1-57.4,14.1-57.4,48.4
			c0,29.4,28,43.1,62.9,43.1c51.9,0,97.4-25.9,102.6-28.7l28.4,82.6c-10.9,6.3-57.2,33.5-130.1,33.5c-66.8,0-148.3-38.6-148.3-134.6
			c0-85.9,55.8-113.5,109.5-123.9c7.4-1.5,30.8-5.9,37.4-7.2c36.2-6.7,56-21.6,56-47.6c0-33.1-28.2-48.6-70.9-48.6
			c-68.4,0-108.5,22.4-120.1,27.7l-31.5-80.8c9.8-5.6,56.5-34.5,147.5-34.5c88.4,0,159.3,48.2,159.3,137.9
			C2415.9-298.6,2365-267,2302.4-255.1"/>
		<path id="path16" class="st0" d="M2572.3,80l-83.6-50.9V-78.8h-44v-88.1h44v-190.4c0-81.3,30.4-154.4,137.5-154.4h33.5v88.1H2647
			c-52.6,0-74.8,33.4-74.8,78.9V-167h96.1v88.1h-96.1V80"/>
		<path id="path18" class="st0" d="M3225.7-160c32.7,0,66.1-16.3,76.1-55.9l75.9,31.8c-21.3,82.7-91,113.6-152.6,113.6
			c-110.3,0-154.8-75.4-154.8-148.7v-152.1c0-73.3,44.5-148.8,154.8-148.8c61.6,0,131.4,31,152.6,113.7l-75.9,31.8
			c-10-39.5-43.5-55.9-76.1-55.9c-56.8,0-71.9,34.3-71.9,73.3v124C3153.8-194.2,3168.9-160,3225.7-160"/>
		<path id="path20" class="st0" d="M3583.4-273.2l156.4,194.4h-102.9l-134.5-169.4V80h-83.7v-591.6h83.7v137.7l27.5,34.1
			l119.8-171.9H3750L3583.4-273.2"/>
		<path id="path22" class="st0" d="M2902.3-173.3h-87c-13.8,0-25.1-12.4-25.1-27.5v-103.9h-85.8v103.9c0,67.4,49.6,122,110.8,122h87
			v-94.5"/>
		<path id="path24" class="st0" d="M2831.5-417.2h87c13.8,0,25,12.4,25,27.6v103.9h85.8v-103.9c0-67.4-49.6-122-110.8-122h-87
			V-417.2"/>
		<path id="path26" class="st0" d="M1413.1-78.8h96v-88.1h-96v-177.7c0-45.4,22.1-78.9,74.7-78.9h12.6v-88.1h-33.5
			c-107.1,0-137.4,73-137.4,154.4v190.4h-140.8v-177.7c0-45.4,22.1-78.9,74.7-78.9h12.5v-88.1h-33.5c-107.1,0-137.4,73-137.4,154.4
			v190.4h-42.4v88.1h42.4V29.1l83.7,50.9V-78.8h140.8V29.1l83.6,50.9L1413.1-78.8"/>
		<path id="path28" class="st0" d="M510.2-70.4c-26.5,0-53.3-5.6-77.5-16.9V80H349v-591.6h83.7v338.2c16.8,11.6,41,18.6,64.6,18.6
			c52.6,0,77.3-32.2,77.3-79.6v-277.1h83.6v289.7C658.2-134.6,600.8-70.4,510.2-70.4"/>
		<path id="path30" class="st0" d="M934.1-425.5c-15.9-9.4-36-14.9-56-14.9c-62.4,0-85.9,35-85.9,83.3v278.3h-83.6v-280
			c0-108.8,57.1-161.2,159.2-161.2c48.9,0,103.1,13.6,150,36v405.2h-83.6v-346.7"/>
		<path id="path32" class="st0" d="M192.6-255.1c-5.8,1.1-25.4,4.7-31.2,5.9c-30.9,6.1-57.4,14.1-57.4,48.4
			c0,29.4,28,43.1,62.9,43.1c51.9,0,97.4-25.9,102.6-28.7l28.4,82.6c-10.9,6.3-57.2,33.5-130.2,33.5c-66.7,0-148.3-38.6-148.3-134.6
			C19.5-291,75.2-318.6,129-329c7.4-1.5,30.8-5.9,37.5-7.2c36.1-6.7,55.9-21.6,55.9-47.6c0-33.1-28.1-48.6-70.8-48.6
			c-68.4,0-108.5,22.4-120.1,27.7L0-485.5C9.8-491,56.5-520,147.6-520c88.4,0,159.3,48.2,159.3,137.9
			C306.1-298.6,255.1-267,192.6-255.1"/>
		<path id="path34" class="st0" d="M1771.4-262.4h-141v31.5c0,35.1,16,72.8,71,72.8c53,0,70.1-36.7,70.1-71.1L1771.4-262.4
			L1771.4-262.4z M1855-219.1c0,79.2-54.8,148.8-153.3,148.8c-111.9,0-154.8-76.9-154.8-148.8v-143.7c0-99.4,57.7-157.1,154.8-157.1
			c85.6,0,130.1,54.5,143.3,87.3l-70.6,46.7c-6-19.2-34-46.2-72.1-46.2c-51.7,0-71.6,31.8-71.6,71.6l-0.3,23.7H1855V-219.1"/>
		<path id="path36" class="st0" d="M1908.5-219.3v-292.3h83.6v284.4c0,24.8,12.8,67.3,74.2,67.3c9.6,0,31.4-3,38.4-4.5v89.3
			c-7.5,2-24.8,4.7-42.7,4.7C1955.7-70.4,1908.5-143.8,1908.5-219.3"/>
	</g>
</g>
</svg>
