<?xml version="1.0" encoding="utf-8"?>
<!-- Generator: Adobe Illustrator 22.0.0, SVG Export Plug-In . SVG Version: 6.00 Build 0)  -->
<svg version="1.1" id="图层_1" xmlns="http://www.w3.org/2000/svg" xmlns:xlink="http://www.w3.org/1999/xlink" x="0px" y="0px"
	 viewBox="0 0 470 140" style="enable-background:new 0 0 470 140;" xml:space="preserve">
<g id="_x23_ffffffff">
</g>
<g id="_x23_000000ff">
	<path d="M71.5,30.6c-0.6-1.7-1.6-4.3,0.5-5.3c6.2-1.2,12.5-0.8,18.7-0.1c0.7,3.9,0.5,7.8,0.6,11.8c0,12.5,0,24.9,0,37.4
		c4.7,0.2,9.5-0.3,14.2,0.3c2.7,0.5,2.4,3.6,2,5.6c-11.1,1-22.4,0.5-33.6,0.5c-1.7-0.2-4.4,0.4-4.9-1.8c-1-1.5-0.2-3.8,1.6-4.1
		c4.4-0.9,9-0.4,13.5-0.5c0.1-14.3,0-28.6,0-42.9C80,31.3,75.7,31.2,71.5,30.6z"/>
	<path d="M214.1,25.4c4.4-1.2,9-0.7,13.4-0.1c0.6,10.3,0.3,20.6,0.7,30.9c3.6-2.9,7.3-5.8,10.7-9c-1.2-1.5-3.1-4.4-0.5-5.6
		c5-0.8,10.2-0.5,15.3-0.2c2.6-0.2,3.1,3.2,1.6,4.7c-1.2,0.6-2.5,0.9-3.8,1.2c-6,1.2-10.5,5.8-14.7,9.9c5.3,5.7,10.4,11.6,15.9,17.1
		c2.5-0.1,5,0.2,7.3,1.4c-0.2,1.9-0.2,5-2.9,5c-5.1,0.1-10.3,0.4-15.3-0.4c-2.6-2,0.1-4.7,1.7-6.3c-4.3-4.1-7.9-8.7-12.2-12.8
		c-1,1-2.2,1.9-3.1,3c-1.2,5.2,1,11.3-1.7,16.1c-3.4,0.8-7,0.6-10.5,0.4c-1.7-0.2-2.7-2.1-2.6-3.7c1-3.2,5-2.3,7.5-2.9
		c0-14.3,0-28.5,0-42.8c-1.9-0.3-3.9-0.4-5.8-0.9C212.9,29.9,213,27,214.1,25.4z"/>
	<path d="M28.2,43.2c6.5-4.3,14.6-3.1,21.8-1.8c2.6,0.7,6.3-2.8,8.1,0.3c0.7,3.3,0.6,6.7,0.2,10c-0.1,1.4-1.5,2.1-2.4,3
		c-3.9-2.2-6.5-6.3-10.8-7.8c-3.4-1.1-7.2-1.5-10.5,0c-2.4,0.9-4.8,3.3-3.8,6.1c0.7,2.6,3.7,3.1,6,3.4c6.7,0.9,14.1,0.1,20.1,3.7
		c6.5,4.6,5.2,15.5-1.5,19.3c-6.9,3.8-15.1,2.4-22.5,1.2c-3-0.6-6.2,2.8-8.8,0.3c-1-4.2-0.9-8.6-0.4-12.9c1.5-3,5-1.1,6.1,1.2
		c2.8,4.9,8.7,6.8,14.1,6.6c3.4,0.2,7.1-0.9,9.1-3.9c1.6-2.6,0-6.5-3.1-6.9c-7.2-1.6-15.4,0.2-21.9-4.1C22.1,57,22.2,47,28.2,43.2z"
		/>
	<path d="M119.9,43.9c5.2-3.7,12.1-3.8,18.2-3.7c6,0.2,12.2,4.4,12.8,10.7c0.6,7.8,0.3,15.6,0.4,23.4c2.4,0.4,6.4-0.4,7.3,2.7
		c0.2,1.6-0.7,3.7-2.5,3.7c-3.3,0.3-7,0.7-10.1-0.6c-0.7-1.3-1.1-2.6-1.6-4c-6.4,5.2-15.8,7.6-23.5,4c-7.9-3.7-9.1-16.2-1.9-21.3
		c7.3-5.3,17-4.5,25.4-3.1c-0.3-3.5-1.9-7.4-5.5-8.6c-5.5-1.7-10.7,1.1-15.9,2.5C119.7,51.1,117.1,46,119.9,43.9 M123.3,64.3
		c-4,3.4-0.7,9.5,3.8,10.3c5.6,0.6,11.6-1,15.6-5c2-2,1.5-5,1.7-7.6C137.5,60.2,129.2,59.5,123.3,64.3z"/>
	<path d="M181.4,40.7c6-1.5,12,0,17.6,2.1c2.5-0.5,4.8-3.4,7.4-1.4c1.5,4,1.2,8.4,1,12.6c0.3,3-4,4.7-5.8,2.4
		c-2.4-2.6-4.2-5.9-7.4-7.7c-7.7-4-18.8,0.6-20.5,9.3c-1.6,6.6,2.3,14.1,8.9,16.2c5.8,2.2,12.2,0.1,16.9-3.6c2-1.2,4.3-3.2,6.8-2
		c2.4,1.8,0.7,5.1-1.1,6.7c-6.6,5.9-16.1,7.6-24.5,5.8c-9.5-2.4-16.5-12.2-15.3-22C166,50.3,172.9,42.6,181.4,40.7z"/>
	<path d="M332.7,41.8c5.8-1.6,12-2.4,17.9-1c4.8,1.1,8.8,5.1,9.3,10c1,7.8,0.4,15.6,0.5,23.5c2.3,0.3,5-0.1,6.8,1.6
		c0.3,1.6,0.6,4.1-1.4,4.6c-3.2,0.7-6.6,0.7-9.8,0.1c-2-0.4-2-3-2.8-4.5c-6.3,5.4-15.7,7.6-23.4,4c-7.9-3.7-9-16.2-2-21.3
		c7.3-5.3,17-4.3,25.5-3.1c-0.5-3.2-1.6-6.8-4.8-8.2c-5.3-2-10.8,0.3-15.8,2.1c-2,1-5.3,0-5-2.6C327.5,44.2,330.3,42.5,332.7,41.8
		 M331,66.1c-1.8,4,2,8.4,6,8.6c5.3,0.3,10.9-1.2,14.7-5.1c2-2,1.6-5,1.7-7.6c-4-0.9-8.2-2-12.3-1.2C337.3,61.4,332.9,62.5,331,66.1
		z"/>
	<path d="M391.5,49.5c5.1-5.3,11.8-10.4,19.6-9.2c4-0.3,8.9,4,6.1,8c-2.1,2.9-5.6,0.6-8.3-0.1c-5.4-1.8-10.5,2.1-14.1,5.7
		c-1.3,1.6-3.7,2.8-3.5,5.1c0,5.1,0,10.3,0,15.4c5.8,0.3,11.7-0.4,17.4,0.9c0.1,1.7,0,3.4-0.3,5.1c-10.5,1.1-21.1,0.6-31.6,0.4
		c-2.9,0.4-4.3-3.3-2.6-5.4c3.4-1.2,7-0.8,10.5-1c0-9-0.1-17.9,0-26.9c-2.8-0.1-5.8,0.3-8.5-0.8c-1.3-1.5-0.4-3.5,0.1-5.1
		c4.9-0.4,9.9-0.5,14.9,0.1C391.4,44.2,391.4,46.9,391.5,49.5z"/>
	<path d="M426.3,48.3c8.3-10.4,25.8-11.3,35-1.6c3.9,3.9,5.6,9.8,4.4,15.1c-2.7,1.3-5.8,0.8-8.7,1c-8.9,0.3-17.9-0.3-26.8,0.5
		c0.7,4,2.6,8.2,6.5,10c6.7,3.7,14.7,1.2,21.2-1.6c2.4-0.8,5.5-2.7,7.6-0.3c1.4,2.2-0.3,4.7-2.4,5.5c-7.4,3.7-15.9,5.5-24.1,4.4
		c-8-1.1-15.1-7.5-16.3-15.6C421.8,59.9,422.5,53.2,426.3,48.3 M430.4,57.1c9.1,0,18.3,0.3,27.4-0.3c-1.4-7-8.8-11.9-15.7-10.2
		C436.4,47.3,432.1,51.9,430.4,57.1z"/>
	<path d="M264.4,41.4c6-0.3,12.1-0.7,18,0.4c0,1.6-0.1,3.3-0.3,4.9c-2.5,0.5-5,0.7-7.5,0.8c1.9,8,4.4,15.9,7,23.7
		c2.1-5.9,3.5-12,5.8-17.7c1-3,5.9-2.8,7,0c2.4,5.8,3.4,12.1,6.2,17.7c2.1-7.8,4.2-15.7,6.6-23.4c-2.4-0.4-4.9-0.3-7.1-1.2
		c-1.4-1.6-1-5.4,1.7-5.2c5.2-0.3,10.4-0.4,15.6,0.2c0.1,1.6,0.6,3.3,0,4.8c-1,0.5-1.9,0.9-2.9,1.3c-4.2,10.6-6.6,21.9-10.5,32.6
		c-0.8,2-3.2,2.4-5.1,2c-1.8-0.8-2.3-2.8-2.9-4.4c-1.9-5.6-3.4-11.3-5-17c-2.8,6.4-3.8,13.5-6.4,20c-0.8,1.8-3.2,1.8-4.8,1.5
		c-1.9-0.9-2.3-3.1-3.1-4.9c-3.3-9.8-6.2-19.8-9.5-29.5c-1.1-0.4-2.1-0.8-3.2-1.2C262.8,45,263.9,43.1,264.4,41.4z"/>
	<path d="M4.3,73.4c0.6,0,1.8-0.1,2.4-0.1c0.4,10.3,0.1,20.7,0.1,31c87.1,0,174.1,0,261.1,0c2.3,0.1,6.6-1,5.6,2.9
		c-89.9,0-179.7,0-269.6,0C4.2,96,3.6,84.6,4.3,73.4z"/>
	<path d="M322,97.9c0.1-1.1,0.5-2.7,2-2.5c2-0.2,1.9,2.3,2.3,3.6C324.9,98.7,322.7,99.7,322,97.9z"/>
	<path d="M277.7,96.9c2.7-1.4,5.7-1.3,8.7-1.3c0,5.3-0.1,10.7,0,16c1.6,0.1,3.2,0.2,4.8,0.3c0.2,0.6,0.6,1.7,0.8,2.3
		c-4.8,1.1-10.1,1.3-14.8-0.1c-0.6-3.2,3.8-2.1,5.7-2.4c0.1-4.1,0-8.2,0.1-12.3C281,99.1,278.9,98.7,277.7,96.9z"/>
	<path d="M319.1,102.3c2.3-1.3,5.1-0.6,7.7-0.9c0.1,3.4,0.1,6.8,0,10.3c2.4,0.1,5.8-0.3,5.5,3.1c-4.6,0.3-9.3,0.6-13.9-0.2
		c-0.2-0.4-0.7-1.1-0.9-1.5c1.4-1.9,4-1.1,6.1-1.4c0-2.2,0-4.5,0-6.7C321.7,104.6,318.3,105.2,319.1,102.3z"/>
	<path d="M358.3,102.9c-0.2-2.6,3.2-1.3,4.6-0.9c3.3-1.1,8.1-1.5,9.6,2.4c0.3,3.5,0.3,7,2.1,10.2c-2.5,0.5-5,0.5-7.4-0.1
		c2.2-3,3.3-7,1.1-10.4c-1.8,0.7-5.1,0.3-5.3,2.9c-0.9,2.8,1,5.2,2.1,7.6c-2.6,0.5-5.3,0.6-7.9-0.1c0.7-1.2,1.5-2.4,2.3-3.5
		C359.8,108.2,359.5,105.4,358.3,102.9z"/>
	<path d="M397.2,102.8c1.8-1.5,4.1-1.4,6.3-1.3c0,3.3-0.3,6.6,0.3,9.9c1.8,1.5,4.2,0.7,5.7-0.8c0.9-1.8,0.5-3.9,0.6-5.8
		c-1.4-0.6-2.7-1.1-4-1.7c2-1.9,4.8-1.5,7.3-1.5c0,3.2-0.1,6.5,0.1,9.7c0.7,1,1.5,2.1,1.3,3.5c-1.9,0.5-3.9,0.2-5.8-0.2
		c-2.2,1-5,1.4-7-0.4c-2.7-2.1-1.3-6-2.2-8.8C398.9,104.4,398.1,103.6,397.2,102.8z"/>
	<path d="M439.4,103.1c0.6-2.5,4.1-1.2,6.1-1.7c0.5,1.7,1.1,3.3,1.7,4.9c1.2-1.4,1.8-3.1,2.4-4.8c2,0.3,5-0.9,6.1,1.4
		c-1.7,2-4,3.3-6,5c2.1,2.2,6,3.3,6.3,6.8c-2.5,0.2-5.1,0.2-7.6-0.1c0.3-1,0.7-2,1-2.9c-0.7-0.4-2.1-1.3-2.8-1.8
		c-0.4,1.6-0.6,3.2-1,4.9c-2.5,0.4-5.1,0.3-7.4-0.7c2-2.4,4.5-4.2,6.8-6.2C443.3,106.3,440.8,105.2,439.4,103.1z"/>
</g>
</svg>
