<?xml version="1.0" encoding="utf-8"?>
<!-- Generator: Adobe Illustrator 22.0.0, SVG Export Plug-In . SVG Version: 6.00 Build 0)  -->
<svg version="1.1" id="图层_1" xmlns="http://www.w3.org/2000/svg" xmlns:xlink="http://www.w3.org/1999/xlink" x="0px" y="0px"
	 viewBox="0 0 1260 470" style="enable-background:new 0 0 1260 470;" xml:space="preserve">
<style type="text/css">
	.st0{fill:#4C5263;}
	.st1{fill:#5294E2;}
</style>
<g id="_x23_4c5263ff">
	<path class="st0" d="M146.5,0.5h0.4c7.7,6.2,12.6,15,18.4,22.9c28.7-8.4,59.1-10.8,88.8-7.3c34.3,3.9,67.6,16,96.5,35
		c42,27.3,74.4,68.9,90.6,116.2c7.8,22.6,12,46.5,12.4,70.4c0.1,1.6-0.2,3.3,0.4,4.8c4.7,4.4,9.3,9.1,13.8,13.8
		c-5,10.1-10.2,20.1-16.7,29.3c-0.8,1.2-1.8,2.3-2.2,3.6c-11.9,15.6-26.9,28.5-43.5,38.8c-21.1,13.1-44.5,22.1-68.4,28.8
		c-22.9,6.4-46.5,10.5-70.1,13.4c-75,8.6-150.7,5.3-225.7-1l0.1,1.2c-6.9-10.7-13.4-21.7-18.6-33.4c-0.6-1-0.7-2.6-2-2.8
		c-6.5-1.4-12.9-3.5-18.6-6.9v-0.1c2.9-5.9,6-11.6,9.2-17.3c1.1-1.3,0.1-2.9-0.2-4.3c-5.7-19.3-8.4-39.3-9-59.3v-8.4
		c0.5-16.5,2.4-33,6.3-49.1c8.5-35.9,26-69.7,50.4-97.4c21.2-24.2,47.7-43.8,77-57C139.6,23.1,143.2,11.8,146.5,0.5 M153.5,32.6
		c-7.3,31-18.7,60.9-30.9,90.2c-28.4,66.8-63.8,130.3-99.3,193.5c10.4,2.7,20.9,5.1,31.4,7.7c7.5,2.1,15.4,2.4,23,3.7
		c53.5,6.7,107.2,11.8,160.8,17.1c-4.7-66.3-9-132.6-14.1-198.9c-5.5-10-11.2-19.8-17.2-29.5c-16.6-26.9-35.2-52.5-50.9-80
		C155.3,35.3,154.9,33.4,153.5,32.6 M242.1,153.4c22.8,47.8,33.4,102.5,23.9,155c-2,12.5-5.9,24.6-9.8,36.6
		c18.9,0.1,38,0.6,56.8-1.9c23-2.7,45.5-9.2,66.3-19.4l-0.2-0.9c-21.7-48.5-55.3-90.6-92.2-128.3C272.7,180.1,258,166.1,242.1,153.4
		 M309.1,195.7c15.7,10.8,31.8,21,46.3,33.4c9.6,8.1,18.3,17.3,24.8,28.2c10.7,17.5,15.6,38.6,13.4,59c24.4-12,43.6-33,56.4-56.7
		c-17.2-15.6-38.1-26.4-59.1-36C364.5,212.1,336.9,203.6,309.1,195.7z"/>
	<path class="st0" d="M892.1,98.8c6.1,0.2,12.3-0.3,18.3,0.3c-0.2,81.1,0,162.2-0.1,243.4c-6.2,0-12.3,0-18.5,0
		c0-79.7,0-159.3,0-239C892,101.9,891.6,100.3,892.1,98.8z"/>
	<path class="st0" d="M540.8,127.2c14.4-10.6,32.6-15,50.2-15.3c17.2-0.6,35,2.5,49.8,11.8c16.3,10.1,28.8,27.3,30.5,46.7
		c0,3.1,1.1,6.6-0.2,9.5c-5.7,0-11.3,0-17,0c0.1-13.3-4.9-26.7-14.6-35.9c-9.8-9.9-23.6-14.9-37.3-15.9c-14-0.9-28.6,0.2-41.4,6.3
		c-9.5,4.6-17.8,12.3-21.8,22.3c-4.5,11.7-2.9,25.8,5,35.7c7.7,9.7,19.4,15,30.8,19.3c17.8,6.7,37,9.6,54.4,17.5
		c14.4,6.4,29,14.9,37.4,28.7c7.8,12.9,9.2,29.1,5.5,43.6c-3.4,13.2-12.9,24-24.3,31c-16.3,10.3-36,13.6-54.9,13.3
		c-21.5-0.3-43.3-6.5-60.4-19.8c-14.6-11.1-22.1-30.1-20.3-48.1c5.7,0,11.4-0.1,17.1,0.1c-0.3,13.4,4.5,27.4,15.2,35.9
		c13.1,10.4,29.9,15.4,46.4,16c14.3,0.5,29.2-1.2,42-8.1c9-4.8,17-12.3,20.3-22.2c3.9-11.7,2.5-25.4-4.8-35.6
		c-5.9-8.4-15-13.8-24.2-18c-19.9-9.2-42.1-12-62.2-20.8c-12.1-5.3-24.3-11.7-33-21.9c-10.6-12.5-13.2-30.3-9.5-46
		C522.6,145.1,530.6,134.5,540.8,127.2z"/>
	<path class="st0" d="M763.6,171.3c15.8-2.2,32.5-0.6,46.8,6.9c15.4,8.1,26.9,22.4,33.4,38.4c5.8,14.2,7.3,29.8,6.9,45
		c0,19.5-4.8,39.5-16.4,55.4c-9.1,12.9-22.8,22.8-38.3,26.5c-16.3,3.8-33.9,3-49.4-3.4c-17.1-7.2-30-22-37.1-38.9
		c-7.6-17.8-8.4-37.6-7-56.7c1.5-18.7,8.3-37.3,21-51.4C733.7,181.2,748.2,173.4,763.6,171.3 M765.6,187.2
		c-9.9,1.7-19.1,6.7-25.9,14c-11,12.1-17.1,28.1-18.5,44.2c-1.1,14.2-0.8,28.9,3.4,42.7c3.9,12.2,10.6,24.1,20.9,32
		c13,9.9,30.8,11.8,46.3,7.8c13.1-3.4,23.6-13.2,30-24.8c7-12,10.1-25.9,10.4-39.6c0.4-12.1-0.3-24.5-4.1-36.1
		c-4.3-12.9-11.7-25.3-23-33C793.6,186.7,779,184.9,765.6,187.2z"/>
	<path class="st0" d="M1153.3,182.8c9.6-7.5,21.7-11.2,33.7-12.1c11.5-0.9,23.3-0.1,34.3,3.5c10.6,3.4,20.3,10,26.9,19.1
		c5.8,7.8,8.3,17.8,7.7,27.4c-5.7,0.2-11.5,0-17.2,0.1c-0.7-1.3-0.3-2.9-0.6-4.3c-1.3-10.2-8.5-18.8-17.1-24
		c-10.8-6.3-23.9-7-36.1-5.6c-9.4,1.1-18.8,5.1-24.7,12.7c-7.7,9.1-7.8,23.7,0.1,32.7c6,6.9,15.1,9.9,23.6,12.6
		c11.4,3.4,23.2,5.3,34.4,9.4c11,4,22.1,9.1,30.2,17.8c6,6.4,8.9,15.1,9.5,23.8v4.5c-0.4,6.6-1.9,13.2-5.2,19
		c-5,8.9-13.3,15.5-22.4,19.7c-11,5.1-23.3,6.7-35.3,6.7c-11.5-0.1-23.2-1.8-33.8-6.4c-12.1-5.3-22.8-15-27.6-27.5
		c-1.8-5.3-3-11.2-1.9-16.7c5.7,0,11.3,0,17,0c0.5,9.6,4.5,19.4,12.6,25c13,8.9,29.5,11,44.8,9.1c10.7-1.3,21.4-5.9,28.1-14.6
		c4.7-5.9,6.3-14,4.5-21.3c-1.8-7.6-7.2-13.9-13.6-18.1c-7.9-5-17-7.7-26-10c-12-2.8-24-5.6-35.3-10.6c-7.9-3.6-15.8-8-21-15.1
		c-6.6-8.7-8.1-20.4-6.3-31C1138.4,198.2,1145,189.1,1153.3,182.8z"/>
	<path class="st0" d="M961,173.5c6.2,0.1,12.5-0.2,18.7,0.1c-0.1,23.9,0,47.9-0.1,71.8c0.2,14.3-0.7,28.7,1,43
		c1.4,11.7,4.7,24.4,14,32.4c7.7,6.9,18.3,9.2,28.4,8.6c12.3-0.3,25.2-3.8,34.3-12.6c6.7-6.2,11.4-14.5,13.9-23.3c0-40,0.1-80,0-120
		c6.2-0.1,12.5-0.1,18.7,0c0,56.3,0,112.6,0,168.9c-5.5-0.1-11.1,0.2-16.5-0.1c-0.3-8.9-1-17.9-1.4-26.8l-0.6,0.3
		c-7.3,13.2-19.7,23.6-34.4,27.5c-12.3,3.2-25.6,3.4-37.9-0.2c-13.7-4.1-24.9-14.8-30.4-27.9c-6.9-15.9-7.6-33.6-7.5-50.7
		C961,234.1,961,203.8,961,173.5z"/>
</g>
<g id="_x23_5294e2ff">
	<path class="st1" d="M415.3,337.7c8.1-4.6,15.7-10.1,23.6-15c-20.1,55-63.2,100.8-116.1,125.6c-28.1,13.3-59.1,20.3-90.1,21.2
		h-12.5c-64.4-2.3-127.8-33-167.6-84c5.1-0.2,10.3,0.1,15.3,0.9c4.7,0.1,9.3,0.4,13.9,1c6,0,12.1,0.4,18,1c7,0,14,0.6,20.9,1
		c9.4,0,18.8,0.4,28.2,0.7c19.9,0.8,39.9,0.1,59.9-0.7c7.4,0.3,14.7-1.1,22-1c19.9-1.5,39.8-3.3,59.4-6.5
		C334.2,374.9,376.9,360.1,415.3,337.7z"/>
</g>
</svg>
