<?xml version="1.0" encoding="utf-8"?>
<!-- Generator: Adobe Illustrator 22.0.0, SVG Export Plug-In . SVG Version: 6.00 Build 0)  -->
<svg version="1.1" id="图层_1" xmlns="http://www.w3.org/2000/svg" xmlns:xlink="http://www.w3.org/1999/xlink" x="0px" y="0px"
	 viewBox="0 0 500 150" style="enable-background:new 0 0 500 150;" xml:space="preserve">
<style type="text/css">
	.st0{fill:#DD4814;}
	.st1{fill:#FFFFFF;}
</style>
<circle class="st0" cx="469.9" cy="48.8" r="29.9"/>
<path class="st1" d="M451.3,45.2c-2,0-3.6,1.6-3.6,3.6c0,0,0,0,0,0c0,2,1.6,3.6,3.6,3.6c2,0,3.6-1.6,3.6-3.6S453.2,45.2,451.3,45.2
	C451.3,45.2,451.3,45.2,451.3,45.2z M476.9,61.5c-1.7,1-2.3,3.2-1.3,4.9c0,0,0,0,0,0c1,1.7,3.2,2.3,4.9,1.3c0,0,0,0,0,0
	c1.7-1,2.3-3.2,1.3-4.9C480.8,61.1,478.6,60.6,476.9,61.5z M459.1,48.8c0-3.6,1.8-6.7,4.5-8.6l-2.6-4.4c-3.2,2.1-5.5,5.4-6.5,9.1
	c1.2,1,1.9,2.4,1.9,3.9c0,1.6-0.7,3-1.9,3.9c1,3.7,3.3,6.9,6.5,9.1l2.6-4.4C460.7,55.4,459.1,52.2,459.1,48.8z M469.5,38.3
	c5.4,0,10,4.2,10.5,9.6l5.1-0.1c-0.2-3.8-1.9-7.4-4.6-10.1c-1.4,0.5-3,0.4-4.3-0.4c-1.3-0.8-2.2-2.1-2.5-3.6
	c-1.4-0.4-2.8-0.6-4.2-0.6c-2.5,0-4.8,0.6-6.9,1.6l2.5,4.5C466.5,38.6,468,38.3,469.5,38.3L469.5,38.3z M469.5,59.3
	c-1.5,0-3-0.3-4.4-1l-2.5,4.5c2.1,1.1,4.5,1.6,6.9,1.6c1.4,0,2.8-0.2,4.2-0.6c0.4-2.7,3-4.6,5.8-4.2c0.3,0.1,0.7,0.1,1,0.3
	c2.7-2.7,4.4-6.3,4.6-10.1l-5.1-0.1C479.5,55.1,475,59.3,469.5,59.3z M476.9,36.1c1.7,1,3.9,0.4,4.9-1.3c0,0,0,0,0,0
	c1-1.7,0.4-3.9-1.3-4.9c-1.7-1-3.9-0.4-4.9,1.3C474.6,32.9,475.2,35.1,476.9,36.1z"/>
<g>
	<path class="st0" d="M60,127.3c-3,0.8-7,1.6-12,2.4c-5,0.9-10.8,1.3-17.3,1.3c-5.7,0-10.5-0.8-14.4-2.5c-3.9-1.7-7-4-9.4-7
		c-2.4-3-4.1-6.6-5.1-10.8c-1-4.1-1.6-8.7-1.6-13.7V55.4h13.2v38.7c0,9,1.4,15.5,4.3,19.4c2.8,3.9,7.6,5.8,14.4,5.8
		c1.4,0,2.9-0.1,4.4-0.1c1.4-0.1,2.9-0.2,4.3-0.4c1.2-0.1,2.4-0.3,3.6-0.4c1.1-0.1,1.9-0.3,2.4-0.5V55.4H60L60,127.3L60,127.3
		L60,127.3z M92.3,58.6c1.6-1,4.1-2.1,7.3-3.3c3.3-1.1,7-1.7,11.3-1.7c5.3,0,10,0.9,14.2,2.8c4.1,1.9,7.6,4.6,10.5,8
		c2.8,3.4,5,7.5,6.5,12.2c1.5,4.7,2.2,10,2.2,15.7c0,6-0.9,11.4-2.6,16.2c-1.8,4.8-4.2,8.8-7.5,12.2c-3.2,3.3-7.1,5.9-11.7,7.7
		c-4.6,1.8-9.7,2.7-15.4,2.7c-6.2,0-11.6-0.4-16.4-1.3c-4.7-0.9-8.6-1.7-11.7-2.6V21.2l13.2-2.3L92.3,58.6L92.3,58.6z M92.3,117.9
		c1.3,0.4,3.2,0.7,5.6,1.1c2.4,0.3,5.4,0.5,9,0.5c7.1,0,12.8-2.4,17.1-7c4.3-4.7,6.4-11.4,6.4-20c0-3.8-0.4-7.4-1.1-10.7
		c-0.8-3.3-2-6.2-3.7-8.6c-1.7-2.4-3.9-4.3-6.6-5.7c-2.7-1.4-6-2.1-9.8-2.1c-3.6,0-6.9,0.6-10,1.9c-3,1.2-5.4,2.5-7,3.8L92.3,117.9
		L92.3,117.9z M218.2,127.3c-3,0.8-7.1,1.6-12,2.4c-5,0.9-10.8,1.3-17.3,1.3c-5.7,0-10.5-0.8-14.4-2.5c-3.9-1.7-7-4-9.4-7
		c-2.4-3-4.1-6.6-5.1-10.8c-1-4.1-1.6-8.7-1.6-13.7V55.4h13.2v38.7c0,9,1.4,15.5,4.3,19.4c2.8,3.9,7.6,5.8,14.4,5.8
		c1.4,0,2.9-0.1,4.4-0.1c1.4-0.1,2.9-0.2,4.3-0.4c1.2-0.1,2.4-0.3,3.6-0.4c1.1-0.1,1.9-0.3,2.3-0.5V55.4h13.2L218.2,127.3z
		 M237.3,57.5c3-0.8,7.1-1.6,12.1-2.4c5-0.9,10.8-1.3,17.4-1.3c5.9,0,10.8,0.8,14.7,2.5c3.9,1.7,7,4,9.3,7c2.3,3,4,6.6,4.9,10.7
		c0.9,4.2,1.4,8.8,1.4,13.8v41.6h-13.2V90.7c0-4.6-0.3-8.4-0.9-11.7c-0.6-3.2-1.6-5.8-3.1-7.8c-1.4-2-3.3-3.4-5.7-4.3
		c-2.4-0.9-5.3-1.4-8.8-1.4c-1.4,0-2.9,0-4.4,0.1c-1.4,0.1-2.9,0.2-4.3,0.4c-1.4,0.1-2.6,0.3-3.7,0.5c-1.1,0.2-1.9,0.3-2.3,0.4v62.5
		h-13.2L237.3,57.5L237.3,57.5z M327.7,55.4h28v11.1h-28v34.2c0,3.7,0.3,6.8,0.9,9.2c0.6,2.4,1.4,4.3,2.6,5.7
		c1.1,1.4,2.6,2.4,4.3,2.9c1.7,0.6,3.7,0.9,6,0.9c4.1,0,7.3-0.5,9.7-1.4c2.4-0.9,4-1.5,4.8-1.9l2.8,10.8c-1.3,0.7-3.7,1.5-7,2.6
		c-3.4,1-7.2,1.6-11.5,1.6c-5,0-9.2-0.6-12.5-1.9c-3.3-1.3-5.9-3.2-7.9-5.8c-2-2.6-3.4-5.7-4.2-9.5c-0.8-3.7-1.2-8.1-1.2-13V34.7
		l13.2-2.3L327.7,55.4L327.7,55.4z M427.8,127.3c-3,0.8-7,1.6-12,2.4c-5,0.9-10.8,1.3-17.3,1.3c-5.7,0-10.5-0.8-14.4-2.5
		c-3.9-1.7-7-4-9.4-7c-2.4-3-4.1-6.6-5.1-10.8c-1-4.1-1.6-8.7-1.6-13.7V55.4h13.2v38.7c0,9,1.4,15.5,4.3,19.4
		c2.8,3.9,7.6,5.8,14.4,5.8c1.4,0,2.9-0.1,4.4-0.1c1.4-0.1,2.8-0.2,4.3-0.4c1.2-0.1,2.4-0.3,3.6-0.4c1.1-0.1,1.9-0.3,2.4-0.5V55.4
		h13.2L427.8,127.3L427.8,127.3L427.8,127.3z"/>
</g>
</svg>
