<?xml version="1.0" encoding="utf-8"?>
<!-- Generator: Adobe Illustrator 22.0.0, SVG Export Plug-In . SVG Version: 6.00 Build 0)  -->
<svg version="1.1" id="图层_1" xmlns="http://www.w3.org/2000/svg" xmlns:xlink="http://www.w3.org/1999/xlink" x="0px" y="0px"
	 viewBox="0 0 920 550" style="enable-background:new 0 0 920 550;" xml:space="preserve">
<style type="text/css">
	.st0{fill:#87A556;}
	.st1{fill:#38422A;}
</style>
<g id="_x23_87a556ff">
	<path class="st0" d="M434.4,2.6c43.1-5.2,87.9,4.7,124.4,28.2c30.1,19.1,54.7,46.9,69.8,79.2c18.1,38.2,22.8,82.6,13.1,123.8
		c-8.1,35.3-26.7,68-52.8,93.2c-23.6,22.9-53.2,39.6-85.1,47.6c-42.3,10.8-88.3,6.5-127.7-12.3c-25.7-12.2-48.7-30.2-66.6-52.4
		c-23.3-28.6-37.8-64.3-41.2-101c-3-31.8,2-64.4,14.8-93.7c13.1-30.2,34.2-56.8,60.6-76.4C370.1,19.1,401.7,6.4,434.4,2.6
		 M488.8,52.6c0,29-0.1,58-0.1,87c24.5-14.6,49.2-28.8,73.5-43.6C537.7,81.5,513.3,67,488.8,52.6 M412.1,84.1
		c-27.3,11.6-49.9,33.9-61.4,61.3c4.5,2.6,9,5.3,13.5,8c8.7-21.2,24.7-39.4,44.9-50.3c19.3-10.6,42.2-14.4,63.9-10.9
		c0-5.4,0-10.7,0-16.1C452.4,73.2,431.1,75.9,412.1,84.1 M437.8,116.8c-19,4.8-35.7,17.5-45.9,34.2c-2.6,4.6-5.6,9.6-6.6,14.7
		c4.5,2.8,9.2,5.6,13.8,8.2c4.6-16.1,16.3-30,31.3-37.3c13-6.5,28.4-7.8,42.4-4.1c0-5.5,0-10.9,0-16.4
		C461.4,113.6,449.3,113.8,437.8,116.8 M536.3,129.8c14.6,18.9,22,43.2,20.5,67c-1.1,20.3-8.7,40-21.2,56c4.5,2.7,9.1,5.4,13.6,8.1
		c7.5-9.7,13.3-20.7,17.4-32.2c12.6-35.5,6.2-77-16.6-107C545.4,124.4,540.9,127,536.3,129.8 M501.9,150.1
		c9.5,10.6,15.2,24.4,15.6,38.7c0.6,16-5.5,32-16.5,43.6c4.6,2.9,9.4,5.6,14,8.4c11.1-13,17.9-29.7,18.5-46.8
		c0.8-18.7-5.7-37.6-17.8-51.9C511.1,144.7,506.5,147.4,501.9,150.1 M323,147.3c0,29-0.1,58-0.1,87c24.6-14.5,49.1-29,73.7-43.5
		C372.1,176.3,347.5,161.8,323,147.3 M385,215.9c6.6,19.4,21.6,35.8,40.2,44.3c14.8,6.9,31.8,8.8,47.7,5.3c0-5.5,0-10.9,0-16.4
		c-15,3.9-31.5,2.2-45.1-5.5c-13.8-7.6-24.3-20.8-28.7-35.9C394.3,210.3,389.8,213.3,385,215.9 M350.7,236.2
		c9.2,22.1,25.8,41,46.1,53.5c22.5,13.8,49.8,19.7,76,15.9c0-5.3,0-10.7,0-16c-20,3.1-40.9,0.2-59.1-8.6
		c-22.3-10.6-40.2-29.8-49.5-52.6C359.7,230.9,355.2,233.6,350.7,236.2 M488.7,243.5c-0.1,29-0.1,57.9-0.1,86.9
		c24.5-14.5,49.1-28.8,73.4-43.5C537.7,272.2,513.2,257.9,488.7,243.5z"/>
</g>
<g id="_x23_38422aff">
	<path class="st1" d="M93.3,425.1c4.9-0.9,9.8-2,14.8-2.3c0,14.8,0.1,29.7-0.1,44.5c13.9-8.3,33.6-8,45.8,3.4
		c9.5,8.9,12.9,22.5,12.6,35.1c0.1,12.2-4,25.1-13.5,33.2c-7.1,6.3-16.6,9.2-25.9,9.8h-7.3c-9-0.7-17.9-2.1-26.5-4.4
		C93.3,504.6,93.3,464.9,93.3,425.1 M108.1,480.9c0,17.7,0,35.3,0,53c6.8,1.7,13.8,2,20.8,1.5c8.9-0.8,16.8-7.3,19.9-15.6
		c3.1-8.6,3-18.1,1-26.9c-1.5-7-5.9-13.6-12.7-16.4C127.5,472.6,116.4,475.1,108.1,480.9z"/>
	<path class="st1" d="M358.3,440.3c4.9-0.9,9.8-1.8,14.8-2.5c0,8.6,0,17.1,0,25.7c10.5,0,21,0,31.5,0c0,4.1,0,8.3,0,12.4
		c-10.5,0.1-21-0.1-31.5,0c0.1,14.3-0.1,28.5,0.1,42.8c0.3,5.9,1.8,13.2,8,15.6c7.8,2.4,16.4,1,23.6-2.5c1,4.1,2.6,8.1,2.9,12.3
		c-10.3,4.2-22,5.9-32.9,2.7c-5.9-1.7-10.9-6.2-13.3-11.8c-2.8-6.7-3.2-14.1-3.2-21.3C358.3,489.3,358.3,464.8,358.3,440.3z"/>
	<path class="st1" d="M530.8,438.1c8.8,0,17.6,0,26.5,0c7.5,20.6,15.5,40.9,22.5,61.6c0.9,2.6,1.7,5.3,3,7.7
		c8-23.2,16.5-46.2,24.8-69.3c8.8-0.1,17.5,0,26.3,0c0,36.9,0,73.8,0,110.6h-23.2c0-13.3,0-26.7,0-40.1c0-12.9,2-25.7,3.2-38.6
		c-2,3.2-2.8,7-4.2,10.5c-6.8,19.8-15,39-22.6,58.5c-3.3,0-6.7,0-10,0c-7.4-19.1-15.6-38-22-57.5c-1.4-3.8-2.3-7.7-4.2-11.3
		c0.8,12.5,2.8,24.9,2.9,37.5c0,13.7,0,27.3,0,41h-22.9C530.7,511.9,530.7,475,530.8,438.1z"/>
	<path class="st1" d="M680.4,438.2c10-0.1,20,0,30.1,0c11.6,36.9,23,73.8,34.6,110.6h-26.5c-2.4-8.7-4.5-17.5-6.9-26.3
		c-11.2,0-22.4,0-33.7,0c-2.3,8.8-4.5,17.5-6.8,26.3h-25.5C657.3,511.9,668.8,475,680.4,438.2 M694.6,457
		c-3.6,15.4-7.2,30.7-11.4,45.9c7.8,0,15.6,0,23.4,0c-3.5-14-7.3-28-10.6-42C695.6,459.5,695.6,458,694.6,457z"/>
	<path class="st1" d="M741.4,438.2c28.6,0,57.2,0,85.9,0c0,7,0,14,0,21.1c-10.1,0-20.2,0-30.3,0c0,29.8,0,59.7,0,89.5h-25.1
		c-0.1-29.9,0.1-59.7-0.1-89.6c-10.1,0.1-20.2,0-30.3,0.1C741.4,452.2,741.4,445.2,741.4,438.2z"/>
	<path class="st1" d="M844.7,438.1c23,0.1,46,0.1,69,0c0.2,7,0,14.1,0.1,21.2c-14.8,0.1-29.5-0.2-44.3,0.1c0.2,7.3,0,14.7,0.1,22
		c12.5,0,25,0,37.6,0c0,7,0,13.9,0,20.9c-12.5,0-25.1,0-37.6,0c0,8.5,0,16.9,0,25.4c15.3,0,30.6,0,45.9,0c0.1,7,0,14,0,21.1h-70.9
		C844.7,511.9,844.5,475,844.7,438.1z"/>
	<path class="st1" d="M271.4,465.8c10.6-2.2,21.4-4.3,32.3-3.9c9.1-0.4,19.1,1.6,25.7,8.3c6.9,6.9,8.6,17.2,9,26.5
		c0.2,16.6,0,33.3,0.1,49.9c-4.9,0-9.8-0.1-14.7,0c0.1-14.7,0-29.3,0-44c-0.5-7.5-0.3-15.8-5-22.1c-4-5.2-11.1-5.9-17.1-6
		c-5.2,0.4-10.5,0.6-15.6,1.7c0,23.4,0,46.9,0,70.3c-4.9,0-9.9,0-14.8,0C271.4,519.7,271.3,492.7,271.4,465.8z"/>
	<path class="st1" d="M4.5,463.5c4.9,0,9.8,0,14.7,0c0.2,15.8-0.1,31.5,0.1,47.3c0.3,6.1,1.1,12.6,4.5,17.8
		c3.1,4.5,8.6,6.6,13.9,6.8c6.4,0.3,12.8-0.3,19.2-1.4c0-23.5,0-47,0-70.5c4.9,0,9.8,0,14.7,0c0,27,0,53.9,0,80.9
		c-11.1,2.6-22.4,4.4-33.9,4.1c-9.3,0.1-19.3-2.7-25.4-10.2c-6.1-7.4-7.6-17.3-7.9-26.5C4.5,495.7,4.5,479.6,4.5,463.5z"/>
	<path class="st1" d="M182.6,463.5c4.9,0,9.8,0,14.7,0c0.2,16.1-0.1,32.1,0.2,48.2c0.5,6.4,1.3,13.6,5.9,18.6
		c4.2,4.5,10.7,5.4,16.5,5.2c5.1,0,10.2-0.6,15.2-1.5c-0.1-23.5,0-47,0-70.5c4.9,0,9.8,0,14.6,0c0,27,0,53.9,0,80.9
		c-11.1,2.6-22.5,4.4-33.9,4.1c-9.3,0.1-19.3-2.8-25.3-10.2c-6.3-7.6-7.7-17.9-7.9-27.5C182.5,495,182.5,479.3,182.6,463.5z"/>
	<path class="st1" d="M418.5,463.5c4.9,0,9.8,0,14.8,0c0.1,15.8-0.1,31.5,0.1,47.3c0.4,6.1,1.1,12.6,4.6,17.9
		c3.1,4.5,8.6,6.5,13.9,6.8c6.4,0.3,12.8-0.3,19.1-1.4c0-23.5,0-47,0-70.5c4.9,0,9.8,0,14.7,0c0,27,0,53.9,0,80.9
		c-11.1,2.6-22.5,4.4-33.9,4.1c-9.3,0.1-19.3-2.8-25.3-10.2c-6.1-7.4-7.6-17.3-7.9-26.5C418.5,495.7,418.5,479.6,418.5,463.5z"/>
</g>
</svg>
