<?xml version="1.0" encoding="utf-8"?>
<!-- Generator: Adobe Illustrator 22.0.1, SVG Export Plug-In . SVG Version: 6.00 Build 0)  -->
<svg version="1.1" id="图层_1" xmlns="http://www.w3.org/2000/svg" xmlns:xlink="http://www.w3.org/1999/xlink" x="0px" y="0px"
	 viewBox="0 0 500 160" style="enable-background:new 0 0 500 160;" xml:space="preserve">
<style type="text/css">
	.st0{fill:#ADABAC;}
</style>
<g id="Page-1">
	<g id="Ambassador-overview_V5" transform="translate(-564.000000, -74.000000)">
		<g id="Page-1-Copy-8" transform="translate(564.400000, 74.902344)">
			<path id="Fill-1" class="st0" d="M90.4,82.8c-2.5,20.1-20.5,31.4-38.5,29.4c1.3-4.5,1.9-6.5,3.5-10.2c1.2-2.1,5.5-2.9,8.7-4.4
				C70.8,95.1,75.9,88.8,77,81c0.7-5.6-0.9-10.9-4-15c-2.1-2.8-4.1-4.5-3.5-7.2c1.1-3.6,1.9-6.3,3.7-10.8
				C84.9,54.6,92.4,68.3,90.4,82.8 M41.4,121.4c0.7-4.3,1.2-8.3,1.9-11.8c-12.8-6.7-20.9-20-18.8-35.4c2.8-21,18.4-31.8,37.9-29.9
				c1.5-2.1,3.1-4.3,4.9-6.3c3.3-3.9,8.3-4,6,0.5c-4.4,8.8-6.3,15.3-10,26c-3.9,11.3-9.7,27.8-17.6,56.8
				C45.2,123.9,41.3,123.5,41.4,121.4 M57.5,18.9c-31.9,0-57.9,26.9-57.9,60.2s26,60.2,57.9,60.2s57.9-26.9,57.9-60.2
				S89.4,18.9,57.5,18.9"/>
			<path id="Fill-3" class="st0" d="M38.1,75.9c-0.7,5.3,0.8,10.5,3.6,14.5c1.9,2.7,3.3,4.1,4,5.3c2.3-13,4-19.8,6.3-27.4
				c1.1-3.2,2.7-7.6,3.9-10.6c-1.5,0.5-3.5,1.1-5.2,1.7C43.9,62.1,39,68.2,38.1,75.9"/>
			<path id="Fill-5" class="st0" d="M487.9,76.3h-22c0,0-1.3,0.3-0.8-1.6c1.6-5.7,6-8.9,12.1-8.9c6.5,0,10.1,3.7,11.4,9
				C489.1,76.3,487.9,76.3,487.9,76.3 M499.6,81.1c-0.3-14.2-8.5-24.2-22.2-24.2c-12.9,0-22.9,10-22.9,23.3
				c0,13.4,9.6,23.3,24.2,23.3c8,0,12.9-2.3,16.9-6c1.1-1.2,0.5-2-0.3-2.8c-0.4-0.5-2.8-3.1-3.3-3.6c-0.8-0.9-1.7-1.1-2.7,0
				c-2.5,2-5.9,3.5-10.6,3.5c-7.3,0-11.7-3.6-13.3-9.3c-0.1-0.4,0.1-1.3,0.8-1.3h31.4C499.1,83.8,499.5,82.8,499.6,81.1"/>
			<path id="Fill-7" class="st0" d="M451.7,94.1c-0.5-0.5-3.6-3.2-4-3.6c-0.8-0.7-1.9-1.1-2.9,0.1c-2.4,2.1-4.7,3.5-9.2,3.5
				c-7.7,0-12.2-5.9-12.2-13.8s4.7-13.8,12.2-13.8c3.7,0,6.4,1.2,8.7,3.6c1.3,1.1,2.1,1.2,3.1,0.3c0.5-0.5,3.9-3.1,4.4-3.6
				c0.9-0.9,1.1-1.3,0.1-2.8c-3.9-4-8.5-6.9-16.1-6.9c-13.2,0-22.9,10-22.9,23.3c0,13.4,9.8,23.3,22.9,23.3c7.7,0,12-2.5,16.2-6.5
				C453.4,95.6,452.4,94.8,451.7,94.1"/>
			<path id="Fill-9" class="st0" d="M392.9,56.9c-6.1-0.1-10.4,0-14.5,4V60c0-1.3-0.7-2.1-2.3-2.1h-7.9v41.7c0,2.1,0.5,2.9,2.7,2.9
				h5.1c2.1,0,2.7-0.8,2.7-3.1v-21c0-7.2,4.4-11.4,11.2-11.4c6,0,8.9,3.7,8.9,10.1v22.5c0,2.8,0.7,3.1,3.3,3.1c0.9,0,2.4,0,3.7,0
				c2.7,0,3.2-0.4,3.2-3.2V76C408.8,63.9,402.3,57.1,392.9,56.9"/>
			<path id="Fill-11" class="st0" d="M354,60.9v21.4c0,7.7-2.8,11.8-9.6,11.8c-6.9,0-9.6-4.1-9.6-11.8V60.7c0-2.3-0.7-2.9-2.7-2.9
				h-4.9c-2.3,0-2.9,0.8-2.9,2.9v21.8c0,13,6.9,20.9,19.6,20.9c12.8,0,20.4-7.9,20.4-20.9V57.8h-7.1C354.8,57.8,354,58.5,354,60.9"
				/>
			<path id="Fill-13" class="st0" d="M250.7,94.3c-7.5,0-13.4-6.3-13.4-14s6-14,13.4-14c7.4,0,13.4,6.3,13.4,14
				S258.2,94.3,250.7,94.3 M250.9,56.7c-5.1,0-9.8,1.7-13.6,4.7c0-13.4,0-25.2,0-25.6c0-2-0.4-2.8-2.7-2.8c-0.7,0-3.7,0-5.2,0
				c-2,0-2.4,0.5-2.4,2.7v66.8h8.5c1.2,0,1.6-0.7,1.6-1.7v-1.5c3.9,2.9,8.5,4.7,13.6,4.7c12.5,0,22.8-10.5,22.8-23.7
				C273.6,67.3,263.5,56.7,250.9,56.7"/>
			<path id="Fill-15" class="st0" d="M207.3,56.9c-6.1-0.1-10.4,0-14.5,4V60c0-1.3-0.7-2.1-2.3-2.1h-7.9v41.7c0,2.1,0.5,2.9,2.7,2.9
				h5.1c2.1,0,2.7-0.8,2.7-3.1v-21c0-7.2,4.4-11.4,11.2-11.4c6,0,8.9,3.7,8.9,10.1v22.5c0,2.8,0.7,3.1,3.3,3.1c2,0,6.9,0,6.9,0V76
				C223.3,63.9,216.8,57.1,207.3,56.9"/>
			<path id="Fill-17" class="st0" d="M168.5,60.7v21.6c-0.4,7.7-2.8,11.8-9.6,11.8c-6.9,0-9.2-4.1-9.6-11.8V60.9
				c0-1.9-0.4-2.9-2.3-2.9h-5.7c-1.9,0-2.4,0.9-2.4,2.9c0,0.8,0,22,0,22c0,13,6.9,20.9,19.6,20.9c12.8,0,20.4-7.9,20.4-20.9v-25h-8
				C169.2,57.8,168.5,58.7,168.5,60.7"/>
			<path id="Fill-19" class="st0" d="M290.1,90.5c2.4,2.5,5.3,3.7,8.9,3.7s6.5-1.3,8.9-3.7c2.4-2.5,3.6-5.9,3.6-9.8
				c0-4-1.2-7.2-3.7-9.8c-2.4-2.5-5.3-3.9-8.9-3.9c-3.5,0-6.4,1.3-8.8,3.9c-2.4,2.5-3.6,5.9-3.6,9.8
				C286.5,84.7,287.6,87.9,290.1,90.5 M315.4,97.1c-4.5,4.3-10,6.4-16.5,6.4s-12-2.1-16.5-6.4c-4.5-4.4-6.7-9.8-6.7-16.5
				s2.3-12.1,6.7-16.4c4.5-4.4,10-6.5,16.5-6.5s12,2.1,16.5,6.5s6.8,9.8,6.8,16.4C322.2,87.2,320.1,92.7,315.4,97.1"/>
		</g>
	</g>
</g>
</svg>
