<?xml version="1.0" encoding="utf-8"?>
<!-- Generator: Adobe Illustrator 22.0.1, SVG Export Plug-In . SVG Version: 6.00 Build 0)  -->
<svg version="1.1" xmlns="http://www.w3.org/2000/svg" xmlns:xlink="http://www.w3.org/1999/xlink" x="0px"
	 y="0px" viewBox="0 0 350 90" style="enable-background:new 0 0 350 90;" xml:space="preserve">
<style type="text/css">
	.st0{fill:#142149;}
	.st1{fill:#C9F4FF;}
	.st2{fill:#51B9FF;}
	.st3{fill:#007BFC;}
</style>
<g id="text">
	<path class="st0" d="M348.7,63.8l-8.8-15.1c6.9-2.9,10.1-10.9,7.2-17.8c-2.1-5-7.1-8.3-12.5-8.3h-19.2c-1.3,0-2.4,1.1-2.4,2.4
		c0,0,0,0,0,0v40c0,1.3,1.1,2.4,2.4,2.4h1.6c1.3,0,2.4-1.1,2.4-2.4V49.8h14l9.5,16.4c0.4,0.7,1.2,1.2,2.1,1.2h1.6
		c1.3,0,2.4-1.1,2.4-2.4C349,64.6,348.9,64.1,348.7,63.8L348.7,63.8z M319.4,29h15.2c4,0,7.2,3.2,7.2,7.2s-3.2,7.2-7.2,7.2h-15.2V29
		z"/>
	<path class="st0" d="M299.4,22.6h-33.6c-1.3,0-2.4,1.1-2.4,2.4c0,0,0,0,0,0v1.6c0,1.3,1.1,2.4,2.4,2.4c0,0,0,0,0,0h13.6v36
		c0,1.3,1.1,2.4,2.4,2.4h1.6c1.3,0,2.4-1.1,2.4-2.4V29h13.6c1.3,0,2.4-1.1,2.4-2.4V25C301.8,23.7,300.7,22.6,299.4,22.6z"/>
	<path class="st0" d="M264.2,61h-21.6V25c0-1.3-1.1-2.4-2.4-2.4c0,0,0,0,0,0h-1.6c-1.3,0-2.4,1.1-2.4,2.4c0,0,0,0,0,0v40
		c0,1.3,1.1,2.4,2.4,2.4h25.6c1.3,0,2.4-1.1,2.4-2.4v-1.6C266.6,62.1,265.5,61,264.2,61C264.2,61,264.2,61,264.2,61z"/>
	<path class="st0" d="M223.4,25c0-1.3-1.1-2.4-2.4-2.4c0,0,0,0,0,0h-1.6c-1.3,0-2.4,1.1-2.4,2.4c0,0,0,0,0,0v24.8
		c0,6.6-5.4,12-12,12s-12-5.4-12-12V25c0-1.3-1.1-2.4-2.4-2.4H189c-1.3,0-2.4,1.1-2.4,2.4c0,0,0,0,0,0v24.8
		c0,10.2,8.2,18.4,18.4,18.4c10.2,0,18.4-8.2,18.4-18.4L223.4,25z"/>
	<path class="st0" d="M174.6,22.6h-1.5c-1,0-1.9,0.6-2.2,1.5L157,58.7l-13.9-34.6c-0.4-0.9-1.2-1.5-2.2-1.5h-1.5
		c-1.3,0-2.4,1.1-2.4,2.4c0,0.3,0.1,0.6,0.2,0.9l16,40c0.4,0.9,1.2,1.5,2.2,1.5h3.2c1,0,1.9-0.6,2.2-1.5l16-40
		c0.5-1.2-0.1-2.6-1.3-3.1C175.2,22.6,174.9,22.6,174.6,22.6L174.6,22.6z"/>
</g>
<g id="sygnet">
	<path class="st1" d="M34.4,5.6c-0.9-1.4-2.4-2.2-4.1-2.2H5.8C3.1,3.4,1,5.5,1,8.2c0,0.9,0.3,1.8,0.7,2.6l5,8l32.7-5.1L34.4,5.6z"/>
	<path class="st2" d="M39.5,13.6c-0.9-1.4-2.4-2.2-4.1-2.2H10.8c-2.7,0-4.8,2.1-4.8,4.8c0,0.9,0.3,1.8,0.7,2.6l7.1,11.2l32.7-5.1
		L39.5,13.6z"/>
	<path class="st3" d="M13.8,29.9c-0.5-0.8-0.7-1.7-0.7-2.6c0-2.7,2.1-4.8,4.8-4.8l0,0h24.6c1.6,0,3.2,0.8,4.1,2.2l22,34.9
		c1,1.6,1,3.6,0,5.1L56.2,84.4c-1.4,2.2-4.4,2.9-6.6,1.5c-0.6-0.4-1.1-0.9-1.5-1.5L13.8,29.9z"/>
	<path class="st3" d="M75.8,40.4c1.4,2.3,4.4,2.9,6.6,1.5c0.6-0.4,1.2-0.9,1.5-1.5l4.2-6.7l8.1-12.8c1-1.6,1-3.6,0-5.1L89.8,5.6
		c-0.9-1.4-2.4-2.2-4.1-2.2H61.2c-2.7,0-4.8,2.1-4.8,4.8c0,0.9,0.3,1.8,0.7,2.6L75.8,40.4z"/>
</g>
</svg>
