<?xml version="1.0" encoding="utf-8"?>
<!-- Generator: Adobe Illustrator 22.0.0, SVG Export Plug-In . SVG Version: 6.00 Build 0)  -->
<svg version="1.1"
	 id="svg12" inkscape:version="0.91 r13725" sodipodi:docname="logotype-dark.svg" xmlns:cc="http://creativecommons.org/ns#" xmlns:dc="http://purl.org/dc/elements/1.1/" xmlns:inkscape="http://www.inkscape.org/namespaces/inkscape" xmlns:rdf="http://www.w3.org/1999/02/22-rdf-syntax-ns#" xmlns:sodipodi="http://sodipodi.sourceforge.net/DTD/sodipodi-0.dtd" xmlns:svg="http://www.w3.org/2000/svg"
	 xmlns="http://www.w3.org/2000/svg" xmlns:xlink="http://www.w3.org/1999/xlink" x="0px" y="0px" viewBox="0 0 840 250"
	 style="enable-background:new 0 0 840 250;" xml:space="preserve">
<style type="text/css">
	.st0{fill:#8EDBF2;}
</style>
<sodipodi:namedview  bordercolor="#666666" borderopacity="1" gridtolerance="10" guidetolerance="10" id="namedview16" inkscape:current-layer="svg12" inkscape:cx="105.67742" inkscape:cy="15" inkscape:pageopacity="0" inkscape:pageshadow="2" inkscape:window-height="1000" inkscape:window-maximized="1" inkscape:window-width="1920" inkscape:window-x="0" inkscape:window-y="0" inkscape:zoom="1.7884615" objecttolerance="10" pagecolor="#ffffff" showgrid="false">
	</sodipodi:namedview>
<path id="path14" class="st0" d="M27.1,165l11.5,19.9h69.2l11.5-19.9H27.1z M142.4,125l-11.6,20.1H57.2l73.6-40.2L142.4,125z
	 M4.1,125l11.6-20.1h73.6l-73.6,40.2L4.1,125z M27.1,85l11.5-19.9h69.2L119.3,85H27.1z M148.7,136.9c0,5.7,0.8,10.5,2.3,14.4
	c1.6,3.8,3.9,6.7,6.9,8.8c3,2.1,6.6,3.5,10.8,4.4c4.3,0.9,9.4,1.3,15.3,1.3h39.4c5.9,0,10.9-0.4,15.1-1.3c4.3-0.9,7.9-2.4,10.9-4.5
	c3-2.1,5.3-5.1,6.9-8.8c1.5-3.8,2.3-8.5,2.3-14.3v-23.9c0-5.7-0.8-10.5-2.3-14.3c-1.5-3.8-3.8-6.8-6.9-8.8c-3-2.1-6.7-3.6-10.9-4.5
	c-4.2-0.9-9.2-1.3-15.1-1.3H184c-5.9,0-11,0.4-15.3,1.3c-4.2,0.8-7.8,2.3-10.8,4.4c-2.9,2.1-5.2,5.1-6.9,9
	c-1.5,3.8-2.3,8.5-2.3,14.3L148.7,136.9L148.7,136.9z M173.9,120.7c0-5.5,1-9.5,3.1-12c2.1-2.7,6.2-4,12.3-4H218
	c6,0,10.1,1.3,12.2,4c2.1,2.6,3.2,6.6,3.2,12v8.6c0,6-1,10.2-2.9,12.6c-1.8,2.3-5.6,3.4-11.2,3.4H188c-5.6,0-9.4-1.1-11.3-3.4
	c-1.8-2.4-2.8-6.6-2.8-12.6L173.9,120.7L173.9,120.7z M340.8,121.4H305l48.2,43.6h27.7l-32.7-28.4v-0.4c4.8,0,8.7-0.5,11.8-1.4
	c3.2-1,5.7-2.4,7.6-4.5c1.9-2,3.3-4.7,4.2-8c0.9-3.3,1.3-7.4,1.3-12.3c0-4.9-0.6-8.9-1.7-12.1c-1.1-3.2-2.8-5.7-5.2-7.5
	c-2.4-1.9-5.4-3.3-9.2-4.1c-3.7-0.8-8.4-1.2-14.1-1.2h-66.4v80h24.9v-60.1h39.6c2.4,0,4.6,0.8,6.4,2.3c1.8,1.5,2.7,3.4,2.7,5.8
	c0,2.7-1,4.8-2.9,6.2C345.5,120.7,343.3,121.4,340.8,121.4L340.8,121.4z M391,165h24.5V85H391V165z M433.5,165h24.5v-58.1h0.2
	l46.1,58.1h38V85h-24.5v58.1h-0.2L471.6,85h-38V165z M611.8,136.9c0,5.7,0.8,10.5,2.3,14.4c1.6,3.8,3.9,6.7,6.9,8.8
	c3,2.1,6.6,3.5,10.8,4.4c4.3,0.9,9.4,1.3,15.3,1.3h39.4c5.9,0,10.9-0.4,15.1-1.3c4.3-0.9,7.9-2.4,10.9-4.5c3-2.1,5.3-5.1,6.9-8.8
	c1.5-3.8,2.3-8.5,2.3-14.3v-23.9c0-5.7-0.8-10.5-2.3-14.3c-1.5-3.8-3.8-6.8-6.9-8.8c-3-2.1-6.7-3.6-10.9-4.5
	c-4.2-0.9-9.2-1.3-15.1-1.3h-39.4c-5.9,0-11,0.4-15.3,1.3c-4.2,0.8-7.8,2.3-10.8,4.4c-2.9,2.1-5.2,5.1-6.9,9
	c-1.5,3.8-2.3,8.5-2.3,14.3V136.9L611.8,136.9z M637,120.7c0-5.5,1-9.5,3.1-12c2.1-2.7,6.2-4,12.3-4h28.7c6,0,10.1,1.3,12.2,4
	c2.1,2.6,3.2,6.6,3.2,12v8.6c0,6-1,10.2-2.9,12.6c-1.8,2.3-5.6,3.4-11.2,3.4h-31.4c-5.6,0-9.4-1.1-11.3-3.4
	c-1.8-2.4-2.8-6.6-2.8-12.6L637,120.7L637,120.7z M735,144.3c0,4.3,0.6,7.9,1.8,10.7c1.2,2.8,3,5,5.4,6.5c2.5,1.5,5.7,2.7,9.5,3.3
	c3.9,0.7,8.8,1,14.6,1H796c8.6,0,15.4-0.3,20.4-0.9c5-0.7,8.9-1.8,11.7-3.5c2.9-1.8,4.9-4.2,6-7.4c1.2-3.2,1.8-7.7,1.8-13.3
	c0-5.9-0.7-10.5-2-13.8c-1.3-3.3-3.6-5.8-7-7.5c-3.3-1.7-7.9-2.8-13.7-3.3c-5.7-0.6-13.9-0.9-24.3-0.9c-7,0-12.4-0.1-16.2-0.2
	c-3.8-0.1-6.6-0.4-8.5-0.9c-1.8-0.5-3.1-1.2-3.6-2.1c-0.6-0.9-0.9-2.2-0.9-3.9c0-2.1,0.8-3.6,2.4-4.6c1.7-1,4-1.5,6.9-1.5h27.2
	c5.3,0,8.6,0.6,9.9,1.8c1.3,1.1,2,3.3,2,6.5h24.5v-2.5c0-4-0.3-7.3-1-10.1c-0.7-2.8-2-5.2-4.1-7.2c-2-2.1-5.1-3.6-9.3-4.8
	c-4.2-1.1-9.7-1.7-16.6-1.7h-34.3c-7.4,0-13.4,0.6-17.8,1.9c-4.4,1.3-7.7,3-9.7,5.3c-2.1,2.2-3.4,4.8-4,7.6
	c-0.5,2.8-0.8,6.4-0.8,10.8c0,5.3,0.4,9.5,1.3,12.5c1,2.9,2.8,5.3,5.4,7c2.7,1.7,6.7,2.9,12,3.6c5.4,0.7,12.8,1,22.3,1
	c8.9,0,15.4,0.1,19.6,0.2c4.2,0.1,7.4,0.4,9.5,0.9c2.2,0.4,3.6,1.1,4.3,2.1c0.7,0.9,1.1,2.3,1.1,4.2c0,2.8-0.9,4.6-2.8,5.5
	c-1.8,0.8-4.4,1.2-7.7,1.2h-30.1c-4,0-6.7-0.5-8.3-1.5c-1.5-1.1-2.2-3.6-2.3-7.6H735L735,144.3L735,144.3z"/>
</svg>
